<svg width="192" height="260" viewBox="0 0 192 260" fill="none" xmlns="http://www.w3.org/2000/svg">
<path fill-rule="evenodd" clip-rule="evenodd" d="M144.863 141.278C143.39 135.563 142.035 133.14 139.418 131.153C136.971 129.296 133.397 127.735 128.184 126.595C122.753 125.646 122.599 122.823 121.238 118.286C120.841 116.922 118.872 116.559 118.023 117.542C117.903 117.412 117.778 117.294 117.649 117.187C117.764 116.537 116.817 114.672 116.849 114.05C117.179 107.555 115.055 104.294 109.754 103.081C108.601 102.817 100.77 102.662 99.6463 102.973C94.7321 104.332 89.8944 108.647 90.6347 113.844C89.0922 115.861 87.5824 117.091 85.2025 117.741C79.9062 118.414 74.6105 119.012 69.3128 119.524C58.9427 121.15 49.2199 126.64 42.5746 134.647C41.9617 135.386 41.7846 136.39 42.3256 137.178C41.9018 138.993 39.5165 143.397 41.3933 144.641C38.307 152.024 31.2057 166.295 31.1924 170.372C31.1365 187.499 32.9862 209.792 49.8837 219.27C50.5602 219.935 50.657 220.671 50.95 221.661C51.6928 224.779 54.3908 227.008 57.3438 226.826C71.8909 227.149 85.9807 225.374 100.528 225.288C106.944 225.25 114.659 226.208 120.232 226.846C125.805 227.484 131.43 226.92 136.779 225.288C137.23 225.998 138.141 226.412 139.066 226.208C144.611 225.106 149.094 221.689 152.999 217.954C154.192 215.782 158.853 209.596 157 207.443C158.679 200.343 158.592 192.714 155.608 185.953C156.031 184.713 155.26 183.351 155.608 182.072C155.86 181.145 156.505 180.762 156.83 179.845C157.286 178.555 156.79 176.823 156.275 175.507C156.065 174.85 156.663 174.144 156.83 173.474C157.619 170.315 155.812 170.594 154.509 168.482C154.528 168.475 154.867 166.968 154.866 166.975C155.065 165.899 154.565 164.52 154.13 163.621C153.835 163.014 153.204 162.634 152.577 162.704C153.208 160.56 154.007 158.776 154.866 156.71C156.384 153.069 158.307 149.582 160.488 146.286C161.381 144.936 160.181 143.373 158.736 143.281C154.058 142.983 149.431 142.31 144.863 141.278Z" fill="white"/>
<path fill-rule="evenodd" clip-rule="evenodd" d="M131.211 168.814C129.34 168.08 127.325 167.675 125.3 167.517C126.39 167.326 127.484 167.142 128.586 167.047C129.355 166.981 130.068 166.988 130.646 167.571C131.032 167.96 131.212 168.461 131.466 168.921C131.383 168.883 131.297 168.848 131.211 168.814ZM151.293 161.953C148.229 162.109 145.161 162.837 142.389 164.158C141.255 164.699 140.228 165.48 139.927 166.765C139.775 167.421 139.812 168.099 139.893 168.762C139.954 169.264 139.969 169.905 140.405 170.245C140.479 170.302 140.559 170.346 140.642 170.378C139.619 170.84 138.645 171.394 137.78 171.966C136.989 172.488 136.176 173.293 135.811 174.201C135.781 174.098 135.75 174.002 135.72 173.91C135.098 172.071 134.14 170.564 132.63 169.551C132.897 169.431 133.082 169.147 132.995 168.755C132.637 167.117 131.124 165.693 129.416 165.794C127.545 165.904 125.535 166.586 123.843 167.446C123.226 167.433 122.611 167.441 122.003 167.468C121.898 167.472 121.903 167.614 122.003 167.625C122.496 167.688 122.99 167.757 123.483 167.839C124.656 168.026 125.826 168.265 126.97 168.56C128.342 168.916 129.762 169.272 131.045 169.893C133.533 171.099 135.073 174.25 134.757 176.993C134.704 177.442 134.53 178.802 133.906 178.661C133.379 178.543 133.17 177.442 132.985 177.035C132.492 175.953 131.603 175.246 130.536 174.767C129.284 174.204 127.944 173.824 126.645 173.381C125.91 173.129 125.175 172.877 124.438 172.627C123.684 172.368 122.968 172.011 122.165 172.192C121.68 172.302 121.624 172.88 121.896 173.212C122.31 173.717 122.926 173.866 123.522 174.074C124.31 174.348 125.096 174.622 125.882 174.896C127.097 175.319 128.37 175.675 129.554 176.193L129.517 176.277C129.421 176.25 129.307 176.347 129.326 176.465C129.504 177.559 129.75 178.824 129.476 179.919C129.26 180.788 128.498 181.751 127.508 181.495C127.663 181.353 127.721 181.108 127.616 180.881C127.223 180.043 122.086 176.732 121.628 177.962C121.612 178.005 121.659 178.037 121.697 178.031C122.087 177.95 122.741 178.616 123.054 178.827C123.505 179.132 123.963 179.429 124.41 179.742C124.898 180.083 125.375 180.442 125.839 180.812C126.204 181.103 126.48 181.406 126.899 181.553C126.679 181.657 126.505 181.852 126.431 182.1C126.242 182.748 125.877 183.298 125.243 183.583C124.579 183.881 123.83 183.693 123.13 183.766C122.177 183.862 121.345 184.316 120.651 184.963C119.192 186.326 118.46 188.727 116.42 189.371C115.202 189.755 113.85 189.513 112.616 189.339C111.238 189.144 109.896 188.99 108.509 189.193C107.18 189.388 105.924 189.848 104.711 190.409C103.573 190.935 102.316 191.53 101.307 192.315C101.099 191.674 100.89 191.04 100.73 190.385C100.355 188.838 100.153 187.262 100.103 185.673C100.058 184.16 100.142 182.64 100.272 181.133C100.337 180.381 100.438 179.632 100.502 178.879C100.519 178.69 100.553 178.487 100.579 178.284C102.38 177.221 104.273 176.406 106.181 175.567C106.186 175.566 106.191 175.562 106.197 175.561C106.256 175.533 106.313 175.508 106.372 175.483C106.371 175.479 106.369 175.476 106.366 175.472C106.584 175.339 106.736 175.161 106.827 174.962C109.577 173.137 111.875 170.647 113.589 167.742C114.308 166.525 114.999 165.262 115.939 164.195C116.939 163.057 118.127 162.381 119.598 162.029C121.317 161.617 123.088 161.37 124.849 161.229C125.811 161.153 126.885 161.035 127.933 161.04C128.664 161.045 129.378 161.107 130.034 161.288C131.006 161.556 131.574 162.295 132.184 163.042C132.767 163.759 133.347 164.477 133.891 165.225C134.407 165.933 134.893 166.665 135.316 167.433C135.57 167.893 135.804 168.366 136.002 168.855C136.071 169.027 136.163 169.223 136.205 169.403C136.247 169.583 136.17 169.775 136.372 169.775C135.536 169.786 135.544 171.124 136.376 171.075C139.631 170.885 134.968 164.528 134.287 163.642C133.321 162.387 132.326 160.751 130.781 160.167C130.759 160.159 130.736 160.151 130.714 160.144C131.163 159.718 131.518 159.207 131.858 158.688C132.208 158.154 132.625 157.542 132.74 156.907C132.813 156.504 132.311 156.273 132.073 156.627C131.726 157.143 131.559 157.795 131.3 158.362C131.037 158.936 130.715 159.479 130.462 160.059C129.852 159.871 129.193 159.785 128.522 159.757C129.368 158.61 130.815 156.399 130.989 156.114C131.79 154.799 132.553 153.443 133.281 152.085C134.069 150.614 134.743 149.082 135.497 147.595C135.924 146.751 136.355 145.9 136.83 145.082C136.994 144.801 137.17 144.521 137.37 144.265C137.408 144.215 137.457 144.173 137.503 144.125C137.555 144.096 137.61 144.064 137.64 144.047C137.914 143.89 138.01 143.525 138.203 143.293C138.51 142.92 138.872 142.876 139.335 142.87C140.322 142.86 141.313 142.899 142.298 142.926C143.746 142.967 145.193 143.024 146.64 143.1C147.078 143.124 147.514 143.148 147.951 143.175C150.056 143.3 152.158 143.464 154.256 143.665C156.111 143.843 157.967 144.132 159.825 144.271C157.31 150.248 154.521 156.116 151.364 161.781C151.332 161.838 151.308 161.895 151.293 161.953ZM137.339 177.351C136.934 177.537 136.54 177.768 136.173 178.032C136.234 177.622 136.249 177.189 136.232 176.754C136.535 177.079 136.922 177.265 137.339 177.351ZM154.655 167.069C154.626 167.073 154.599 167.088 154.586 167.116C154.024 168.275 154.259 169.568 155.175 170.476C155.655 170.95 156.702 171.484 156.668 172.262C156.639 172.891 155.955 173.418 155.662 173.937C155.39 174.421 155.289 174.952 155.507 175.476C155.786 176.147 156.565 176.414 156.832 177.074C157.17 177.911 156.62 178.92 156.235 179.649C155.877 180.323 155.414 180.998 155.106 181.711C153.046 182.779 151.202 184.415 149.617 186.077C147.881 187.895 146.392 190.034 143.635 189.98C143.36 189.974 143.15 190.12 143.025 190.321C142.258 190.357 141.489 190.372 140.721 190.375C139.373 190.382 138.024 190.368 136.677 190.326C136.582 190 136.651 189.557 136.646 189.281C136.629 188.394 136.621 187.508 136.584 186.62C136.574 186.373 136.564 186.124 136.553 185.878C137.038 186.755 137.985 187.154 139.063 187.093C140.797 186.992 142.542 186.708 144.259 186.452C145.163 186.319 146.066 186.167 146.966 186.004C147.707 185.873 148.751 185.907 149.268 185.313C149.39 185.174 149.397 184.921 149.206 184.828C148.694 184.576 148.371 184.716 147.808 184.824C147.122 184.958 146.434 185.085 145.744 185.203C144.421 185.433 143.094 185.646 141.764 185.834C141.007 185.94 140.248 186.045 139.489 186.128C138.827 186.199 138.08 186.295 137.546 185.797C136.469 184.789 137.072 183.1 137.753 182.082C137.767 182.062 137.767 182.043 137.762 182.026C138.404 181.875 139.045 181.7 139.684 181.576C140.912 181.34 142.149 181.14 143.388 180.963C145.934 180.599 148.496 180.359 151.055 180.117C151.688 180.056 151.695 179.059 151.055 179.118C147.379 179.454 143.684 179.774 140.057 180.482C139.148 180.658 138.245 180.858 137.348 181.082C136.924 181.187 136.469 181.352 136.024 181.357C135.997 181.357 135.97 181.357 135.943 181.355C135.073 181.328 134.946 180.582 135.424 179.962C135.484 179.885 135.544 179.809 135.607 179.737C136.452 178.729 137.505 178.056 138.59 177.359C139.805 177.194 141.017 176.825 142.207 176.555C145.144 175.885 148.082 175.215 151.021 174.548C151.597 174.416 151.352 173.53 150.776 173.66C148.545 174.166 146.314 174.671 144.083 175.177L140.818 175.917C140.165 176.064 139.35 176.36 138.583 176.467C138.205 176.519 137.838 176.526 137.507 176.448C136.437 176.195 136.383 174.857 136.844 174.062C137.361 173.17 138.338 172.612 139.205 172.106C140.708 171.229 142.307 170.598 143.868 169.871C144.146 169.81 144.423 169.749 144.7 169.688C146.312 169.333 148.155 169.159 149.672 168.508C150.127 168.315 149.878 167.598 149.429 167.608C148.251 167.634 147.019 168.053 145.868 168.302C144.622 168.572 143.375 168.841 142.129 169.11C142.004 169.137 141.264 169.374 141.152 169.321C141.081 169.287 141.056 169.041 141.032 168.878C140.956 168.344 140.9 167.783 140.983 167.247C141.166 166.044 142.168 165.48 143.182 165.018C145.44 163.992 147.916 163.35 150.38 163.092C150.948 163.033 151.516 162.996 152.087 162.977C152.758 162.957 153.311 162.839 153.651 163.5C154.185 164.541 154.479 165.881 154.655 167.069ZM151.519 204.832C151.027 203.13 151.161 201.312 150.824 199.576C150.65 198.68 150.412 197.792 150.153 196.917C149.944 196.211 149.595 195.459 149.555 194.722C149.553 194.673 149.611 194.645 149.651 194.667C150.345 195.065 150.878 195.925 151.274 196.599C151.748 197.407 152.109 198.252 152.401 199.141C152.983 200.912 153.461 203.048 152.71 204.832C152.487 205.364 151.703 205.47 151.519 204.832ZM136.313 182.285C136.729 182.244 137.145 182.165 137.561 182.072C137.096 182.525 136.667 183.071 136.428 183.676C136.391 183.211 136.344 182.748 136.281 182.287C136.291 182.287 136.303 182.287 136.313 182.285ZM132.318 217.719C131.584 217.207 131.05 216.492 130.428 215.86C129.817 215.239 130.773 214.283 131.384 214.904C131.915 215.442 132.376 216.115 133 216.551C133.3 216.76 133.439 217.139 133.243 217.476C133.069 217.774 132.617 217.928 132.318 217.719ZM128.229 198.047C129.567 197.468 130.883 196.838 132.284 196.421C133.121 196.171 133.476 197.477 132.644 197.725C131.354 198.109 130.144 198.682 128.911 199.215C128.12 199.557 127.432 198.391 128.229 198.047ZM114.094 197.642C113.767 196.834 115.075 196.486 115.398 197.282C115.769 198.199 116.195 199.092 116.566 200.009C116.893 200.817 115.585 201.165 115.262 200.369C114.891 199.452 114.465 198.559 114.094 197.642ZM100.143 213.775C99.9248 214.066 99.5612 214.224 99.2178 214.018C98.9301 213.846 98.7545 213.387 98.9752 213.093C99.6197 212.234 100.273 211.385 101.028 210.618C101.64 209.997 102.596 210.955 101.984 211.575C101.309 212.259 100.718 213.008 100.143 213.775ZM98.1479 123.251C98.7685 123.675 99.3123 124.191 99.8425 124.721C100.459 125.337 99.5026 126.293 98.8862 125.677C98.4395 125.23 97.9889 124.777 97.4654 124.419C97.163 124.213 97.0273 123.828 97.2229 123.494C97.3981 123.194 97.8462 123.045 98.1479 123.251ZM118.445 145.018C118.094 145.721 117.778 146.41 117.758 147.209C117.737 148.079 116.385 148.08 116.406 147.209C116.432 146.163 116.818 145.257 117.277 144.335C117.666 143.555 118.832 144.241 118.445 145.018ZM125.892 127.537C126.619 127.052 127.295 128.224 126.575 128.705C125.991 129.094 125.406 129.484 124.822 129.873C124.096 130.358 123.419 129.186 124.14 128.705C124.724 128.316 125.308 127.926 125.892 127.537ZM93.591 158.102C93.467 158.961 92.1642 158.593 92.2871 157.742C92.4772 156.426 92.7093 155.128 93.0661 153.846C93.2996 153.008 94.6036 153.366 94.3699 154.206C94.0131 155.488 93.781 156.786 93.591 158.102ZM88.8504 173.596C87.9802 173.578 87.98 172.225 88.8504 172.244C89.638 172.26 90.4123 172.468 91.172 172.657C92.0171 172.868 91.6567 174.173 90.8125 173.962C90.1702 173.801 89.5163 173.61 88.8504 173.596ZM87.1004 204.808C86.8014 204.954 86.4947 205.085 86.1925 205.223C85.5872 205.5 84.9823 205.777 84.3776 206.055C83.1178 206.634 81.8586 207.214 80.6006 207.797C78.0823 208.963 75.5446 210.088 73.0202 211.241C70.4459 212.418 67.8784 213.61 65.3142 214.808C64.106 215.372 62.8888 215.916 61.6739 216.465C60.6352 216.935 59.3512 217.756 58.2108 217.833C58.1522 217.837 58.1326 217.763 58.166 217.725C58.5969 217.235 59.2841 216.95 59.8503 216.631C60.4286 216.306 61.0178 216 61.6043 215.689C62.8269 215.041 64.0511 214.398 65.2856 213.773C67.7549 212.523 70.2289 211.282 72.7035 210.042C75.2272 208.778 77.7477 207.505 80.2935 206.286C81.4922 205.712 82.692 205.139 83.8925 204.569C84.5429 204.26 85.1936 203.951 85.8443 203.643C86.1254 203.51 86.4036 203.367 86.6909 203.247C87.0727 203.089 87.3629 203.122 87.7567 203.024C88.399 202.866 88.677 203.683 88.184 204.038C87.778 204.331 87.5644 204.582 87.1004 204.808ZM78.0737 218.678C77.935 218.341 78.2255 217.931 78.546 217.846C78.9298 217.745 79.2376 217.978 79.3777 218.319C79.7483 219.221 80.2763 220.048 80.9559 220.747C81.5634 221.372 80.6078 222.329 79.9998 221.704C79.1482 220.827 78.5363 219.804 78.0737 218.678ZM71.433 196.966C70.8166 196.35 71.7729 195.394 72.3891 196.01L74.1415 197.763C74.7579 198.38 73.8014 199.336 73.1854 198.719L71.433 196.966ZM53.455 194.108C52.1951 194.478 50.7257 194.818 49.8668 195.893C49.8249 195.946 49.7544 195.878 49.7796 195.826C50.8792 193.545 54.0327 192.745 56.216 191.946C57.7603 191.381 59.3448 190.913 60.9426 190.494C60.7829 188.67 61.2234 186.716 61.3765 184.901C61.5399 182.964 61.6729 181.022 61.7412 179.078C61.811 177.096 61.8279 175.1 61.7627 173.117C61.6978 171.141 61.4414 169.19 61.3292 167.221C61.3183 167.03 61.5834 167.021 61.6405 167.179C62.304 169.006 62.5875 171.03 62.8035 172.957C63.0259 174.941 63.0998 176.92 63.0714 178.917C63.042 180.969 62.9226 183.017 62.7589 185.063C62.6813 186.033 62.5912 187.002 62.5062 187.971C62.4413 188.71 62.4112 189.444 62.2604 190.16C63.2241 189.923 64.1901 189.7 65.1529 189.482C68.2232 188.789 71.3064 188.146 74.3639 187.396C75.8647 187.028 77.3441 186.588 78.8382 186.197C80.245 185.828 81.73 185.381 83.1744 185.217C83.6899 185.158 83.7555 185.864 83.4142 186.103C82.2403 186.928 80.6811 187.502 79.3251 187.963C77.9642 188.427 76.5496 188.76 75.1547 189.103C72.2458 189.819 69.3093 190.404 66.3773 191.013C63.4493 191.622 60.5157 192.226 57.6207 192.978C56.2265 193.34 54.837 193.703 53.455 194.108ZM46.5513 157.921C45.7986 158.364 45.1189 157.194 45.869 156.753C46.8505 156.177 47.8965 155.744 48.951 155.322C49.7602 154.998 50.1084 156.307 49.3105 156.626C48.3628 157.006 47.4333 157.404 46.5513 157.921ZM43.8253 208.175C43.0705 208.613 42.3904 207.443 43.143 207.007C44.2 206.394 45.3576 205.985 46.453 205.448C47.2323 205.067 47.9168 206.234 47.1353 206.617C46.0401 207.153 44.8823 207.562 43.8253 208.175ZM42.5993 179.648C43.3292 180.342 44.3032 180.669 45.2216 181.033C46.0224 181.35 45.6712 182.658 44.8621 182.337C43.7179 181.883 42.5524 181.469 41.6432 180.605C41.0108 180.004 41.9686 179.049 42.5993 179.648ZM50.6733 140.908C51.4757 141.223 51.1243 142.531 50.3138 142.213C49.415 141.86 48.4868 141.591 47.588 141.239C46.7859 140.924 47.1371 139.616 47.9475 139.934C48.8463 140.287 49.7745 140.555 50.6733 140.908ZM64.9166 125.52C65.7691 125.377 66.1321 126.68 65.2761 126.825C64.214 127.004 63.1681 127.214 62.1608 127.604C61.3473 127.919 60.9983 126.61 61.8013 126.3C62.8088 125.91 63.8547 125.7 64.9166 125.52ZM69.6228 162.986C68.8411 162.601 69.527 161.435 70.3051 161.818C71.1252 162.221 71.9748 162.533 72.8696 162.723C73.7216 162.905 73.3587 164.209 72.5101 164.028C71.5031 163.813 70.545 163.439 69.6228 162.986ZM74.0679 141.882C74.9096 141.651 75.2655 142.956 74.4274 143.186C72.9527 143.591 71.4345 143.801 69.949 144.16C69.1024 144.365 68.7443 143.061 69.5895 142.856C71.075 142.496 72.5934 142.286 74.0679 141.882ZM92.924 135.259C93.7799 135.418 93.4152 136.721 92.5647 136.564C91.6593 136.396 90.7417 136.394 89.8238 136.393C88.9523 136.393 88.9539 135.04 89.8238 135.04C90.8666 135.041 91.8961 135.069 92.924 135.259ZM154.421 142.326C152.212 142.115 150 141.946 147.784 141.819C147.681 141.814 147.58 141.807 147.477 141.802C147.465 141.778 147.45 141.756 147.434 141.732C146.711 140.671 146.179 139.609 145.717 138.408C145.276 137.265 144.849 136.087 144.169 135.056C143.394 133.881 142.348 132.961 141.201 132.164C140.506 132.632 139.86 133.18 139.27 133.76C138.648 134.371 137.692 133.415 138.314 132.804C138.839 132.288 139.399 131.811 139.991 131.381C139.307 130.965 138.61 130.575 137.929 130.186C135.379 128.73 132.767 127.384 130.102 126.154C128.863 125.58 127.609 125.071 126.347 124.556C125.667 124.278 124.996 123.922 124.317 123.6C124.366 123.12 124.222 122.582 123.854 122.266C123.581 122.035 123.37 121.948 123.046 121.785C122.973 121.759 122.929 121.744 122.909 121.735C122.924 121.739 122.968 121.752 123.04 121.776C123.213 121.856 123.227 121.832 123.081 121.707C123.073 121.433 122.533 120.855 122.41 120.572C121.981 119.603 121.847 118.579 121.214 117.696C120.34 116.48 118.873 116.021 117.505 116.433C117.363 114.97 117.326 113.444 116.775 112.138C116.76 112.103 116.711 112.088 116.689 112.127C116.114 113.106 116.065 114.196 116.021 115.326C115.979 116.386 116.02 117.469 116.158 118.523C116.071 118.59 115.981 118.655 115.888 118.717C115.452 119.005 114.982 119.226 114.489 119.39C113.549 119.701 112.563 119.837 111.578 119.884C109.034 120.006 106.413 119.749 103.912 119.312C101.381 118.871 97.5026 118.208 95.2513 116.942C93.7655 116.107 92.395 115.087 91.0055 114.1C91.5094 112.477 91.6378 110.732 91.1308 109.36C91.0699 109.196 90.813 109.166 90.764 109.36C90.4463 110.669 90.3533 111.984 89.9308 113.278C89.924 113.297 89.9173 113.317 89.9105 113.335C89.7787 113.246 89.6468 113.158 89.515 113.07C89.2108 112.869 88.7967 113.019 88.6142 113.307C85.6951 117.907 81.0728 118.171 76.2187 118.993C70.9064 119.892 65.5674 120.863 60.4598 122.623C55.5753 124.307 50.9071 126.759 47.2091 130.421C46.372 131.25 45.5891 132.134 44.8502 133.056C45.5651 133.146 46.2741 133.287 46.974 133.507C47.8027 133.767 47.4466 135.072 46.6145 134.811C45.715 134.528 44.8055 134.388 43.8868 134.319C41.374 137.757 39.4148 141.657 37.7206 145.494C34.471 152.853 32.3558 160.69 31.3824 168.668C31.9169 168.348 32.4609 168.042 33.0185 167.758C33.7933 167.364 34.4766 168.532 33.701 168.926C32.8397 169.365 32.0031 169.848 31.1925 170.372C30.8384 173.864 30.7011 177.379 30.7843 180.888C30.982 189.254 32.1111 197.865 34.6649 205.848C35.9173 209.765 37.577 213.651 40.0497 216.961C41.1685 218.461 42.4395 219.814 43.937 220.941C44.662 221.489 45.4294 221.978 46.2389 222.39C47.2818 222.925 48.6406 223.101 49.5398 223.856C49.8356 224.105 50.0637 224.433 50.2361 224.803C50.1364 225.507 50.1246 226.212 50.3173 226.915C50.3781 227.135 50.5437 227.314 50.7482 227.4C50.7516 227.461 50.7516 227.52 50.7516 227.578C50.7516 227.605 50.7922 227.612 50.7973 227.585C50.8057 227.532 50.8142 227.48 50.8226 227.426C50.8885 227.448 50.9578 227.458 51.0288 227.458C53.5961 227.468 56.1667 227.405 58.7374 227.318C58.5386 226.709 58.3233 226.105 58.1166 225.495C57.8358 224.668 59.1422 224.316 59.4204 225.136C59.6622 225.848 59.9151 226.554 60.14 227.269C62.8944 227.166 65.648 227.043 68.3967 226.952C74.2429 226.758 80.0874 226.694 85.9351 226.57C95.0164 226.378 104.164 225.983 113.259 226.369C113.574 225.701 113.926 225.049 114.26 224.39C114.653 223.613 115.82 224.298 115.427 225.073C115.195 225.53 114.955 225.982 114.726 226.439C116.568 226.535 118.409 226.661 120.245 226.834C123.379 227.128 126.482 227.651 129.612 227.975C132.794 228.307 135.908 228.248 139.065 227.722C139.633 227.627 139.967 227.284 140.106 226.858C140.111 226.856 140.114 226.853 140.118 226.847C140.28 226.658 140.432 226.501 140.589 226.364C140.777 226.242 140.98 226.139 141.218 226.048C141.663 225.879 142.126 225.775 142.596 225.706C143.113 225.629 143.637 225.622 144.154 225.558C144.59 225.502 145.016 225.419 145.442 225.317C146.207 225.135 146.934 224.896 147.658 224.58C148.288 224.305 148.857 223.909 149.395 223.478C150.507 222.664 151.47 221.626 152.312 220.548C152.802 219.917 153.264 219.263 153.683 218.581C154.413 217.401 155.035 216.175 155.664 214.939C155.892 214.573 156.1 214.198 156.29 213.815C155.062 213.453 153.821 213.158 152.519 213.137C151.648 213.123 151.648 211.77 152.519 211.784C154.012 211.808 155.426 212.157 156.83 212.573C156.898 212.391 156.964 212.208 157.024 212.022C157.192 211.635 157.33 211.238 157.445 210.836C157.513 210.653 157.58 210.47 157.648 210.288C157.8 209.655 157.952 209.021 158.106 208.387C158.412 207.373 158.653 206.343 158.831 205.3C158.98 204.613 159.095 203.922 159.172 203.222C159.409 201.526 159.602 199.833 159.615 198.119C159.595 197.062 159.527 196.007 159.412 194.957C159.363 194.244 159.281 193.534 159.169 192.828C159.024 191.78 158.88 190.742 158.638 189.707C158.458 189.007 158.277 188.307 158.096 187.607C157.645 186.148 157.112 184.718 156.499 183.319C156.465 183.232 156.294 183.039 156.191 183.037C156.113 183.035 156.005 183.106 156.04 183.201C156.044 183.21 156.047 183.22 156.051 183.228C156.015 183.149 155.981 183.067 155.946 182.988C155.916 182.914 155.797 182.765 155.706 182.767C155.701 182.767 155.696 182.767 155.689 182.768C155.713 182.751 155.735 182.729 155.757 182.704C156.363 181.986 156.757 181.04 157.192 180.208C157.552 179.522 157.891 178.798 157.989 178.022C158.075 177.341 157.959 176.67 157.531 176.118C157.045 175.491 156.129 175.197 156.637 174.291C157.215 173.259 158.065 172.365 157.219 171.193C156.788 170.596 156.105 170.268 155.598 169.749C155.015 169.149 154.737 168.346 154.753 167.526C154.788 167.546 154.836 167.536 154.852 167.485C155.343 166.004 154.988 164.378 154.486 162.935C154.212 162.152 153.632 161.938 152.958 161.899C155.878 156.192 158.611 150.394 161.047 144.463C161.128 144.269 161.207 144.074 161.287 143.88C161.405 143.589 161.155 143.202 160.866 143.138C158.76 142.676 156.566 142.529 154.421 142.326Z" fill="black"/>
<path fill-rule="evenodd" clip-rule="evenodd" d="M131.809 54.8603C131.433 53.9127 130.769 52.7215 129.66 52.674C128.802 50.049 126.668 47.3757 123.699 47.4467C114.987 38.5338 104.019 38.954 92.5511 40.8407C86.5011 41.9632 80.3579 44.1613 75.8456 48.4989C70.4412 53.6054 68.3368 62.5158 72.5689 68.9731C68.9113 70.934 68.8403 75.587 70.4045 78.9448C68.5242 80.2455 68.41 83.4026 70.5272 84.3948C70.4146 84.856 70.4943 85.3328 70.7089 85.7427C69.6592 86.6168 68.2928 87.2625 67.1633 87.8176C66.6641 88.063 66.3761 88.4637 66.2564 88.9153C62.5475 91.3494 53.2994 97.298 53.4096 102.032C53.3552 104.502 55.1866 106.128 57.4122 106.775C56.088 109.423 55.0829 112.517 56.3505 115.373C56.7008 116.237 59.326 118.773 59.4582 118.82C59.6892 119.018 63.4553 117.289 65.2857 116.406C65.6407 118.716 68.1095 119.926 70.2375 119.135C72.2554 118.526 73.4958 116.817 74.7684 115.263C76.4577 118.949 81.4279 118.992 84.6402 117.402C87.5251 116.069 89.7181 113.626 90.9397 110.681C97.4268 113.858 105.017 114.784 112.064 113.515C112.517 114.316 113.518 114.854 114.41 114.544C118.158 113.417 122.301 113.353 125.478 110.771C132.1 106.016 132.657 97.2506 132.196 89.7785C131.786 82.3283 132.145 74.816 130.791 67.4463C131.378 65.2765 132.356 63.3583 133.26 61.3199C134.242 59.1824 134.222 56.0049 131.809 54.8603Z" fill="white"/>
<path fill-rule="evenodd" clip-rule="evenodd" d="M70.244 86.4838C70.6343 86.3858 70.8439 86.9104 70.5126 87.1213C68.4094 88.4595 66.2367 89.6548 64.205 91.1109C62.2726 92.4951 60.4877 94.0719 58.8233 95.7672L58.6389 95.956C57.1341 97.5046 55.4676 99.4748 55.4507 101.759C55.4377 103.535 56.8062 105.473 58.7156 105.24C59.4349 105.152 60.0961 106.065 59.8451 106.723L59.581 107.417C58.5187 110.224 57.4378 113.405 58.277 116.359L58.3078 116.465C58.5107 117.141 58.7247 117.739 59.5094 117.725C60.2377 117.712 60.9956 117.467 61.6774 117.232C63.0922 116.745 64.3743 115.934 65.4626 114.913C66.4252 114.01 67.6551 114.927 67.5255 116.075L67.5209 116.111C67.3436 117.399 69.3942 117.997 70.3265 117.813C72.1672 117.449 73.4796 115.604 74.525 114.197C75.0275 113.521 76.2479 113.255 76.6894 114.197C77.5642 116.063 79.3674 117.457 81.4769 117.516C82.5726 117.546 83.6239 117.234 84.5519 116.656C84.9307 116.419 85.2695 116.138 85.5802 115.82L85.6573 115.739C86.117 115.252 86.4342 114.993 87.0214 114.674C87.5999 114.361 88.3483 114.75 88.3448 115.434C88.34 116.32 88.0804 116.909 87.4694 117.552C86.9639 118.085 86.3632 118.552 85.7318 118.926C84.4629 119.676 82.9542 120.098 81.4769 120.049C79.1482 119.972 76.9255 118.811 75.4847 117.005C74.0136 118.764 72.1887 120.381 69.8173 120.338C68.042 120.305 66.3875 119.381 65.5948 117.948C64.4758 118.72 63.2475 119.324 61.9336 119.718L61.8165 119.752C59.9567 120.294 57.8164 120.509 56.6193 118.662C55.4954 116.928 55.4115 114.526 55.6691 112.544C55.8991 110.774 56.4437 109.092 57.0691 107.434C55.289 106.902 53.9073 105.229 53.4327 103.426C52.7147 100.7 54.1076 98.0553 55.8295 96.0294C57.7 93.8287 60.0542 91.9673 62.426 90.338C64.7915 88.7133 67.4414 87.1865 70.244 86.4838ZM131.067 65.1573C131.072 65.0816 131.196 65.055 131.207 65.1382C132.024 71.0692 132.497 76.9882 132.889 82.9599C133.087 85.9853 133.313 89.0076 133.56 92.0292C133.796 94.9268 134.191 97.9014 134.102 100.811C133.962 105.366 131.751 109.071 128.125 111.736C124.65 114.291 120.34 115.554 116.111 116.088C113.655 116.398 111.165 116.412 108.707 116.121C107.43 115.97 106.154 115.769 104.904 115.467L104.363 115.331C103.378 115.08 102.278 114.738 102.138 113.571C102.069 113.006 102.37 112.589 102.854 112.305C103.486 111.935 104.211 112.153 104.862 112.321C105.96 112.605 107.069 112.849 108.19 113.018C110.599 113.38 113.076 113.402 115.497 113.151C119.57 112.729 123.866 111.407 127.006 108.678C128.371 107.492 129.558 106.047 130.182 104.33C130.984 102.123 130.866 99.7148 130.839 97.4035C130.776 92.0292 130.831 86.655 130.757 81.2803C130.682 75.8892 130.747 70.5405 131.067 65.1573ZM90.109 40.0414C94.8681 38.8135 99.698 38.4945 104.587 38.8641C109.197 39.2124 114.449 40.2443 118.214 43.0809C118.397 43.2186 118.287 43.4791 118.061 43.4431C115.544 43.0417 113.09 42.3116 110.584 41.8286C108.173 41.3639 105.718 41.0151 103.264 40.9343C94.9614 40.6606 85.7233 42.5426 79.0286 47.7207C75.8895 50.1485 73.4939 53.4131 72.5405 57.2974C71.5628 61.2814 72.0918 65.5899 74.0552 69.1939C74.338 69.7128 74.2214 70.5336 73.6315 70.8099C71.8416 71.6482 70.5668 73.5054 70.5945 75.5095C70.6078 76.4816 70.9428 77.4137 71.4811 78.2172C72.0504 79.0668 72.9169 79.6613 73.5536 80.4548C73.8042 80.7672 73.8139 81.1975 73.6153 81.4853C73.9876 81.6485 74.3892 81.7361 74.7556 81.9288C75.0663 82.0923 75.075 82.6028 74.7556 82.7637C73.9477 83.1707 73.0743 82.7387 72.529 82.0825C72.4317 81.9653 72.3475 81.8434 72.2708 81.719C71.6177 81.5805 71.0326 81.2527 70.5216 80.8043C69.5481 81.3874 69.4148 82.6856 70.251 83.6776C70.6781 84.184 71.2849 84.4966 71.8982 84.7213L71.9718 84.7479C72.5686 84.9599 73.1152 85.0783 73.5029 85.5559C73.7586 85.0226 74.0522 84.52 74.3794 84.0619C75.5691 82.397 77.3978 80.9199 79.5678 81.1074C81.2676 81.254 82.7402 82.4714 83.0885 84.151C83.1142 84.2753 82.9269 84.3724 82.8712 84.2427C82.0557 82.3404 79.4753 82.2705 77.9383 83.2618C76.1307 84.4278 75.1428 86.625 74.7465 88.6714C74.3564 90.6872 74.5819 93.1388 76.09 94.6721C76.707 95.2995 77.5465 95.7334 78.4227 95.8477C78.851 95.9038 79.2288 95.8486 79.6384 95.7661L79.9098 95.7094C80.0981 95.6704 80.2853 95.6389 80.4828 95.6564L80.7771 95.696L80.9443 95.7742C81.0893 95.8394 81.0762 95.8216 80.905 95.7205C81.405 95.6796 81.6634 96.0492 81.6908 96.4545C81.7066 96.4646 81.722 96.4756 81.7349 96.4914C83.6322 98.8142 85.041 101.484 87.0544 103.731L87.6438 104.389C89.1591 106.075 90.8889 107.903 92.9474 108.778L93.1923 108.88C93.7912 109.133 94.3926 109.479 94.4689 110.201C94.5374 110.848 94.0276 111.335 93.4399 111.486C92.1017 111.829 90.5762 110.639 89.5961 109.859C87.4885 108.181 85.7172 106.041 84.2544 103.791L84.1098 103.566C82.9073 101.688 81.7771 99.545 81.4259 97.3153L81.3626 97.418C81.3578 97.4253 81.3541 97.4309 81.3517 97.4341C81.2801 97.5315 81.2011 97.6137 81.1095 97.6925C80.8634 97.905 80.5633 98.0291 80.2514 98.1133C79.6661 98.2714 79.0244 98.3025 78.4227 98.241C77.2006 98.116 76.0582 97.6507 75.0921 96.8929C72.1506 94.5851 71.8033 90.2908 72.993 86.8069C72.0167 87.0401 70.9048 86.3829 70.1425 85.8197C69.2684 85.1735 68.5476 84.2406 68.3753 83.1433C68.2043 82.0544 68.8983 80.6125 69.9276 80.1924C68.8596 78.9095 68.2377 77.0891 68.1735 75.6314C68.062 73.0959 69.4085 70.6993 71.4759 69.3159C69.5317 65.1479 69.1572 60.3124 70.4662 55.8869C73.0638 47.105 81.7653 42.1941 90.109 40.0414ZM82.7031 106.764L82.7274 106.687C82.9345 106.008 83.2019 104.657 84.2162 105.171C85.1851 105.663 84.5665 107.117 84.2276 107.824C83.8222 108.671 83.122 109.35 82.1816 109.532C81.4166 109.68 80.5766 109.49 80.0415 108.899C79.8855 108.727 79.7974 108.538 79.705 108.329C79.669 108.248 79.6528 108.192 79.646 108.156C79.6372 108.196 79.6122 108.255 79.5483 108.324C79.1214 108.791 78.7181 109.334 78.4083 109.886C78.335 110.017 78.1038 109.925 78.1622 109.783C78.5231 108.9 78.4624 107.534 79.2667 106.896C79.9757 106.333 80.6419 106.776 81.0168 107.431L81.036 107.466C81.5841 108.461 82.4576 107.516 82.7031 106.764ZM74.9907 103.574L75.0648 103.471C75.8228 102.435 77.1012 101.188 78.3805 102.152C78.7873 102.459 78.8023 102.97 78.3805 103.274L78.2208 103.388C77.662 103.785 77.1055 104.159 76.6951 104.727C76.249 105.345 75.8485 106 75.2488 106.485C74.1882 107.342 72.4743 107.511 71.554 106.355L71.4635 106.241C71.3865 106.141 71.2981 106.022 71.2264 105.903L71.1706 105.98C71.1651 105.988 71.16 105.995 71.1553 106.002L71.1424 106.022C70.7642 106.627 70.2864 107.125 69.6913 107.517C68.5602 108.264 67.2857 108.368 66.0061 107.973C65.8809 107.934 65.9145 107.766 66.0357 107.755C67.5519 107.613 69.0292 106.535 69.646 105.148L69.7156 104.992C69.9652 104.44 70.2448 103.916 70.8614 103.699C71.4615 103.488 72.0916 103.711 72.5032 104.165C72.8473 104.544 72.9358 105.299 73.5566 105.133C74.2364 104.95 74.6191 104.099 74.9907 103.574ZM70.6483 94.3554C70.9841 94.1001 71.5101 94.374 71.6026 94.744C72.0216 96.4189 70.2814 98.3925 68.6092 98.4445C68.1787 98.4576 67.7646 98.3535 67.3833 98.1541C67.0875 97.9996 66.7375 97.6046 66.4128 97.5392C65.9935 97.4548 65.622 98.0135 65.3267 98.3002C64.9605 98.6561 64.5981 98.9865 64.1878 99.2899C64.0238 99.4111 63.7694 99.2075 63.8387 99.0214L63.9775 98.6512C64.48 97.3338 65.3454 95.4106 66.965 95.9573C67.7585 96.2251 68.3558 97.1283 69.1914 96.4131C69.8605 95.8405 69.9229 94.9068 70.6483 94.3554ZM77.794 87.6126C79.3038 85.8789 82.853 86.7946 83.526 88.9039C83.6747 89.3697 83.5196 89.9752 83.1558 90.3049C82.6767 90.7393 81.9932 90.8708 81.4114 90.5301C80.9108 90.2371 80.7053 89.7576 80.3374 89.3462C79.7977 88.7434 79.0637 88.4088 78.3073 88.1691C78.1182 88.2685 77.9423 88.3992 77.7844 88.5568C77.7036 88.6374 77.551 88.5268 77.6226 88.4318C77.72 88.3026 77.839 88.1811 77.9744 88.069L77.9093 88.0499C77.7102 87.9944 77.6671 87.7587 77.794 87.6126ZM87.6061 68.4703C87.9444 68.4708 88.3386 68.7887 88.2953 69.1598L88.2822 69.2629C88.1849 69.9694 87.9579 70.3695 87.251 70.6978C86.6511 70.9759 86.0211 71.1296 85.3636 71.1905C85.1148 71.2135 84.8515 71.2148 84.5846 71.195L84.5284 71.5194C84.4167 72.168 84.3135 72.8171 84.2941 73.4783C84.2579 74.704 84.7151 75.714 85.2054 76.8083C86.1466 78.9103 86.2524 81.0086 85.2277 83.1076C85.0778 83.4145 84.6534 83.6647 84.311 83.6336C83.867 83.5933 83.6525 83.4648 83.3942 83.1076C83.1773 82.8076 83.2269 82.3835 83.3771 82.0698L83.3942 82.0354C83.9106 81.0347 84.0733 79.904 83.8097 78.804C83.5619 77.7701 83.0006 76.8408 82.75 75.8101C82.3416 74.1311 82.7765 72.4657 83.6263 71.0253C82.9849 70.8405 82.3917 70.5111 81.9958 70.0088L81.9975 70.0081C81.8464 69.8466 81.9289 69.5093 82.1941 69.5296L82.494 69.5538C83.3518 69.6256 84.1415 69.7002 85.009 69.461C85.4537 69.3382 85.8376 69.1335 86.2193 68.8857L86.3011 68.832C86.7788 68.5144 87.0436 68.4696 87.6061 68.4703ZM89.6596 56.0611C91.8101 55.9388 93.6461 57.3586 94.5387 59.2486C95.5082 61.3004 95.1014 63.6548 94.2457 65.6736L94.0026 66.2386C93.577 67.2175 93.0183 68.3817 92.1468 68.9069C91.1679 69.497 90.3216 68.8128 90.6103 67.7251C90.7823 67.0773 91.248 66.5777 91.6247 66.0431C91.9763 65.5438 92.3043 65.027 92.592 64.488C93.1555 63.4309 93.5762 62.2531 93.5716 61.042C93.5636 58.8314 92.1037 56.2981 89.6596 56.3306C89.485 56.3326 89.4879 56.0707 89.6596 56.0611ZM100.536 52.4942C100.402 52.3924 100.522 52.166 100.672 52.2615C103.166 53.8482 105.028 56.8286 105.403 59.7565C105.611 61.381 105.452 63.1172 104.76 64.6164C104.363 65.4767 103.683 66.2979 102.731 66.5338C101.856 66.7503 100.954 66.2504 100.682 65.3958C100.577 65.0643 100.758 64.7175 101.031 64.5364C101.919 63.9495 102.633 63.209 103.051 62.2127C103.486 61.177 103.659 60.0778 103.665 58.9605C103.678 56.344 102.634 54.0889 100.536 52.4942ZM130.999 53.6282C130.884 53.5002 131.029 53.3115 131.182 53.3916C132.985 54.3402 134.13 56.1571 134.458 58.147C134.78 60.0952 134.347 62.7474 132.84 64.1563C131.989 64.9517 130.466 63.8939 131.173 62.8694C131.671 62.147 132.21 61.552 132.496 60.6983C132.75 59.9366 132.84 59.1684 132.826 58.368C132.796 56.6218 132.173 54.9301 130.999 53.6282ZM108.957 51.1887C112.037 51.0419 113.904 54.5597 114.331 57.1816C114.595 58.8015 114.397 60.47 113.503 61.8751L113.45 61.9569C112.712 63.0793 111.371 64.3716 109.926 63.8401C109.314 63.6154 109.151 62.9599 109.562 62.4626C110.191 61.7014 111.163 61.3912 111.754 60.5784C112.417 59.6669 112.635 58.5249 112.596 57.4164L112.591 57.294C112.488 55.255 111.516 51.3414 108.957 51.4107C108.813 51.4144 108.815 51.1953 108.957 51.1887ZM118.591 50.6042C121.571 50.2233 123.385 53.7297 123.945 56.1452C124.294 57.6552 124.371 59.3398 123.924 60.8385L123.89 60.9453C123.526 62.0638 122.453 63.9803 121.051 63.4087C120.667 63.2521 120.275 62.8255 120.459 62.3656C120.694 61.7777 121.033 61.6252 121.484 61.249C121.832 60.9594 122.075 60.5436 122.254 60.1341C122.73 59.0427 122.836 57.7677 122.771 56.5915L122.762 56.4523C122.594 54.1551 121.349 50.7315 118.591 50.7944C118.465 50.7973 118.474 50.6191 118.591 50.6042ZM124.046 47.3078C125.704 46.6761 127.063 48.2623 128.016 49.3943C129.21 50.8127 130.293 52.3407 130.906 54.1064C131.451 55.6797 131.547 57.429 131.056 59.0305C130.813 59.8235 130.434 60.5588 129.916 61.206L129.85 61.2877C129.312 61.9443 128.793 62.3477 127.911 62.1127C127.552 62.0168 127.4 61.6619 127.462 61.3227C127.595 60.598 127.969 60.4098 128.452 59.904C128.879 59.4578 129.195 58.9082 129.408 58.3305C129.846 57.1386 129.869 55.8474 129.575 54.6195C129.245 53.245 128.596 51.9756 127.846 50.7861L127.684 50.5314C126.889 49.2738 125.755 47.3373 124.078 47.5413C123.934 47.5589 123.932 47.3511 124.046 47.3078Z" fill="black"/>
<path fill-rule="evenodd" clip-rule="evenodd" d="M117.92 97.0408C119.926 97.0408 120.776 97.3671 122.081 98.1344C123.387 98.9017 124.782 99.8907 125.112 101.372C125.42 102.752 124.814 104.098 123.473 104.624C122.723 104.919 114.079 105.609 112.724 105.699C111.368 105.789 110.074 105.677 109.203 104.774C106.953 102.44 110.078 99.4138 112.074 98.2964C113.857 97.2981 115.914 97.0408 117.92 97.0408ZM117.455 98.615C115.946 98.615 113.474 99.7192 113.474 100.257C113.474 100.794 120.68 100.261 120.834 99.8008C120.989 99.3409 118.965 98.615 117.455 98.615ZM118.617 86.293C119.893 87.0691 121.838 88.8788 120.465 90.8028C118.849 92.4993 116.522 90.5541 115.375 89.6744C114.312 88.9927 113.117 90.7461 114.104 91.5422C122.389 97.679 125.752 86.4959 119.262 85.3805C118.548 85.2576 118.282 86.0529 118.617 86.293ZM104.204 79.2592C106.378 77.6536 109.63 78.8894 110.166 81.4014C110.538 81.5974 110.741 81.909 110.785 82.3652L110.796 82.4793C110.849 83.0212 110.366 83.5342 109.885 83.6771C109.342 83.8377 108.913 83.7547 108.409 83.5242C107.927 83.3031 107.759 82.6762 107.847 82.1993L107.854 82.1599C107.983 81.568 107.476 80.9944 106.965 80.7599C106.389 80.4953 105.743 80.661 105.242 81.0117C104.686 81.4007 104.223 82.0662 104.066 82.7294L104.051 82.7982C103.927 83.3707 103.835 84.4447 104.39 84.7735C104.488 84.8315 104.418 84.9648 104.317 84.9472C103.11 84.7407 102.392 84.0147 102.384 82.716C102.377 81.3407 103.115 80.0637 104.204 79.2592ZM124.222 78.8022C126.393 78.0319 129.108 80.1013 128.272 82.4914C127.723 84.0607 125.599 83.4316 125.797 81.8586L125.804 81.8107C125.93 80.9923 125.31 80.6063 124.55 80.8748C123.425 81.273 122.818 83.0426 123.345 84.075C123.41 84.2018 123.229 84.3092 123.153 84.1869L123.081 84.0707C122.492 83.1323 121.955 82.4396 122.148 81.2409C122.326 80.1359 123.172 79.1749 124.222 78.8022ZM119.819 73.1133C119.814 73.0076 119.925 72.9364 120.02 72.9603C120.792 73.1546 121.49 73.7159 122.193 74.0801C122.96 74.4774 123.745 74.7985 124.578 75.0339C125.39 75.2632 126.21 75.3775 127.054 75.3704C127.966 75.3628 128.86 75.02 129.755 75.0483C131.101 75.0907 131.804 77.0486 130.479 77.7216C128.549 78.7011 125.686 77.9894 123.809 77.1751C122.298 76.5196 119.918 74.9707 119.819 73.1133ZM110.015 73.561C110.719 72.654 112.144 72.5996 112.769 73.6682C113.415 74.7722 112.639 75.8792 111.541 76.1076C109.538 77.0033 107.487 77.6887 105.3 77.9729L105.004 78.0103C103.1 78.242 100.697 78.3683 98.9771 77.4899C98.8086 77.4036 98.8597 77.1468 99.0283 77.0986C99.9981 76.8212 101.084 76.8218 102.082 76.6397C103.03 76.4668 103.971 76.2754 104.895 75.9949C106.72 75.4404 108.45 74.6481 110.015 73.561Z" fill="black"/>
</svg>
