<svg width="28" height="28" viewBox="0 0 28 28" fill="none" xmlns="http://www.w3.org/2000/svg">
<path d="M25.6666 19.0574C25.6666 23.0283 22.8324 25.6666 18.7646 25.6666L9.23529 25.6666C5.17175 25.6666 2.33329 23.0204 2.33329 19.0574L2.33329 8.94356C2.33329 4.97247 5.16771 2.33322 9.23529 2.33322L18.7646 2.33322C22.8322 2.33322 25.6666 4.97247 25.6666 8.94356L25.6666 19.0574ZM23.9166 19.0574L23.9166 8.94356C23.9166 5.96797 21.8925 4.08322 18.7646 4.08322L9.23529 4.08322C6.10742 4.08322 4.08329 5.96797 4.08329 8.94356L4.08329 19.0574C4.08329 22.0254 6.11187 23.9166 9.23529 23.9166L18.7646 23.9166C21.8928 23.9166 23.9166 22.0327 23.9166 19.0574ZM19.642 13.9999C19.642 14.4429 19.3128 14.809 18.8857 14.8669L18.767 14.8749H11.3528L14.2413 17.7525C14.5526 18.0625 14.5819 18.5485 14.3285 18.8916L14.244 18.99C13.934 19.3013 13.4479 19.3305 13.1049 19.0771L13.0065 18.9926L8.61521 14.6199C8.58686 14.5912 8.56129 14.562 8.53771 14.5312L8.61521 14.6199C8.57211 14.577 8.53441 14.5307 8.50213 14.4819C8.49107 14.4645 8.48005 14.4465 8.46968 14.428C8.46121 14.4137 8.45367 14.3993 8.44656 14.3848C8.43659 14.3637 8.42676 14.3415 8.41786 14.3187C8.41146 14.3031 8.40616 14.2884 8.40128 14.2735C8.39389 14.2502 8.38694 14.2256 8.38107 14.2005C8.37754 14.1866 8.37469 14.173 8.37217 14.1593C8.36807 14.1357 8.36459 14.1111 8.36216 14.0861C8.36013 14.0686 8.35895 14.0515 8.35828 14.0343C8.35818 14.023 8.35796 14.0115 8.35796 13.9999L8.35824 13.9667C8.35891 13.9487 8.36014 13.9308 8.36192 13.9129L8.35796 13.9999C8.35796 13.9452 8.36297 13.8918 8.37256 13.8399C8.37469 13.8268 8.37754 13.8132 8.38071 13.7996C8.38694 13.7742 8.39389 13.7496 8.40186 13.7254C8.40617 13.7114 8.41146 13.6966 8.41715 13.682C8.42677 13.6583 8.43659 13.636 8.4473 13.6143C8.45367 13.6004 8.46121 13.5861 8.46918 13.5719C8.48005 13.5533 8.49107 13.5353 8.50271 13.5177C8.51102 13.5044 8.52033 13.4912 8.53005 13.4781L8.53771 13.4685C8.56129 13.4377 8.58686 13.4086 8.61424 13.3812L8.61521 13.3799L13.0065 9.00719C13.349 8.66621 13.903 8.66739 14.244 9.00982C14.554 9.32113 14.5812 9.80729 14.3263 10.1493L14.2413 10.2473L11.3505 13.1249H18.767C19.2502 13.1249 19.642 13.5166 19.642 13.9999Z" fill="#200E32"/>
</svg>
