<svg width="28" height="28" viewBox="0 0 28 28" fill="none" xmlns="http://www.w3.org/2000/svg">
<path d="M19.057 2.3335C23.0281 2.3335 25.6673 5.16792 25.6673 9.2355V18.7648C25.6673 22.8326 23.0279 25.6668 19.0558 25.6668H8.94315C4.97225 25.6668 2.33398 22.8326 2.33398 18.7648V9.2355C2.33398 5.17153 4.97931 2.3335 8.94315 2.3335H19.057ZM19.057 4.0835H8.94315C5.97438 4.0835 4.08398 6.1116 4.08398 9.2355V18.7648C4.08398 21.893 5.96787 23.9168 8.94315 23.9168H19.0558C22.0324 23.9168 23.9173 21.8929 23.9173 18.7648V9.2355C23.9173 6.10762 22.0326 4.0835 19.057 4.0835ZM11.7219 10.4881L11.82 10.5729L13.9983 12.7518L16.1761 10.5753C16.5178 10.2336 17.0718 10.2336 17.4135 10.5753C17.7242 10.8859 17.7524 11.372 17.4983 11.7146L17.4135 11.8127L15.2362 13.9897L17.4153 16.1694C17.757 16.5111 17.757 17.0651 17.4152 17.4068C17.1045 17.7174 16.6184 17.7456 16.2759 17.4914L16.1778 17.4067L13.9995 15.2263L11.8229 17.4034C11.4812 17.7451 10.9271 17.7451 10.5854 17.4034C10.2748 17.0927 10.2465 16.6066 10.5007 16.2641L10.5854 16.1659L12.7617 13.9885L10.5825 11.8102C10.2408 11.4684 10.2408 10.9144 10.5826 10.5727C10.8933 10.2621 11.3794 10.2339 11.7219 10.4881Z" fill="#18191F"/>
</svg>
