<svg width="28" height="28" viewBox="0 0 28 28" fill="none" xmlns="http://www.w3.org/2000/svg">
<path d="M19.0631 2.3324C23.0181 2.3324 25.6665 5.10906 25.6665 9.23906V18.7719C25.6665 22.8902 23.0181 25.6657 19.0631 25.6657H8.94813C4.99313 25.6657 2.33313 22.8902 2.33313 18.7719V9.23906C2.33313 5.10906 4.99313 2.3324 8.94813 2.3324H19.0631ZM17.5115 10.4652C17.1148 10.0674 16.4731 10.0674 16.0648 10.4652L13.9998 12.5407L11.9231 10.4652C11.5148 10.0674 10.8731 10.0674 10.4765 10.4652C10.0798 10.8619 10.0798 11.5152 10.4765 11.9107L12.5531 13.9886L10.4765 16.0536C10.0798 16.4619 10.0798 17.1036 10.4765 17.4991C10.6748 17.6974 10.9431 17.8036 11.1998 17.8036C11.4681 17.8036 11.7248 17.6974 11.9231 17.4991L13.9998 15.4352L16.0765 17.4991C16.2748 17.7102 16.5315 17.8036 16.7881 17.8036C17.0565 17.8036 17.3131 17.6974 17.5115 17.4991C17.9081 17.1036 17.9081 16.4619 17.5115 16.0652L15.4348 13.9886L17.5115 11.9107C17.9081 11.5152 17.9081 10.8619 17.5115 10.4652Z" fill="#200E32"/>
</svg>
