<svg width="29" height="29" viewBox="0 0 29 29" fill="none" xmlns="http://www.w3.org/2000/svg">
<path d="M10.2521 19.15C11.2853 18.163 12.6592 17.6123 14.0881 17.6123C15.517 17.6123 16.8909 18.163 17.9242 19.15" stroke="black" stroke-width="1.5" stroke-linecap="round" stroke-linejoin="round"/>
<path d="M24.589 7.11194L19.339 12.3619" stroke="black" stroke-width="1.5" stroke-linecap="round" stroke-linejoin="round"/>
<path d="M24.589 12.3619L19.339 7.11194" stroke="black" stroke-width="1.5" stroke-linecap="round" stroke-linejoin="round"/>
<path d="M2.83038 11.7253C5.82659 8.76133 9.87365 7.10298 14.0882 7.11222C14.6733 7.11211 15.2581 7.14357 15.8398 7.20646" stroke="black" stroke-width="1.5" stroke-linecap="round" stroke-linejoin="round"/>
<path d="M6.53979 15.4376C8.55354 13.4596 11.2655 12.3547 14.0882 12.3622C14.6754 12.362 15.2617 12.4091 15.8414 12.5032" stroke="black" stroke-width="1.5" stroke-linecap="round" stroke-linejoin="round"/>
<path d="M14.089 23.9557C14.6931 23.9557 15.1827 23.466 15.1827 22.8619C15.1827 22.2579 14.6931 21.7682 14.089 21.7682C13.4849 21.7682 12.9952 22.2579 12.9952 22.8619C12.9952 23.466 13.4849 23.9557 14.089 23.9557Z" fill="black"/>
</svg>
