<svg width="28" height="28" viewBox="0 0 28 28" fill="none" xmlns="http://www.w3.org/2000/svg">
<path d="M19.2795 3.5C21.0458 3.51989 22.7269 4.26759 23.9313 5.56902C25.1357 6.87044 25.7584 8.61199 25.6557 10.3355L25.6542 17.6119C25.7584 19.388 25.1357 21.1296 23.9313 22.431C22.7269 23.7324 21.0458 24.4801 19.2696 24.5H8.69886C5.00107 24.5 2.33331 21.5116 2.33331 17.6645V10.3355C2.33331 6.48843 5.00107 3.5 8.69886 3.5H19.2795ZM19.2598 5.28311H8.69886C6.02323 5.28311 4.10366 7.43348 4.10366 10.3355V17.6645C4.10366 20.5665 6.02323 22.7169 8.69886 22.7169H19.2598C20.5418 22.7025 21.7621 22.1598 22.6363 21.2151C23.5106 20.2704 23.9625 19.0063 23.8854 17.6645L23.8869 10.2829C23.9625 8.99368 23.5106 7.72955 22.6363 6.78489C21.7621 5.84024 20.5418 5.29751 19.2598 5.28311ZM21.028 10.0781C21.3057 10.4276 21.28 10.923 20.9862 11.2414L20.8901 11.3313L16.0986 15.1942C14.9349 16.1078 13.3269 16.1535 12.1135 15.3271L11.9253 15.1894L7.10179 11.3336C6.71886 11.0275 6.65479 10.4667 6.95869 10.081C7.23496 9.73036 7.72023 9.64515 8.09388 9.86254L8.20231 9.93687L13.0198 13.7878C13.5599 14.2119 14.3004 14.2445 14.8642 13.8913L15.0013 13.795L19.7838 9.93918C20.1655 9.63148 20.7225 9.69367 21.028 10.0781Z" fill="#18191F"/>
</svg>
