<svg width="48" height="48" viewBox="0 0 48 48" fill="none" xmlns="http://www.w3.org/2000/svg">
<path d="M32.6795 3.99829C39.4595 3.99829 43.9995 8.75829 43.9995 15.8383V32.1803C43.9995 39.2403 39.4595 43.9983 32.6795 43.9983H15.3395C8.55951 43.9983 3.99951 39.2403 3.99951 32.1803V15.8383C3.99951 8.75829 8.55951 3.99829 15.3395 3.99829H32.6795ZM30.0195 17.9403C29.3395 17.2583 28.2395 17.2583 27.5395 17.9403L23.9995 21.4983L20.4395 17.9403C19.7395 17.2583 18.6395 17.2583 17.9595 17.9403C17.2795 18.6203 17.2795 19.7403 17.9595 20.4183L21.5195 23.9803L17.9595 27.5203C17.2795 28.2203 17.2795 29.3203 17.9595 29.9983C18.2995 30.3383 18.7595 30.5203 19.1995 30.5203C19.6595 30.5203 20.0995 30.3383 20.4395 29.9983L23.9995 26.4603L27.5595 29.9983C27.8995 30.3603 28.3395 30.5203 28.7795 30.5203C29.2395 30.5203 29.6795 30.3383 30.0195 29.9983C30.6995 29.3203 30.6995 28.2203 30.0195 27.5403L26.4595 23.9803L30.0195 20.4183C30.6995 19.7403 30.6995 18.6203 30.0195 17.9403Z" fill="#F95A2C"/>
</svg>
