<svg width="28" height="28" viewBox="0 0 28 28" fill="none" xmlns="http://www.w3.org/2000/svg">
<path d="M23.8207 4.33553C24.1313 4.64125 24.1596 5.11964 23.9054 5.45676L23.8207 5.55334L5.41768 23.6644C5.07597 24.0007 4.52195 24.0007 4.18024 23.6644C3.8696 23.3587 3.84136 22.8803 4.09552 22.5432L4.18024 22.4466L6.48096 20.1839C4.82574 18.6971 3.43766 16.7096 2.40428 14.3405C2.30942 14.123 2.30969 13.8767 2.40501 13.6594C3.60145 10.9324 5.26229 8.708 7.25498 7.16566C9.27203 5.59463 11.6003 4.75464 14 4.75464C16.1644 4.75464 18.2654 5.43987 20.1468 6.73218L22.5832 4.33553C22.925 3.99924 23.479 3.99924 23.8207 4.33553ZM23.3884 9.87022C24.2352 10.9773 24.9751 12.2482 25.5948 13.6584C25.6905 13.8763 25.6906 14.1235 25.595 14.3415C23.1715 19.867 18.8236 23.2452 14 23.2452C12.9019 23.2452 11.8154 23.0704 10.769 22.7267C10.3106 22.5762 10.063 22.0884 10.216 21.6373C10.369 21.1862 10.8646 20.9425 11.323 21.0931C12.1913 21.3783 13.0908 21.523 14 21.523C17.8554 21.523 21.4445 18.8841 23.6515 14.3847L23.8331 14.0016L23.7714 13.8653C23.3273 12.9248 22.8252 12.0621 22.2714 11.2865L21.9902 10.906C21.6996 10.526 21.777 9.98612 22.1631 9.7001C22.5492 9.41409 23.0978 9.49025 23.3884 9.87022ZM14 6.47688C12.0053 6.47688 10.0566 7.17993 8.33891 8.51777C6.69411 9.79084 5.28435 11.6208 4.2199 13.8838L4.16546 14.0016L4.21837 14.117C5.14354 16.094 6.33567 17.7379 7.71927 18.9641L10.2132 16.5092C9.70965 15.7797 9.43366 14.9158 9.43366 14.0014C9.43366 11.5131 11.4727 9.50516 14 9.50516C14.9241 9.50516 15.8113 9.77867 16.5509 10.2718L18.8872 7.97266C17.3617 6.98892 15.6992 6.47688 14 6.47688ZM17.6593 13.7851L17.7776 13.7981C18.2532 13.8822 18.5695 14.3299 18.4839 14.798C18.1486 16.6328 16.6823 18.0786 14.8192 18.4115C14.3437 18.4964 13.8883 18.186 13.802 17.718C13.7157 17.2501 14.0311 16.8019 14.5066 16.7169C15.6511 16.5125 16.5555 15.6207 16.7615 14.4932C16.84 14.0641 17.2287 13.7668 17.6593 13.7851ZM14 11.2274C12.4394 11.2274 11.1837 12.464 11.1837 14.0014C11.1837 14.4492 11.2895 14.8744 11.4879 15.2549L15.2759 11.5272C14.8889 11.3332 14.4522 11.2274 14 11.2274Z" fill="#200E32"/>
</svg>
