<svg width="48" height="48" viewBox="0 0 48 48" fill="none" xmlns="http://www.w3.org/2000/svg">
<path d="M32.6798 3.99829C39.4598 3.99829 43.9998 8.75829 43.9998 15.8383V32.1803C43.9998 39.2403 39.4598 43.9983 32.6798 43.9983H15.3398C8.55976 43.9983 3.99976 39.2403 3.99976 32.1803V15.8383C3.99976 8.75829 8.55976 3.99829 15.3398 3.99829H32.6798ZM23.9798 20.9603C23.0198 20.9603 22.2398 21.7583 22.2398 22.7203V31.5603C22.2398 32.5203 23.0198 33.3003 23.9798 33.3003C24.9598 33.3003 25.7398 32.5203 25.7398 31.5603V22.7203C25.7398 21.7583 24.9598 20.9603 23.9798 20.9603ZM24.0198 14.6203C23.0398 14.6203 22.2598 15.4003 22.2598 16.3803C22.2598 17.3383 23.0398 18.1203 23.9798 18.1203C24.9798 18.1203 25.7598 17.3383 25.7598 16.3803C25.7598 15.4003 24.9798 14.6203 24.0198 14.6203Z" fill="white"/>
</svg>
