<svg width="28" height="28" viewBox="0 0 28 28" fill="none" xmlns="http://www.w3.org/2000/svg">
<path d="M13.8511 2.33298C17.1808 2.33298 19.8967 4.96576 20.0305 8.2627L20.0356 8.51759L20.0364 10.3564C22.1086 11.076 23.5961 13.0457 23.5961 15.3634V20.3672C23.5961 23.2942 21.2237 25.6662 18.2971 25.6662H9.38256C6.45594 25.6662 4.08356 23.2942 4.08356 20.3672V15.3634C4.08356 13.0452 5.57153 11.0753 7.64436 10.356L7.64446 8.49043C7.65941 5.07443 10.4396 2.31816 13.8511 2.33298ZM18.2971 11.8144H9.38256C7.42237 11.8144 5.83356 13.4029 5.83356 15.3634V20.3672C5.83356 22.3277 7.42237 23.9162 9.38256 23.9162H18.2971C20.2572 23.9162 21.8461 22.3277 21.8461 20.3672V15.3634C21.8461 13.4029 20.2572 11.8144 18.2971 11.8144ZM13.84 15.6948C14.283 15.6948 14.6491 16.024 14.7071 16.4511L14.715 16.5698V19.161C14.715 19.6442 14.3233 20.036 13.84 20.036C13.3971 20.036 13.031 19.7068 12.973 19.2797L12.965 19.161V16.5698C12.965 16.0866 13.3568 15.6948 13.84 15.6948ZM13.8473 4.08303C11.475 4.07269 9.5302 5.92696 9.40122 8.26639L9.39446 8.49426L9.39422 10.0633H18.2854L18.2856 8.51759C18.2856 6.06899 16.2997 4.08304 13.8473 4.08303Z" fill="#18191F"/>
</svg>
