<svg width="28" height="28" viewBox="0 0 28 28" fill="none" xmlns="http://www.w3.org/2000/svg">
<path d="M14.0023 4.66669L14.3362 4.67231C18.9224 4.82473 23.0413 8.05108 25.4296 13.2833L25.5921 13.6489C25.6903 13.8698 25.6915 14.1213 25.5956 14.3432C23.1825 19.9231 18.8287 23.3334 13.9977 23.3334L13.6638 23.3277C9.07135 23.1751 4.95411 19.942 2.57161 14.7196L2.4044 14.3432C2.30964 14.1241 2.30964 13.8759 2.4044 13.6568C4.81747 8.07695 9.17125 4.66669 14.0023 4.66669ZM14.0105 6.40434C10.1401 6.40533 6.54637 9.06869 4.34767 13.6106L4.165 13.999L4.36233 14.4197C6.44743 18.7068 9.77983 21.3174 13.394 21.5734L13.7047 21.5896L14.0047 21.5936L14.302 21.5891C18.1498 21.4495 21.6985 18.6672 23.823 14.027L23.8338 13.999C21.7613 9.45647 18.3308 6.69066 14.6008 6.42655L14.2893 6.41034L14.0105 6.40434ZM13.9994 9.46573C16.52 9.46573 18.5634 11.4955 18.5634 14.0003C18.5634 16.5041 16.5198 18.5336 13.9994 18.5336C11.4792 18.5336 9.43658 16.5042 9.43658 14.0003C9.43658 11.4953 11.4789 9.46573 13.9994 9.46573ZM13.9994 11.2044C12.4455 11.2044 11.1866 12.4555 11.1866 14.0003C11.1866 15.544 12.4457 16.7949 13.9994 16.7949C15.5535 16.7949 16.8134 15.5437 16.8134 14.0003C16.8134 12.4558 15.5536 11.2044 13.9994 11.2044Z" fill="#200E32"/>
</svg>
