<svg width="48" height="48" viewBox="0 0 48 48" fill="none" xmlns="http://www.w3.org/2000/svg">
<path d="M32.6802 3.99976C39.4602 3.99976 44.0002 8.75976 44.0002 15.8398V32.1818C44.0002 39.2398 39.4602 43.9998 32.6802 43.9998H15.3402C8.56024 43.9998 4.00024 39.2398 4.00024 32.1818V15.8398C4.00024 8.75976 8.56024 3.99976 15.3402 3.99976H32.6802ZM32.3602 17.9998C31.6802 17.3198 30.5602 17.3198 29.8802 17.9998L21.6202 26.2598L18.1202 22.7598C17.4402 22.0798 16.3202 22.0798 15.6402 22.7598C14.9602 23.4398 14.9602 24.5398 15.6402 25.2398L20.4002 29.9798C20.7402 30.3198 21.1802 30.4798 21.6202 30.4798C22.0802 30.4798 22.5202 30.3198 22.8602 29.9798L32.3602 20.4798C33.0402 19.7998 33.0402 18.6998 32.3602 17.9998Z" fill="#00C6AE"/>
</svg>
