<svg width="28" height="28" viewBox="0 0 28 28" fill="none" xmlns="http://www.w3.org/2000/svg">
<path d="M11.4684 17.291C13.1528 17.1424 14.8469 17.1424 16.5313 17.291L17.0691 17.3365C17.8048 17.409 18.5352 17.5226 19.2539 17.676C21.086 18.0534 22.4164 18.7229 23.0052 19.9648C23.4427 20.8888 23.4427 21.9614 23.005 22.8858C22.4147 24.1308 21.0672 24.806 19.2676 25.161L18.7224 25.2742C17.9936 25.414 17.2588 25.5095 16.5288 25.5594C15.159 25.6761 13.7828 25.6973 12.4554 25.6243C12.309 25.6243 12.2108 25.6238 12.1243 25.6218L11.956 25.6155C11.7514 25.605 11.5639 25.5836 11.4852 25.5605C10.5617 25.4978 9.64426 25.3641 8.76417 25.1655L8.46564 25.1032C6.79913 24.7329 5.56496 24.0649 4.99408 22.8845C4.77788 22.4264 4.66605 21.9258 4.66669 21.4231C4.66482 20.9169 4.77756 20.4169 5.00181 19.9498C5.59636 18.7557 6.99323 18.0371 8.73929 17.6774C9.64394 17.4835 10.5611 17.354 11.4684 17.291ZM16.3842 18.9735C14.7977 18.8335 13.2021 18.8335 11.6001 18.9747C10.7562 19.0334 9.91755 19.1519 9.08376 19.3305C7.79242 19.5965 6.80511 20.1044 6.51141 20.6942C6.40326 20.9195 6.34754 21.1666 6.34846 21.4211C6.34815 21.677 6.40461 21.9298 6.51031 22.1538C6.81237 22.7783 7.74402 23.2451 9.10907 23.5126L9.52034 23.5997C10.2091 23.7363 10.9185 23.8304 11.7069 23.8899C11.8065 23.9099 11.9139 23.9222 12.0414 23.9287L12.5006 23.9366C13.7958 24.0066 15.0943 23.9866 16.4005 23.8755C17.2424 23.8178 18.0787 23.6964 18.9228 23.508L19.1852 23.4524C20.384 23.1806 21.2135 22.7358 21.4864 22.1601C21.7066 21.6951 21.7066 21.1552 21.4866 20.6906C21.1945 20.0744 20.271 19.6096 18.9101 19.3293C18.0823 19.1526 17.2432 19.0341 16.399 18.9747L16.3842 18.9735ZM14.005 2.33331C17.428 2.33331 20.203 5.12006 20.203 8.55768C20.203 11.9953 17.428 14.7821 14.005 14.7821C10.582 14.7821 7.80707 11.9953 7.80707 8.55768C7.80707 5.12006 10.582 2.33331 14.005 2.33331ZM14.005 4.02226C11.5108 4.02226 9.48885 6.05284 9.48885 8.55768C9.48885 11.0625 11.5108 13.0931 14.005 13.0931C16.4992 13.0931 18.5212 11.0625 18.5212 8.55768C18.5212 6.05284 16.4992 4.02226 14.005 4.02226Z" fill="#200E32"/>
</svg>
