<svg width="48" height="48" viewBox="0 0 48 48" fill="none" xmlns="http://www.w3.org/2000/svg">
<path d="M21.2558 6.70619C23.9753 5.19804 27.4348 6.18894 28.9545 8.88418L43.4921 34.1144C43.812 34.8675 43.952 35.4799 43.992 36.116C44.072 37.6024 43.552 39.0471 42.5322 40.1589C41.5124 41.2667 40.1326 41.9207 38.6329 42H9.35781C8.73791 41.9623 8.11802 41.8216 7.53811 41.6036C4.6386 40.4344 3.23884 37.1446 4.41864 34.2928L19.0562 8.86635C19.5561 7.97256 20.316 7.20164 21.2558 6.70619ZM23.9953 30.5452C23.0355 30.5452 22.2356 31.3379 22.2356 32.2912C22.2356 33.2405 23.0355 34.0352 23.9953 34.0352C24.9552 34.0352 25.735 33.2405 25.735 32.2694C25.735 31.3201 24.9552 30.5452 23.9953 30.5452ZM23.9953 18.1808C23.0355 18.1808 22.2356 18.9517 22.2356 19.905V25.5115C22.2356 26.4627 23.0355 27.2574 23.9953 27.2574C24.9552 27.2574 25.735 26.4627 25.735 25.5115V19.905C25.735 18.9517 24.9552 18.1808 23.9953 18.1808Z" fill="#F99B2C"/>
</svg>
