<svg width="18" height="18" viewBox="0 0 18 18" fill="none" xmlns="http://www.w3.org/2000/svg">
<path d="M10.785 3.22343L10.8532 3.33812L16.3428 12.9553C16.4322 13.1728 16.4841 13.406 16.4975 13.6465C16.5555 14.7734 15.7234 15.7398 14.5903 15.8652L14.4583 15.8759H3.59678L3.573 15.8738L3.51056 15.8751C3.33354 15.8651 3.15919 15.8339 2.99009 15.7814L2.82283 15.7219C1.77815 15.2963 1.25533 14.1336 1.64085 13.0185L1.68938 12.8901L7.14321 3.34511C7.33644 2.99545 7.62474 2.70741 7.9726 2.51619C8.95866 1.96969 10.1905 2.29187 10.785 3.22343ZM8.51625 3.50111C8.38585 3.57279 8.27344 3.67339 8.18534 3.79818L8.12393 3.89624L2.69896 13.3808C2.49184 13.8909 2.7372 14.4722 3.24519 14.6792C3.31438 14.707 3.38657 14.7272 3.46079 14.7394L3.57376 14.7518L3.59678 14.7509L14.4289 14.7518C14.9794 14.7229 15.4023 14.2542 15.3742 13.7069C15.3703 13.6384 15.36 13.5715 15.3504 13.5214L15.3341 13.4482L9.87258 3.88948C9.60593 3.4075 8.99963 3.23321 8.51625 3.50111ZM9.00023 11.6352C9.31073 11.6352 9.56273 11.8835 9.56273 12.194V12.2022C9.56273 12.5127 9.31073 12.7647 9.00023 12.7647C8.68973 12.7647 8.43773 12.5127 8.43773 12.2022C8.43773 11.8917 8.68973 11.6352 9.00023 11.6352ZM8.99243 7.15958C9.2772 7.15958 9.51255 7.3712 9.5498 7.64575L9.55493 7.72208V10.0471C9.55493 10.3577 9.30309 10.6096 8.99243 10.6096C8.70766 10.6096 8.47231 10.398 8.43507 10.1234L8.42993 10.0471V7.72208C8.42993 7.41142 8.68177 7.15958 8.99243 7.15958Z" fill="white"/>
</svg>
