<svg width="261" height="407" viewBox="0 0 261 407" fill="none" xmlns="http://www.w3.org/2000/svg">
<path fill-rule="evenodd" clip-rule="evenodd" d="M65.9493 78.1509C71.277 57.4908 76.1767 48.7311 85.641 41.5502C94.4935 34.8335 107.416 29.1923 126.272 25.0715C145.911 21.6385 146.468 11.4333 151.392 -4.96898C152.828 -9.89995 159.947 -11.212 163.02 -7.65789C163.453 -8.12531 163.904 -8.55338 164.372 -8.94028C163.953 -11.2919 167.378 -18.0322 167.264 -20.2817C166.069 -43.7613 173.751 -55.552 192.923 -59.935C197.092 -60.8886 225.413 -61.4499 229.478 -60.3261C247.251 -55.4133 264.746 -39.8151 262.069 -21.0249C267.648 -13.7356 273.108 -9.28661 281.715 -6.93798C300.869 -4.5064 320.022 -2.34426 339.181 -0.493332C376.685 5.38763 411.848 25.235 435.881 54.1809C438.097 56.8528 438.738 60.4796 436.781 63.3289C438.314 69.8917 446.94 85.8107 440.153 90.31C451.315 117 476.997 168.59 477.045 183.329C477.247 245.245 470.558 325.838 409.447 360.103C407 362.508 406.65 365.169 405.591 368.747C402.904 380.019 393.147 388.075 382.467 387.417C329.857 388.586 278.9 382.169 226.289 381.858C203.087 381.721 175.185 385.184 155.03 387.491C134.875 389.797 114.53 387.757 95.1877 381.858C93.5567 384.426 90.2592 385.921 86.9142 385.184C66.8629 381.201 50.6481 368.847 36.5257 355.344C32.21 347.495 15.356 325.13 22.0551 317.346C15.9822 291.678 16.2979 264.098 27.0894 239.656C25.5597 235.176 28.348 230.252 27.0894 225.626C26.1787 222.278 23.8462 220.893 22.6721 217.577C21.0201 212.912 22.8168 206.653 24.6768 201.892C25.4391 199.519 23.2738 196.966 22.6721 194.544C19.8181 183.124 26.3534 184.131 31.0647 176.497C30.9946 176.473 29.7694 171.023 29.7749 171.05C29.0536 167.159 30.8607 162.174 32.4371 158.926C33.5025 156.731 35.7848 155.357 38.0525 155.609C35.7688 147.857 32.8806 141.408 29.7749 133.94C24.2822 120.776 17.3296 108.171 9.44244 96.2558C6.21255 91.3768 10.5505 85.7242 15.7774 85.3918C32.6953 84.317 49.4281 81.8818 65.9493 78.1509Z" fill="white"/>
<path fill-rule="evenodd" clip-rule="evenodd" d="M115.324 177.698C122.091 175.045 129.377 173.579 136.699 173.01C132.757 172.319 128.803 171.653 124.817 171.31C122.036 171.072 119.457 171.096 117.366 173.206C115.972 174.611 115.318 176.42 114.401 178.083C114.701 177.948 115.012 177.82 115.324 177.698ZM42.6958 152.893C53.7777 153.456 64.8719 156.091 74.8963 160.864C78.9978 162.82 82.7142 165.644 83.8022 170.29C84.3523 172.662 84.2179 175.113 83.9251 177.509C83.7044 179.324 83.6494 181.64 82.0724 182.869C81.8034 183.077 81.5161 183.236 81.2166 183.352C84.9147 185.021 88.4361 187.026 91.5656 189.092C94.4257 190.98 97.3658 193.89 98.6861 197.172C98.7961 196.799 98.9061 196.452 99.0161 196.121C101.266 189.471 104.731 184.025 110.19 180.363C109.224 179.93 108.558 178.902 108.869 177.485C110.165 171.561 115.637 166.414 121.816 166.781C128.582 167.178 135.85 169.642 141.969 172.753C144.199 172.704 146.425 172.735 148.625 172.832C149.004 172.845 148.986 173.359 148.625 173.401C146.84 173.628 145.055 173.878 143.27 174.171C139.028 174.85 134.799 175.711 130.661 176.781C125.697 178.065 120.563 179.354 115.923 181.598C106.926 185.956 101.357 197.35 102.5 207.264C102.69 208.89 103.319 213.804 105.575 213.297C107.482 212.869 108.24 208.89 108.906 207.417C110.691 203.505 113.906 200.95 117.763 199.22C122.292 197.184 127.14 195.809 131.835 194.208C134.493 193.298 137.152 192.386 139.817 191.482C142.543 190.547 145.135 189.257 148.038 189.911C149.792 190.308 149.994 192.398 149.01 193.597C147.512 195.424 145.288 195.962 143.13 196.714C140.281 197.704 137.439 198.695 134.597 199.684C130.203 201.213 125.599 202.502 121.315 204.373L121.449 204.678C121.798 204.581 122.207 204.929 122.14 205.357C121.498 209.312 120.605 213.884 121.596 217.845C122.378 220.986 125.135 224.465 128.717 223.541C128.154 223.028 127.946 222.142 128.325 221.323C129.744 218.291 148.325 206.323 149.982 210.767C150.037 210.925 149.866 211.041 149.731 211.018C148.319 210.724 145.954 213.132 144.824 213.896C143.192 214.997 141.535 216.072 139.921 217.203C138.154 218.438 136.431 219.734 134.75 221.072C133.429 222.124 132.433 223.217 130.918 223.75C131.712 224.128 132.342 224.831 132.61 225.73C133.295 228.071 134.615 230.057 136.907 231.091C139.31 232.166 142.017 231.488 144.548 231.751C147.995 232.099 151.003 233.738 153.515 236.079C158.79 241.005 161.437 249.685 168.814 252.013C173.221 253.401 178.111 252.527 182.574 251.897C187.555 251.194 192.409 250.638 197.427 251.371C202.231 252.075 206.773 253.737 211.162 255.766C215.275 257.667 219.823 259.82 223.472 262.655C224.224 260.339 224.982 258.046 225.557 255.681C226.913 250.089 227.647 244.391 227.825 238.645C227.989 233.175 227.684 227.68 227.214 222.233C226.981 219.513 226.614 216.805 226.382 214.085C226.321 213.401 226.198 212.667 226.107 211.934C219.591 208.089 212.745 205.143 205.844 202.112C205.825 202.106 205.807 202.093 205.789 202.087C205.575 201.989 205.367 201.898 205.153 201.806C205.159 201.793 205.165 201.782 205.177 201.769C204.389 201.287 203.839 200.644 203.509 199.923C193.564 193.327 185.251 184.324 179.053 173.823C176.455 169.422 173.955 164.856 170.556 160.999C166.938 156.885 162.641 154.44 157.323 153.169C151.107 151.678 144.701 150.785 138.332 150.277C134.854 150.003 130.967 149.574 127.176 149.593C124.536 149.611 121.951 149.837 119.578 150.491C116.064 151.457 114.01 154.129 111.803 156.83C109.695 159.422 107.598 162.02 105.63 164.722C103.766 167.282 102.005 169.929 100.477 172.704C99.5602 174.367 98.7105 176.079 97.9954 177.845C97.7448 178.469 97.4147 179.177 97.2619 179.825C97.109 180.479 97.3902 181.17 96.6567 181.17C99.6824 181.213 99.6518 186.048 96.6445 185.87C84.8719 185.186 101.736 162.203 104.2 159C107.69 154.464 111.29 148.548 116.877 146.439C116.956 146.408 117.042 146.378 117.121 146.353C115.495 144.813 114.212 142.967 112.983 141.09C111.718 139.159 110.209 136.946 109.792 134.654C109.53 133.194 111.345 132.362 112.207 133.639C113.46 135.504 114.065 137.863 115 139.911C115.954 141.989 117.115 143.951 118.032 146.048C120.239 145.369 122.622 145.058 125.049 144.954C121.987 140.81 116.755 132.814 116.125 131.787C113.228 127.032 110.471 122.13 107.836 117.221C104.989 111.903 102.549 106.365 99.823 100.986C98.2765 97.9369 96.7178 94.8617 95.0002 91.9033C94.4073 90.8886 93.7716 89.8739 93.0504 88.9509C92.9098 88.7682 92.7325 88.6154 92.5675 88.4436C92.378 88.3397 92.1824 88.2236 92.0724 88.163C91.0828 87.5946 90.7337 86.2743 90.0375 85.4363C88.9245 84.086 87.6164 83.9271 85.9416 83.9081C82.3725 83.8715 78.79 84.0121 75.2264 84.1099C69.988 84.2566 64.7557 84.4644 59.5235 84.7394C57.9403 84.825 56.3633 84.9106 54.7802 85.0084C47.1702 85.4613 39.5663 86.0536 31.9807 86.7816C25.2692 87.4228 18.5577 88.4687 11.8401 88.9699C20.9355 110.577 31.0211 131.794 42.4398 152.271C42.5553 152.478 42.6414 152.686 42.6958 152.893ZM93.1604 208.56C94.6273 209.233 96.0515 210.07 97.3779 211.024C97.1579 209.538 97.1029 207.973 97.164 206.402C96.0699 207.576 94.6701 208.248 93.1604 208.56ZM30.538 171.39C30.6419 171.402 30.7397 171.457 30.7886 171.561C32.818 175.748 31.9689 180.424 28.6554 183.706C26.9194 185.418 23.1358 187.349 23.2587 190.161C23.3626 192.435 25.8375 194.342 26.895 196.219C27.8791 197.967 28.2458 199.886 27.4573 201.782C26.4488 204.208 23.6309 205.173 22.6651 207.558C21.4427 210.583 23.4292 214.233 24.8228 216.867C26.1187 219.305 27.7941 221.744 28.906 224.324C36.3571 228.181 43.0258 234.098 48.7593 240.107C55.0368 246.678 60.4219 254.409 70.3913 254.214C71.3876 254.195 72.1456 254.722 72.5979 255.449C75.373 255.577 78.1541 255.632 80.9292 255.645C85.8069 255.669 90.6847 255.62 95.5563 255.467C95.8987 254.287 95.648 252.686 95.667 251.689C95.7275 248.48 95.7581 245.277 95.8925 242.068C95.9292 241.176 95.9659 240.277 96.0026 239.385C94.2483 242.557 90.8253 244 86.9255 243.78C80.6541 243.414 74.3461 242.386 68.1364 241.463C64.8656 240.98 61.6016 240.43 58.3436 239.843C55.6664 239.367 51.8889 239.489 50.0184 237.343C49.5783 236.843 49.5539 235.926 50.2446 235.589C52.0967 234.678 53.2642 235.186 55.3002 235.577C57.7813 236.06 60.269 236.518 62.7635 236.947C67.5496 237.777 72.3473 238.548 77.1578 239.226C79.8962 239.611 82.6407 239.99 85.3852 240.29C87.7813 240.546 90.483 240.895 92.4146 239.092C96.3082 235.448 94.126 229.342 91.6627 225.662C91.6138 225.59 91.6138 225.522 91.6321 225.461C89.3094 224.917 86.9928 224.281 84.6823 223.835C80.2385 222.979 75.7642 222.258 71.2837 221.617C62.0783 220.302 52.8118 219.434 43.5582 218.56C41.266 218.34 41.2415 214.734 43.5582 214.948C56.8528 216.164 70.2141 217.319 83.3314 219.881C86.6199 220.516 89.8846 221.237 93.1297 222.05C94.6639 222.43 96.3082 223.022 97.9158 223.041C98.0135 223.041 98.112 223.041 98.2092 223.034C101.357 222.937 101.816 220.241 100.086 217.998C99.8718 217.722 99.6517 217.447 99.4255 217.185C96.3693 213.541 92.5619 211.109 88.6376 208.59C84.2422 207.991 79.8595 206.659 75.5563 205.681C64.9329 203.26 54.3094 200.84 43.6798 198.425C41.5961 197.948 42.4818 194.746 44.5661 195.216C52.6346 197.044 60.703 198.871 68.7721 200.699L80.5808 203.377C82.9402 203.908 85.887 204.978 88.6621 205.364C90.0307 205.552 91.3571 205.577 92.5551 205.296C96.4243 204.379 96.6199 199.544 94.9512 196.671C93.0808 193.444 89.5478 191.426 86.4121 189.599C80.9781 186.426 75.1957 184.147 69.5478 181.518C68.5453 181.298 67.5429 181.078 66.5404 180.858C60.7092 179.574 54.0466 178.945 48.5576 176.592C46.9133 175.895 47.8124 173.303 49.4377 173.34C53.6982 173.432 58.1541 174.947 62.3167 175.846C66.8216 176.824 71.3326 177.796 75.8375 178.768C76.2898 178.865 78.9671 179.721 79.3705 179.532C79.6273 179.409 79.7189 178.518 79.8045 177.93C80.0802 175.999 80.2813 173.97 79.9818 172.032C79.3216 167.686 75.6969 165.644 72.0294 163.975C63.8632 160.265 54.9084 157.943 45.9964 157.013C43.9427 156.799 41.8889 156.665 39.8228 156.598C37.3968 156.524 35.3974 156.096 34.1688 158.486C32.2373 162.252 31.1737 167.093 30.538 171.39ZM41.8792 307.909C43.6586 301.755 43.1745 295.184 44.3933 288.907C45.0222 285.669 45.8811 282.456 46.8187 279.294C47.5754 276.741 48.8377 274.024 48.9807 271.359C48.9893 271.181 48.7796 271.079 48.6353 271.161C46.1249 272.598 44.1971 275.706 42.7655 278.145C41.0516 281.064 39.7429 284.12 38.6873 287.334C36.5834 293.735 34.856 301.457 37.5693 307.909C38.3768 309.829 41.213 310.214 41.8792 307.909ZM96.8705 226.396C95.3669 226.25 93.8632 225.962 92.3595 225.626C94.0405 227.265 95.593 229.238 96.4555 231.427C96.5894 229.746 96.7611 228.071 96.9867 226.403C96.95 226.403 96.9072 226.403 96.8705 226.396ZM111.322 354.496C113.973 352.645 115.905 350.059 118.154 347.776C120.366 345.53 116.908 342.073 114.696 344.318C112.778 346.265 111.112 348.698 108.854 350.273C107.767 351.03 107.264 352.4 107.976 353.618C108.606 354.694 110.238 355.252 111.322 354.496ZM126.109 283.379C121.268 281.286 116.508 279.007 111.442 277.499C108.415 276.598 107.133 281.318 110.142 282.214C114.808 283.603 119.184 285.674 123.641 287.601C126.503 288.838 128.99 284.624 126.109 283.379ZM177.228 281.914C178.412 278.994 173.679 277.735 172.512 280.615C171.17 283.929 169.63 287.158 168.287 290.472C167.105 293.393 171.836 294.652 173.003 291.772C174.346 288.458 175.885 285.229 177.228 281.914ZM227.683 340.239C228.471 341.29 229.786 341.86 231.028 341.117C232.069 340.493 232.704 338.835 231.905 337.771C229.575 334.665 227.213 331.596 224.482 328.826C222.267 326.581 218.811 330.041 221.024 332.284C223.464 334.757 225.601 337.464 227.683 340.239ZM234.897 12.9827C232.653 14.5157 230.687 16.3782 228.769 18.2944C226.54 20.5224 229.998 23.9796 232.228 21.7516C233.843 20.1367 235.473 18.4974 237.366 17.2052C238.459 16.4582 238.95 15.0689 238.243 13.8598C237.609 12.7767 235.989 12.2382 234.897 12.9827ZM161.492 91.6728C162.761 94.2137 163.904 96.7046 163.976 99.5927C164.053 102.739 168.943 102.741 168.865 99.5927C168.772 95.8134 167.378 92.5359 165.715 89.2046C164.308 86.3849 160.091 88.8647 161.492 91.6728ZM134.559 28.4742C131.93 26.7217 129.485 30.9595 132.091 32.6967C134.203 34.1044 136.316 35.5133 138.429 36.9216C141.056 38.6734 143.502 34.4363 140.897 32.6991C138.784 31.2908 136.672 29.8825 134.559 28.4742ZM251.378 138.971C251.827 142.079 256.538 140.749 256.094 137.672C255.406 132.915 254.567 128.221 253.276 123.588C252.432 120.556 247.716 121.852 248.561 124.888C249.852 129.521 250.691 134.215 251.378 138.971ZM268.523 194.986C271.67 194.919 271.671 190.029 268.523 190.096C265.674 190.156 262.874 190.906 260.127 191.592C257.07 192.355 258.374 197.07 261.427 196.307C263.749 195.727 266.114 195.037 268.523 194.986ZM274.852 307.822C275.933 308.348 277.042 308.822 278.135 309.322C280.324 310.323 282.512 311.324 284.699 312.329C289.255 314.42 293.809 316.519 298.358 318.625C307.466 322.84 316.644 326.908 325.773 331.078C335.083 335.331 344.369 339.64 353.643 343.971C358.012 346.011 362.414 347.976 366.808 349.963C370.564 351.661 375.208 354.629 379.332 354.909C379.544 354.923 379.615 354.655 379.494 354.518C377.936 352.746 375.451 351.715 373.403 350.563C371.311 349.386 369.18 348.279 367.059 347.156C362.638 344.813 358.21 342.49 353.746 340.229C344.816 335.71 335.868 331.224 326.919 326.743C317.792 322.172 308.676 317.571 299.469 313.164C295.134 311.088 290.795 309.019 286.453 306.956C284.101 305.839 281.748 304.723 279.394 303.609C278.378 303.128 277.372 302.609 276.333 302.179C274.952 301.607 273.902 301.724 272.478 301.372C270.155 300.799 269.15 303.752 270.933 305.038C272.401 306.098 273.174 307.004 274.852 307.822ZM307.497 357.963C307.998 356.744 306.948 355.261 305.789 354.955C304.401 354.59 303.287 355.433 302.781 356.663C301.44 359.924 299.531 362.916 297.073 365.443C294.876 367.701 298.332 371.16 300.531 368.901C303.611 365.733 305.824 362.032 307.497 357.963ZM331.513 279.472C333.742 277.244 330.284 273.786 328.055 276.015L321.718 282.352C319.489 284.581 322.948 288.038 325.176 285.81L331.513 279.472ZM396.531 269.14C401.088 270.477 406.402 271.705 409.508 275.592C409.66 275.782 409.915 275.538 409.824 275.349C405.847 267.104 394.442 264.213 386.546 261.324C380.961 259.281 375.231 257.587 369.452 256.073C370.03 249.481 368.437 242.415 367.883 235.856C367.292 228.852 366.811 221.83 366.564 214.804C366.311 207.637 366.25 200.422 366.486 193.254C366.721 186.111 367.648 179.056 368.054 171.937C368.093 171.249 367.135 171.216 366.928 171.785C364.528 178.391 363.503 185.708 362.722 192.673C361.918 199.849 361.651 207.004 361.753 214.221C361.86 221.641 362.291 229.044 362.883 236.441C363.164 239.947 363.49 243.448 363.797 246.952C364.032 249.625 364.141 252.277 364.686 254.866C361.201 254.011 357.707 253.202 354.225 252.415C343.121 249.909 331.971 247.584 320.913 244.875C315.486 243.545 310.135 241.952 304.732 240.538C299.644 239.206 294.273 237.591 289.05 236.997C287.185 236.784 286.948 239.334 288.182 240.2C292.428 243.181 298.067 245.257 302.971 246.925C307.893 248.599 313.009 249.804 318.053 251.044C328.574 253.632 339.193 255.747 349.797 257.951C360.386 260.152 370.996 262.337 381.466 265.052C386.508 266.36 391.533 267.673 396.531 269.14ZM421.499 138.32C424.221 139.918 426.679 135.69 423.967 134.097C420.417 132.014 416.634 130.449 412.82 128.922C409.894 127.75 408.635 132.482 411.52 133.637C414.948 135.009 418.309 136.448 421.499 138.32ZM431.357 319.991C434.087 321.574 436.547 317.347 433.825 315.769C430.002 313.554 425.816 312.075 421.854 310.136C419.036 308.756 416.56 312.975 419.387 314.359C423.347 316.298 427.534 317.776 431.357 319.991ZM435.791 216.866C433.152 219.373 429.629 220.554 426.308 221.871C423.412 223.018 424.682 227.746 427.608 226.586C431.746 224.945 435.961 223.447 439.249 220.323C441.536 218.151 438.072 214.699 435.791 216.866ZM406.591 76.814C403.69 77.9522 404.96 82.6796 407.891 81.5298C411.142 80.2547 414.499 79.2841 417.75 78.009C420.651 76.8709 419.38 72.1441 416.449 73.2932C413.199 74.5683 409.842 75.5389 406.591 76.814ZM355.08 21.1856C351.997 20.6661 350.684 25.3788 353.78 25.9014C357.621 26.5499 361.403 27.3085 365.046 28.718C367.988 29.8562 369.25 25.1263 366.346 24.0029C362.703 22.5933 358.92 21.8342 355.08 21.1856ZM338.059 156.628C340.887 155.238 338.406 151.022 335.592 152.406C332.626 153.864 329.553 154.991 326.317 155.68C323.236 156.336 324.548 161.049 327.618 160.395C331.259 159.619 334.725 158.268 338.059 156.628ZM321.984 80.3348C318.94 79.5011 317.653 84.2193 320.684 85.0506C326.017 86.5115 331.508 87.2712 336.88 88.5714C339.942 89.3122 341.237 84.5958 338.18 83.8562C332.808 82.5555 327.317 81.7969 321.984 80.3348ZM253.79 56.3935C250.695 56.9662 252.014 61.6783 255.089 61.1092C258.364 60.5035 261.682 60.4937 265.002 60.4919C268.154 60.4906 268.148 55.6007 265.002 55.6019C261.231 55.6037 257.507 55.7058 253.79 56.3935ZM31.3816 81.9405C39.3706 81.1765 47.3718 80.5652 55.3853 80.1068C55.7587 80.0879 56.1249 80.064 56.4984 80.0451C56.5405 79.9601 56.5955 79.88 56.6512 79.7945C59.2667 75.9558 61.1921 72.1178 62.8608 67.7773C64.4562 63.6453 66.0026 59.3855 68.4598 55.6569C71.2624 51.4088 75.046 48.0848 79.1927 45.204C81.708 46.8953 84.0423 48.8757 86.178 50.9748C88.4256 53.1832 91.884 49.726 89.6359 47.5169C87.7379 45.6514 85.7123 43.9283 83.5711 42.3715C86.0436 40.869 88.5662 39.457 91.0271 38.0524C100.251 32.7902 109.695 27.924 119.334 23.4748C123.814 21.402 128.35 19.5622 132.916 17.6979C135.374 16.696 137.8 15.4057 140.257 14.2449C140.08 12.5084 140.599 10.5646 141.932 9.42159C142.916 8.58418 143.68 8.27244 144.853 7.68015C145.116 7.58784 145.275 7.53283 145.349 7.50227C145.294 7.5145 145.135 7.5634 144.872 7.64897C144.248 7.93687 144.199 7.85069 144.725 7.39836C144.756 6.40875 146.706 4.31829 147.152 3.2975C148.704 -0.205551 149.187 -3.90971 151.479 -7.10042C154.64 -11.4953 159.945 -13.1573 164.891 -11.6664C165.404 -16.9537 165.538 -22.4727 167.531 -27.1921C167.586 -27.3199 167.763 -27.3755 167.842 -27.2349C169.921 -23.6952 170.098 -19.7532 170.257 -15.6701C170.41 -11.8376 170.264 -7.91949 169.762 -4.11142C170.08 -3.86692 170.404 -3.63404 170.74 -3.40849C172.317 -2.36937 174.016 -1.56863 175.801 -0.975113C179.199 0.148972 182.763 0.637966 186.327 0.809116C195.526 1.24921 205.006 0.320122 214.053 -1.2569C223.203 -2.85225 237.231 -5.24834 245.373 -9.82658C250.747 -12.8455 255.703 -16.532 260.728 -20.1016C258.906 -25.9696 258.441 -32.2777 260.275 -37.2349C260.495 -37.8278 261.424 -37.9378 261.602 -37.2349C262.751 -32.5038 263.087 -27.7483 264.615 -23.0723C264.64 -23.0051 264.664 -22.9311 264.688 -22.8645C265.165 -23.1878 265.642 -23.5063 266.119 -23.8241C267.219 -24.5515 268.717 -24.0069 269.377 -22.9684C279.934 -6.33636 296.651 -5.38281 314.206 -2.41154C333.418 0.83968 352.726 4.34824 371.198 10.7113C388.863 16.7999 405.746 25.663 419.12 38.9026C422.147 41.9002 424.979 45.094 427.651 48.4283C425.066 48.7541 422.501 49.2614 419.97 50.0567C416.973 50.998 418.261 55.7174 421.27 54.7718C424.523 53.7498 427.813 53.2443 431.135 52.9925C440.223 65.424 447.308 79.52 453.435 93.3947C465.188 119.997 472.838 148.327 476.358 177.17C474.425 176.011 472.457 174.908 470.441 173.882C467.639 172.457 465.168 176.677 467.973 178.104C471.088 179.689 474.113 181.435 477.045 183.329C478.325 195.954 478.822 208.661 478.521 221.347C477.806 251.592 473.723 282.722 464.487 311.579C459.957 325.742 453.955 339.789 445.012 351.757C440.966 357.178 436.369 362.068 430.954 366.145C428.331 368.126 425.556 369.893 422.629 371.384C418.857 373.315 413.943 373.951 410.691 376.683C409.621 377.582 408.796 378.768 408.173 380.106C408.533 382.649 408.576 385.198 407.879 387.741C407.659 388.536 407.06 389.183 406.32 389.495C406.308 389.715 406.308 389.929 406.308 390.137C406.308 390.235 406.162 390.259 406.143 390.162C406.113 389.972 406.082 389.782 406.052 389.587C405.813 389.666 405.563 389.703 405.306 389.703C396.021 389.738 386.724 389.512 377.427 389.197C378.146 386.994 378.925 384.811 379.673 382.609C380.688 379.617 375.963 378.345 374.957 381.309C374.083 383.884 373.168 386.436 372.355 389.019C362.393 388.649 352.435 388.204 342.494 387.876C321.351 387.172 300.214 386.94 279.066 386.494C246.223 385.798 213.141 384.373 180.247 385.767C179.11 383.353 177.836 380.994 176.629 378.612C175.205 375.802 170.987 378.279 172.407 381.081C173.246 382.735 174.115 384.369 174.941 386.021C168.279 386.367 161.624 386.824 154.982 387.448C143.65 388.511 132.427 390.4 121.107 391.574C109.597 392.771 98.3376 392.558 86.9195 390.657C84.8657 390.315 83.6554 389.073 83.1542 387.533C83.1365 387.527 83.1236 387.515 83.112 387.496C82.5252 386.812 81.9745 386.244 81.4066 385.748C80.7276 385.309 79.994 384.935 79.1322 384.605C77.5246 383.994 75.8498 383.621 74.1505 383.37C72.2801 383.09 70.3853 383.065 68.5148 382.833C66.9384 382.631 65.3975 382.331 63.8577 381.965C61.0882 381.305 58.4598 380.443 55.8437 379.299C53.5638 378.304 51.5045 376.873 49.5601 375.314C45.5381 372.374 42.0546 368.621 39.0099 364.721C37.2373 362.441 35.5686 360.076 34.0527 357.613C31.4121 353.346 29.1628 348.914 26.8889 344.446C26.0638 343.122 25.3107 341.766 24.6224 340.382C29.0662 339.073 33.5527 338.005 38.2636 337.93C41.4128 337.879 41.4121 332.989 38.2636 333.04C32.8608 333.126 27.7502 334.388 22.6725 335.892C22.425 335.235 22.1878 334.573 21.9684 333.902C21.3633 332.503 20.862 331.066 20.4464 329.611C20.2025 328.951 19.9574 328.291 19.7129 327.631C19.1628 325.345 18.6126 323.052 18.0564 320.76C16.9501 317.093 16.0766 313.37 15.4341 309.599C14.8962 307.117 14.4806 304.617 14.1995 302.087C13.3437 295.956 12.6469 289.837 12.598 283.639C12.6713 279.819 12.9158 276.005 13.3315 272.209C13.5087 269.629 13.8082 267.062 14.2116 264.513C14.7373 260.724 15.2569 256.971 16.131 253.23C16.785 250.7 17.4391 248.169 18.0931 245.638C19.7251 240.364 21.6505 235.192 23.87 230.137C23.9916 229.82 24.6096 229.122 24.9818 229.116C25.263 229.11 25.6548 229.367 25.5265 229.71C25.5136 229.739 25.502 229.776 25.4892 229.807C25.6175 229.519 25.7398 229.226 25.8681 228.939C25.9781 228.67 26.4061 228.132 26.7361 228.139C26.7545 228.139 26.7734 228.139 26.7972 228.144C26.7117 228.084 26.6322 228.004 26.5527 227.912C24.3583 225.315 22.9341 221.897 21.3633 218.89C20.0613 216.408 18.8327 213.792 18.4782 210.986C18.1671 208.524 18.5882 206.096 20.1346 204.104C21.895 201.836 25.208 200.772 23.3682 197.496C21.2777 193.768 18.2031 190.534 21.2655 186.298C22.8241 184.14 25.2935 182.955 27.1273 181.078C29.2361 178.908 30.2392 176.005 30.1835 173.04C30.0552 173.114 29.884 173.077 29.8229 172.893C28.0503 167.539 29.3339 161.659 31.1493 156.445C32.1395 153.615 34.2367 152.838 36.675 152.699C26.1133 132.069 16.2294 111.109 7.42072 89.6661C7.12732 88.9632 6.84003 88.2608 6.55334 87.5573C6.12485 86.5059 7.02951 85.1068 8.07474 84.8739C15.6909 83.2052 23.6249 82.6734 31.3816 81.9405Z" fill="#18191F"/>
</svg>
