<?xml version="1.0" encoding="UTF-8" standalone="no"?>
<svg
   xmlns:dc="http://purl.org/dc/elements/1.1/"
   xmlns:cc="http://creativecommons.org/ns#"
   xmlns:rdf="http://www.w3.org/1999/02/22-rdf-syntax-ns#"
   xmlns:svg="http://www.w3.org/2000/svg"
   xmlns="http://www.w3.org/2000/svg"
   xmlns:sodipodi="http://sodipodi.sourceforge.net/DTD/sodipodi-0.dtd"
   xmlns:inkscape="http://www.inkscape.org/namespaces/inkscape"
   id="_290_note_taking_flatline"
   data-name="#290_note_taking_flatline"
   viewBox="0 0 253.7346 209.98314"
   version="1.1"
   sodipodi:docname="notes.svg"
   width="253.7346"
   height="209.98314"
   inkscape:version="1.0.1 (3bc2e813f5, 2020-09-07, custom)">
  <metadata
     id="metadata131">
    <rdf:RDF>
      <cc:Work
         rdf:about="">
        <dc:format>image/svg+xml</dc:format>
        <dc:type
           rdf:resource="http://purl.org/dc/dcmitype/StillImage" />
        <dc:title></dc:title>
      </cc:Work>
    </rdf:RDF>
  </metadata>
  <defs
     id="defs129" />
  <sodipodi:namedview
     pagecolor="#ffffff"
     bordercolor="#666666"
     borderopacity="1"
     objecttolerance="10"
     gridtolerance="10"
     guidetolerance="10"
     inkscape:pageopacity="0"
     inkscape:pageshadow="2"
     inkscape:window-width="1920"
     inkscape:window-height="1056"
     id="namedview127"
     showgrid="false"
     fit-margin-top="0"
     fit-margin-left="0"
     fit-margin-right="0"
     fit-margin-bottom="0"
     inkscape:zoom="1.8479057"
     inkscape:cx="-6.1594238"
     inkscape:cy="110.4455"
     inkscape:window-x="0"
     inkscape:window-y="0"
     inkscape:window-maximized="1"
     inkscape:current-layer="_290_note_taking_flatline" />
  <path
     d="m 52.79449,200.40062 c 0,0 6.37,-38.09 8.59,-46 7.13,-25.53 -5,-101.43 -5,-102.19 0,-0.76 -37.49,35.77 -38.97,50.32 -0.71,7 -0.66,34.55 -0.05,44.53 0.39,6.24 -10.3899996,48.42 -10.3899996,48.42 z"
     fill="#ffffff"
     id="path2" />
  <path
     d="m 52.79449,200.90062 h -0.06 l -45.8199996,-4.92 a 0.47,0.47 0 0 1 -0.35,-0.21 0.5,0.5 0 0 1 -0.08,-0.41 c 0.11,-0.42 10.7599996,-42.18 10.3799996,-48.27 -0.59,-9.69 -0.66,-37.53 0.05,-44.61 0.78,-7.7 11.24,-21 19.88,-30.89 7.7,-8.78 18.65,-19.91 19.58,-19.91 v 0 a 0.52,0.52 0 0 1 0.48,0.52 c 0,0.1 0.13,1 0.31,2.2 7.19,49.65 8.86,85.2 4.69,100.11 -2.18,7.82 -8.52,45.59 -8.58,46 a 0.49,0.49 0 0 1 -0.48,0.39 z m -45.1999996,-5.85 44.7799996,4.8 c 0.74,-4.38 6.46,-38.22 8.53,-45.61 4.13,-14.78 2.45,-50.18 -4.72,-99.7 -0.09,-0.65 -0.16,-1.11 -0.21,-1.45 -4.93,4.3 -36.73,36.31 -38.06,49.49 -0.72,7 -0.64,34.79 -0.05,44.45 0.37,5.95 -8.9399996,42.79 -10.2699996,48.02 z"
     fill="#231f20"
     id="path4" />
  <polygon
     points="269.35,153.34 266.82,158.06 139.71,190.03 112.8,83.06 115.33,78.35 "
     fill="#ffffff"
     id="polygon6"
     transform="translate(-80.84551,-45.01938)" />
  <path
     d="m 58.86449,145.51062 a 0.5,0.5 0 0 1 -0.49,-0.38 l -26.9,-107 a 0.5,0.5 0 0 1 0,-0.36 l 2.52,-4.72 a 0.5,0.5 0 0 1 0.66,-0.21 l 154,75 a 0.48,0.48 0 0 1 0.26,0.3 0.53,0.53 0 0 1 0,0.39 l -2.52,4.71 a 0.5,0.5 0 0 1 -0.32,0.25 l -127.12,32 z m -26.38,-107.4 26.74,106.29 126.42,-31.79 2.17,-4.07 -153.12,-74.56 z"
     fill="#231f20"
     id="path8" />
  <rect
     x="25.310307"
     y="40.718445"
     width="131.08"
     height="110.3"
     transform="rotate(-14.12)"
     fill="#ffffff"
     id="rect10" />
  <path
     d="m 61.38449,140.79062 a 0.48,0.48 0 0 1 -0.26,-0.07 0.56,0.56 0 0 1 -0.23,-0.31 l -26.9,-107 a 0.51,0.51 0 0 1 0.36,-0.61 l 127.12,-31.9999998 a 0.51,0.51 0 0 1 0.38,0.06 0.5,0.5 0 0 1 0.23,0.3 l 26.9,106.9999998 a 0.5,0.5 0 0 1 -0.36,0.61 l -127.12,32 z m -26.3,-107.1 26.66,106 126.15,-31.71 -26.66,-105.9999998 z"
     fill="#231f20"
     id="path12" />
  <circle
     cx="59.784496"
     cy="36.280624"
     r="3.5999999"
     fill="#231f20"
     id="circle14" />
  <path
     d="m 59.78449,40.38062 a 4.1,4.1 0 1 1 4,-5.1 v 0 a 4.1,4.1 0 0 1 -3,5 3.87,3.87 0 0 1 -1,0.1 z m 0,-7.2 a 2.84,2.84 0 0 0 -0.76,0.1 3.07,3.07 0 1 0 0.76,-0.1 z"
     fill="#231f20"
     id="path16" />
  <rect
     x="47.019611"
     y="33.923615"
     width="4.3200002"
     height="16.790001"
     rx="2.1600001"
     transform="rotate(-14.12)"
     fill="#ffffff"
     id="rect18" />
  <path
     d="m 59.53449,37.76062 a 2.67,2.67 0 0 1 -2.58,-2 l -3.05,-12.1 a 2.6606202,2.6606202 0 1 1 5.16,-1.3 l 3,12.1 a 2.66,2.66 0 0 1 -1.91,3.22 v 0 a 2.8,2.8 0 0 1 -0.62,0.08 z m 0.52,-0.57 z m -3.57,-15.85 a 1.83,1.83 0 0 0 -0.4,0 1.66,1.66 0 0 0 -1.21,2 l 3.05,12.1 a 1.66,1.66 0 0 0 2,1.21 v 0 a 1.67,1.67 0 0 0 1,-0.76 1.64,1.64 0 0 0 0.18,-1.26 l -3,-12.09 a 1.66,1.66 0 0 0 -1.62,-1.2 z"
     fill="#231f20"
     id="path20" />
  <circle
     cx="80.014488"
     cy="31.190619"
     r="3.5999999"
     fill="#231f20"
     id="circle22" />
  <path
     d="m 80.01449,35.29062 a 4.08,4.08 0 1 1 1,-0.12 4.34,4.34 0 0 1 -1,0.12 z m 0,-7.19 a 3.29,3.29 0 0 0 -0.76,0.09 3.11,3.11 0 1 0 0.76,-0.09 z"
     fill="#231f20"
     id="path24" />
  <rect
     x="67.877617"
     y="33.930511"
     width="4.3200002"
     height="16.790001"
     rx="2.1600001"
     transform="rotate(-14.12)"
     fill="#ffffff"
     id="rect26" />
  <path
     d="m 79.76449,32.67062 a 2.67,2.67 0 0 1 -2.58,-2 l -3.03,-12.11 a 2.6606202,2.6606202 0 0 1 5.16,-1.3 l 3,12.1 a 2.67,2.67 0 0 1 -1.93,3.23 v 0 a 2.8,2.8 0 0 1 -0.62,0.08 z m 0.52,-0.57 z m -3.57,-15.85 a 1.83,1.83 0 0 0 -0.4,0 1.67,1.67 0 0 0 -1.21,2 l 3.05,12.16 a 1.66,1.66 0 1 0 3.21,-0.81 l -3,-12.09 a 1.67,1.67 0 0 0 -1.65,-1.26 z"
     fill="#231f20"
     id="path28" />
  <circle
     cx="100.24448"
     cy="26.100622"
     r="3.5999999"
     fill="#231f20"
     id="circle30" />
  <path
     d="m 100.24449,30.20062 a 4.08,4.08 0 1 1 1,-0.12 4.34,4.34 0 0 1 -1,0.12 z m 0,-7.19 a 3.29,3.29 0 0 0 -0.76,0.09 3.11,3.11 0 0 0 -2.25,3.76 3.1,3.1 0 1 0 6,-1.51 v 0 a 3.05,3.05 0 0 0 -1.41,-1.9 3.1,3.1 0 0 0 -1.58,-0.47 z"
     fill="#231f20"
     id="path32" />
  <rect
     x="88.735634"
     y="33.927406"
     width="4.3200002"
     height="16.790001"
     rx="2.1600001"
     transform="rotate(-14.12)"
     fill="#ffffff"
     id="rect34" />
  <path
     d="m 99.98449,27.58062 a 2.66,2.66 0 0 1 -1.36,-0.38 2.6,2.6 0 0 1 -1.21,-1.63 l -3,-12.1 a 2.66,2.66 0 1 1 5.16,-1.29 l 3,12.09 a 2.64,2.64 0 0 1 -1.93,3.23 2.82,2.82 0 0 1 -0.66,0.08 z m -3,-16.42 a 1.4,1.4 0 0 0 -0.41,0.06 1.66,1.66 0 0 0 -1.21,2 l 3,12.1 a 1.57,1.57 0 0 0 0.75,1 1.64,1.64 0 0 0 1.26,0.19 v 0 a 1.67,1.67 0 0 0 1,-0.76 1.61,1.61 0 0 0 0.18,-1.25 l -3,-12.1 a 1.67,1.67 0 0 0 -0.76,-1 1.6,1.6 0 0 0 -0.84,-0.24 z"
     fill="#231f20"
     id="path36" />
  <circle
     cx="120.47449"
     cy="21.02062"
     r="3.5999999"
     fill="#231f20"
     id="circle38" />
  <path
     d="m 120.47449,25.11062 a 4.1,4.1 0 1 1 4,-5.09 v 0 a 4.1,4.1 0 0 1 -3,5 4.34,4.34 0 0 1 -1,0.09 z m 0,-7.19 a 3.29,3.29 0 0 0 -0.76,0.09 3.1,3.1 0 0 0 -2.24,3.76 3.1,3.1 0 0 0 3.75,2.21 3.09,3.09 0 0 0 2.25,-3.76 v 0 a 3.1,3.1 0 0 0 -3,-2.3 z"
     fill="#231f20"
     id="path40" />
  <rect
     x="109.59364"
     y="33.924301"
     width="4.3200002"
     height="16.790001"
     rx="2.1600001"
     transform="rotate(-14.12)"
     fill="#ffffff"
     id="rect42" />
  <path
     d="m 120.21449,22.49062 a 2.64,2.64 0 0 1 -1.36,-0.38 2.6,2.6 0 0 1 -1.21,-1.63 l -3.05,-12.0999998 a 2.68,2.68 0 0 1 0.3,-2 2.63,2.63 0 0 1 1.63,-1.21 2.69,2.69 0 0 1 2,0.29 2.65,2.65 0 0 1 1.21,1.64 l 3,12.0999998 a 2.64,2.64 0 0 1 -1.93,3.22 v 0 a 2.36,2.36 0 0 1 -0.59,0.07 z m -3.06,-16.4099998 a 1.37,1.37 0 0 0 -0.4,0 1.65,1.65 0 0 0 -1,0.75 1.69,1.69 0 0 0 -0.19,1.26 l 3.05,12.0999998 a 1.62,1.62 0 0 0 0.75,1 1.68,1.68 0 0 0 1.26,0.18 v 0 a 1.65,1.65 0 0 0 1.2,-2 l -3,-12.0999998 a 1.66,1.66 0 0 0 -1.67,-1.19 z"
     fill="#231f20"
     id="path44" />
  <circle
     cx="140.7045"
     cy="15.930621"
     r="3.5999999"
     fill="#231f20"
     id="circle46" />
  <path
     d="m 140.70449,19.98062 a 4.1,4.1 0 1 1 4,-5.09 v 0 a 4.1,4.1 0 0 1 -3,5 4.34,4.34 0 0 1 -1,0.09 z m 0,-7.19 a 2.84,2.84 0 0 0 -0.76,0.1 3.09,3.09 0 1 0 3.76,2.24 v 0 a 3.1,3.1 0 0 0 -3,-2.3 z"
     fill="#231f20"
     id="path48" />
  <rect
     x="130.45134"
     y="33.923637"
     width="4.3200002"
     height="16.790001"
     rx="2.1600001"
     transform="rotate(-14.12)"
     fill="#ffffff"
     id="rect50" />
  <path
     d="m 140.44449,17.40062 a 2.65,2.65 0 0 1 -2.57,-2 l -3.05,-12.0899998 a 2.6606202,2.6606202 0 0 1 5.16,-1.3 l 3,12.0999998 a 2.65,2.65 0 0 1 -1.93,3.22 v 0 a 2.36,2.36 0 0 1 -0.61,0.07 z m 0.53,-0.56 z m -3.57,-15.8599998 a 1.83,1.83 0 0 0 -0.4,0.05 1.66,1.66 0 0 0 -1.21,2 l 3.05,12.0999998 a 1.66,1.66 0 0 0 3.21,-0.81 l -3,-12.0999998 a 1.66,1.66 0 0 0 -1.65,-1.24 z"
     fill="#231f20"
     id="path52" />
  <line
     x1="61.384487"
     y1="140.29062"
     x2="58.864498"
     y2="145.01062"
     fill="#ffffff"
     id="line54" />
  <path
     d="m 58.86449,145.51062 a 0.53,0.53 0 0 1 -0.24,-0.06 0.5,0.5 0 0 1 -0.2,-0.68 l 2.52,-4.71 a 0.49,0.49 0 0 1 0.67,-0.21 0.5,0.5 0 0 1 0.21,0.68 l -2.52,4.72 a 0.52,0.52 0 0 1 -0.44,0.26 z"
     fill="#231f20"
     id="path56" />
  <circle
     cx="58.18449"
     cy="56.420624"
     r="1.86"
     fill="#d1d3d4"
     id="circle58" />
  <path
     d="m 150.56449,34.16062 a 3.62,3.62 0 0 1 -2.27,-0.13 3,3 0 0 0 -1.92,-0.12 2.94,2.94 0 0 0 -1.63,1 3.63,3.63 0 0 1 -1.94,1.19 3.59,3.59 0 0 1 -2.26,-0.13 3,3 0 0 0 -1.92,-0.12 2.94,2.94 0 0 0 -1.63,1 3.64,3.64 0 0 1 -1.93,1.19 3.69,3.69 0 0 1 -2.27,-0.13 2.88,2.88 0 0 0 -1.91,-0.12 3,3 0 0 0 -1.64,1 3.6,3.6 0 0 1 -1.93,1.19 3.69,3.69 0 0 1 -2.27,-0.13 3.15,3.15 0 0 0 -3.54,0.89 3.57,3.57 0 0 1 -1.94,1.24 3.53,3.53 0 0 1 -2.26,-0.13 3.15,3.15 0 0 0 -3.54,0.89 3.79,3.79 0 0 1 -4.2,1.06 3,3 0 0 0 -1.92,-0.12 2.94,2.94 0 0 0 -1.63,1 3.78,3.78 0 0 1 -4.2,1.06 3.15,3.15 0 0 0 -3.54,0.89 3.79,3.79 0 0 1 -4.2,1.06 2.92,2.92 0 0 0 -1.92,-0.12 2.89,2.89 0 0 0 -1.63,1 3.76,3.76 0 0 1 -4.2,1 3.18,3.18 0 0 0 -3.54,0.9 3.57,3.57 0 0 1 -1.94,1.18 3.53,3.53 0 0 1 -2.26,-0.13 3.15,3.15 0 0 0 -3.54,0.89 3.61,3.61 0 0 1 -1.89,1.23 3.51,3.51 0 0 1 -2.26,-0.13 3,3 0 0 0 -1.92,-0.12 0.31408598,0.31408598 0 1 1 -0.15,-0.61 3.51,3.51 0 0 1 2.26,0.13 3.16,3.16 0 0 0 3.55,-0.89 3.64,3.64 0 0 1 1.93,-1.19 3.69,3.69 0 0 1 2.27,0.13 3.15,3.15 0 0 0 3.54,-0.89 3.64,3.64 0 0 1 1.93,-1.19 3.69,3.69 0 0 1 2.27,0.13 3.15,3.15 0 0 0 3.54,-0.89 3.61,3.61 0 0 1 1.89,-1.14 3.52,3.52 0 0 1 2.26,0.13 3,3 0 0 0 1.92,0.12 3,3 0 0 0 1.63,-1 3.78,3.78 0 0 1 4.2,-1.06 3.15,3.15 0 0 0 3.54,-0.89 3.67,3.67 0 0 1 1.94,-1.19 3.58,3.58 0 0 1 2.26,0.13 3,3 0 0 0 1.92,0.12 2.94,2.94 0 0 0 1.63,-1 3.64,3.64 0 0 1 1.93,-1.19 3.69,3.69 0 0 1 2.27,0.13 3.15,3.15 0 0 0 3.54,-0.89 3.63,3.63 0 0 1 1.94,-1.19 3.58,3.58 0 0 1 2.26,0.14 3.19,3.19 0 0 0 3.55,-0.9 3.8,3.8 0 0 1 4.2,-1.05 3,3 0 0 0 1.91,0.12 3,3 0 0 0 1.63,-1 3.55,3.55 0 0 1 1.94,-1.19 3.51,3.51 0 0 1 2.26,0.13 3,3 0 0 0 1.92,0.12 2.94,2.94 0 0 0 1.63,-1 3.8,3.8 0 0 1 4.21,-1.06 3,3 0 0 0 1.91,0.12 3,3 0 0 0 1.64,-1 3.52,3.52 0 0 1 1.93,-1.19 0.33,0.33 0 0 1 0.39,0.23 0.31,0.31 0 0 1 -0.21,0.31 3,3 0 0 0 -1.64,1 3.6,3.6 0 0 1 -1.95,1.18 z"
     fill="#d1d3d4"
     id="path60" />
  <path
     d="m 152.57449,42.15062 a 3.55,3.55 0 0 1 -2.27,-0.13 2.93,2.93 0 0 0 -1.92,-0.11 2.89,2.89 0 0 0 -1.63,1 3.57,3.57 0 0 1 -1.94,1.18 3.53,3.53 0 0 1 -2.26,-0.11 3.14,3.14 0 0 0 -3.55,0.9 3.8,3.8 0 0 1 -4.2,1 3,3 0 0 0 -1.91,-0.12 3,3 0 0 0 -1.64,1 3.77,3.77 0 0 1 -4.19,1.06 3,3 0 0 0 -1.92,-0.12 2.94,2.94 0 0 0 -1.63,1 3.64,3.64 0 0 1 -1.93,1.28 3.69,3.69 0 0 1 -2.27,-0.13 3.15,3.15 0 0 0 -3.54,0.89 3.79,3.79 0 0 1 -4.2,1.06 2.92,2.92 0 0 0 -1.92,-0.12 2.89,2.89 0 0 0 -1.63,1 3.8,3.8 0 0 1 -4.2,1 3.18,3.18 0 0 0 -3.54,0.9 3.61,3.61 0 0 1 -1.94,1.18 3.52,3.52 0 0 1 -2.26,-0.13 3,3 0 0 0 -1.92,-0.12 2.94,2.94 0 0 0 -1.63,1 3.78,3.78 0 0 1 -4.2,1.06 3.15,3.15 0 0 0 -3.54,0.89 3.79,3.79 0 0 1 -4.2,1.06 2.89,2.89 0 0 0 -1.91,-0.12 2.94,2.94 0 0 0 -1.63,1 3.67,3.67 0 0 1 -1.94,1.19 3.58,3.58 0 0 1 -2.26,-0.14 2.93,2.93 0 0 0 -1.92,-0.11 0.32,0.32 0 0 1 -0.38,-0.23 0.33,0.33 0 0 1 0.23,-0.39 3.65,3.65 0 0 1 2.26,0.13 2.92,2.92 0 0 0 1.92,0.12 2.89,2.89 0 0 0 1.63,-1 3.8,3.8 0 0 1 4.2,-1 3.15,3.15 0 0 0 3.54,-0.89 3.78,3.78 0 0 1 4.2,-1.06 3,3 0 0 0 1.91,0.12 3,3 0 0 0 1.64,-1 3.6,3.6 0 0 1 1.93,-1.19 3.65,3.65 0 0 1 2.26,0.13 3,3 0 0 0 1.92,0.12 2.94,2.94 0 0 0 1.63,-1 3.64,3.64 0 0 1 1.93,-1.22 3.69,3.69 0 0 1 2.27,0.13 3.15,3.15 0 0 0 3.54,-0.89 3.61,3.61 0 0 1 1.94,-1.18 3.51,3.51 0 0 1 2.26,0.13 2.93,2.93 0 0 0 1.92,0.11 2.89,2.89 0 0 0 1.63,-1 3.8,3.8 0 0 1 4.2,-1.05 3.15,3.15 0 0 0 3.54,-0.89 3.63,3.63 0 0 1 1.94,-1.19 3.59,3.59 0 0 1 2.26,0.13 3.16,3.16 0 0 0 3.55,-0.89 3.64,3.64 0 0 1 1.93,-1.19 3.69,3.69 0 0 1 2.27,0.13 3,3 0 0 0 1.91,0.12 3,3 0 0 0 1.64,-1 3.6,3.6 0 0 1 1.93,-1.19 3.69,3.69 0 0 1 2.27,0.13 3.15,3.15 0 0 0 3.54,-0.89 3.63,3.63 0 0 1 1.94,-1.19 3.69,3.69 0 0 1 2.27,0.13 2.88,2.88 0 0 0 1.91,0.12 3,3 0 0 0 1.64,-1 3.64,3.64 0 0 1 1.93,-1.19 0.32,0.32 0 0 1 0.39,0.23 0.33,0.33 0 0 1 -0.22,0.38 3,3 0 0 0 -1.64,1 3.53,3.53 0 0 1 -1.94,1.17 z"
     fill="#d1d3d4"
     id="path62" />
  <path
     d="m 120.29449,56.88062 a 3.26,3.26 0 0 0 -1.16,0.94 2.47,2.47 0 0 1 -3.07,0.78 2.93,2.93 0 0 0 -2.07,-0.19 3,3 0 0 0 -1.72,1.14 2.37,2.37 0 0 1 -1.4,0.94 2.34,2.34 0 0 1 -1.68,-0.17 3,3 0 0 0 -2.06,-0.19 3,3 0 0 0 -1.73,1.15 2.37,2.37 0 0 1 -1.4,0.94 2.34,2.34 0 0 1 -1.68,-0.17 3,3 0 0 0 -2.06,-0.19 3,3 0 0 0 -1.73,1.15 2.37,2.37 0 0 1 -1.4,0.94 2.4,2.4 0 0 1 -1.68,-0.17 3.13,3.13 0 0 0 -3.79,1 2.33,2.33 0 0 1 -1.4,0.94 2.36,2.36 0 0 1 -1.68,-0.16 2.94,2.94 0 0 0 -2.06,-0.2 3.07,3.07 0 0 0 -1.72,1.15 2.41,2.41 0 0 1 -1.4,0.94 2.34,2.34 0 0 1 -1.68,-0.17 3,3 0 0 0 -2.06,-0.19 3,3 0 0 0 -1.73,1.15 2.37,2.37 0 0 1 -1.4,0.94 2.41,2.41 0 0 1 -1.68,-0.17 3,3 0 0 0 -2.06,-0.19 0.31,0.31 0 0 0 -0.23,0.38 0.32,0.32 0 0 0 0.39,0.23 2.37,2.37 0 0 1 1.67,0.17 3.12,3.12 0 0 0 3.79,-0.95 2.34,2.34 0 0 1 1.4,-1 2.4,2.4 0 0 1 1.68,0.17 3.13,3.13 0 0 0 3.79,-1 2.37,2.37 0 0 1 1.4,-0.94 2.41,2.41 0 0 1 1.68,0.16 2.94,2.94 0 0 0 2.06,0.2 3,3 0 0 0 1.72,-1.15 2.41,2.41 0 0 1 1.4,-0.94 2.34,2.34 0 0 1 1.68,0.17 3,3 0 0 0 2.06,0.19 3,3 0 0 0 1.73,-1.15 2.37,2.37 0 0 1 1.4,-0.94 2.4,2.4 0 0 1 1.68,0.17 3.13,3.13 0 0 0 3.79,-1 2.47,2.47 0 0 1 3.08,-0.78 3.13,3.13 0 0 0 3.79,-1 2.37,2.37 0 0 1 1.4,-0.83 2.41,2.41 0 0 1 1.68,0.16 2.94,2.94 0 0 0 2.06,0.2 3,3 0 0 0 1.72,-1.15 2.82,2.82 0 0 1 0.83,-0.73 z"
     fill="#d1d3d4"
     id="path64" />
  <circle
     cx="65.174492"
     cy="84.200623"
     r="1.86"
     fill="#d1d3d4"
     id="circle66" />
  <path
     d="m 137.03449,65.21062 a 3.7,3.7 0 0 0 -1.25,1 3,3 0 0 1 -1.64,1 3,3 0 0 1 -1.91,-0.12 3.78,3.78 0 0 0 -4.2,1.06 3,3 0 0 1 -1.63,1 3,3 0 0 1 -1.91,-0.12 3.8,3.8 0 0 0 -4.2,1 3.16,3.16 0 0 1 -3.55,0.89 3.79,3.79 0 0 0 -4.2,1.06 3.15,3.15 0 0 1 -3.54,0.89 3.69,3.69 0 0 0 -2.27,-0.13 3.6,3.6 0 0 0 -1.93,1.19 3,3 0 0 1 -1.63,1 3,3 0 0 1 -1.92,-0.12 3.53,3.53 0 0 0 -2.26,-0.13 3.57,3.57 0 0 0 -1.94,1.19 3.15,3.15 0 0 1 -3.54,0.89 3.8,3.8 0 0 0 -4.2,1.05 2.89,2.89 0 0 1 -1.63,1 2.93,2.93 0 0 1 -1.92,-0.11 3.75,3.75 0 0 0 -4.19,1 3,3 0 0 1 -1.63,1 2.92,2.92 0 0 1 -1.92,-0.12 3.66,3.66 0 0 0 -2.26,-0.13 0.32,0.32 0 0 0 -0.23,0.38 0.31,0.31 0 0 0 0.38,0.23 3,3 0 0 1 1.91,0.12 3.8,3.8 0 0 0 4.2,-1 3.16,3.16 0 0 1 3.55,-0.89 3.79,3.79 0 0 0 4.2,-1.06 3.15,3.15 0 0 1 3.54,-0.89 3.79,3.79 0 0 0 4.2,-1.06 3.15,3.15 0 0 1 3.54,-0.89 3.55,3.55 0 0 0 2.27,0.13 3.48,3.48 0 0 0 1.93,-1.19 3.16,3.16 0 0 1 3.55,-0.89 3.53,3.53 0 0 0 2.26,0.13 3.57,3.57 0 0 0 1.94,-1.18 3.18,3.18 0 0 1 3.54,-0.9 3.55,3.55 0 0 0 2.27,0.13 3.61,3.61 0 0 0 1.94,-1.18 3.15,3.15 0 0 1 3.54,-0.89 3.79,3.79 0 0 0 4.2,-1.06 3.15,3.15 0 0 1 3.54,-0.89 3.78,3.78 0 0 0 4.2,-1.06 3.2,3.2 0 0 1 1,-0.76 z"
     fill="#d1d3d4"
     id="path68" />
  <path
     d="m 122.46449,77.89062 -0.16,0.17 a 2.94,2.94 0 0 1 -1.63,1 3,3 0 0 1 -1.92,-0.12 3.79,3.79 0 0 0 -4.2,1.06 3,3 0 0 1 -1.63,1 3,3 0 0 1 -1.91,-0.12 3.8,3.8 0 0 0 -4.2,1 3.19,3.19 0 0 1 -3.55,0.9 3.58,3.58 0 0 0 -2.26,-0.14 3.63,3.63 0 0 0 -1.94,1.19 2.94,2.94 0 0 1 -1.63,1 2.88,2.88 0 0 1 -1.91,-0.12 3.69,3.69 0 0 0 -2.27,-0.13 3.64,3.64 0 0 0 -1.93,1.19 3.15,3.15 0 0 1 -3.54,0.89 3.78,3.78 0 0 0 -4.2,1.06 3.16,3.16 0 0 1 -3.55,0.89 3.52,3.52 0 0 0 -2.26,-0.13 0.31408598,0.31408598 0 1 0 0.15,0.61 2.92,2.92 0 0 1 1.92,0.12 3.65,3.65 0 0 0 2.26,0.13 3.6,3.6 0 0 0 1.93,-1.19 3.16,3.16 0 0 1 3.55,-0.89 3.79,3.79 0 0 0 4.2,-1.06 3.15,3.15 0 0 1 3.54,-0.89 3.8,3.8 0 0 0 4.2,-1 2.89,2.89 0 0 1 1.63,-1 2.93,2.93 0 0 1 1.92,0.11 3.75,3.75 0 0 0 4.19,-1.05 3,3 0 0 1 1.63,-1 2.92,2.92 0 0 1 1.92,0.12 3.69,3.69 0 0 0 2.27,0.13 3.64,3.64 0 0 0 1.93,-1.19 2.94,2.94 0 0 1 1.63,-1 3,3 0 0 1 1.92,0.12 3.58,3.58 0 0 0 2.26,0.13 3.49,3.49 0 0 0 1.82,-1.07 z"
     fill="#d1d3d4"
     id="path70" />
  <circle
     cx="70.384483"
     cy="104.93062"
     r="1.86"
     fill="#d1d3d4"
     id="circle72" />
  <path
     d="m 81.15449,101.91062 a 2.83,2.83 0 0 1 1.91,0.12 3.79,3.79 0 0 0 4.2,-1.06 3.15,3.15 0 0 1 3.54,-0.89 3.69,3.69 0 0 0 2.27,0.13 3.64,3.64 0 0 0 1.93,-1.19 3.15,3.15 0 0 1 3.54,-0.89 3.55,3.55 0 0 0 2.27,0.13 3.48,3.48 0 0 0 1.93,-1.19 3.16,3.16 0 0 1 3.55,-0.89 3.53,3.53 0 0 0 2.26,0.13 3.57,3.57 0 0 0 1.94,-1.18 3.18,3.18 0 0 1 3.54,-0.9 3.76,3.76 0 0 0 4.2,-1.05 3.16,3.16 0 0 1 3.55,-0.89 3.79,3.79 0 0 0 4.2,-1.06 2.94,2.94 0 0 1 1.63,-1 c 0.11,0 0.2,0 0.3,-0.05 0,-0.21 0,-0.42 0,-0.63 a 3.83,3.83 0 0 0 -0.43,0.07 3.57,3.57 0 0 0 -1.94,1.18 3.13,3.13 0 0 1 -3.54,0.9 3.8,3.8 0 0 0 -4.2,1 3,3 0 0 1 -1.63,1 2.92,2.92 0 0 1 -1.92,-0.12 3.69,3.69 0 0 0 -2.27,-0.13 3.64,3.64 0 0 0 -1.93,1.19 2.94,2.94 0 0 1 -1.63,1 2.88,2.88 0 0 1 -1.91,-0.12 3.69,3.69 0 0 0 -2.27,-0.13 3.6,3.6 0 0 0 -1.93,1.19 3,3 0 0 1 -1.63,1 3,3 0 0 1 -1.92,-0.12 3.53,3.53 0 0 0 -2.26,-0.13 3.57,3.57 0 0 0 -1.94,1.19 3.15,3.15 0 0 1 -3.54,0.89 3.8,3.8 0 0 0 -4.2,1.05 3.18,3.18 0 0 1 -3.54,0.9 3.61,3.61 0 0 0 -2.27,-0.14 0.32015621,0.32015621 0 0 0 0.16,0.62 z"
     fill="#d1d3d4"
     id="path74" />
  <path
     d="m 24.98449,95.50062 c 7.62,-9.91 17,-18.34 26.89,-25.93 2.45,-1.88 5.1,-3.77 8.17,-4.09 3.07,-0.32 6.61,1.61 7,4.7 0.28,2.44 -1.38,4.6 -2.94,6.47 l -20.44,24.41 a 30.14,30.14 0 0 1 -0.43,33"
     fill="#ffffff"
     id="path76" />
  <path
     d="m 43.15449,134.60062 a 0.52,0.52 0 0 1 -0.29,-0.09 0.51,0.51 0 0 1 -0.12,-0.7 c 6.53,-9.28 6.71,-22.94 0.42,-32.47 a 0.51,0.51 0 0 1 0,-0.6 l 20.44,-24.41 c 1.56,-1.88 3.07,-3.89 2.82,-6.09 -0.32,-2.86 -3.65,-4.54 -6.41,-4.26 -2.76,0.28 -5.4,2.06 -7.92,4 -11.51,8.82 -20,17 -26.8,25.83 a 0.5,0.5 0 1 1 -0.79,-0.61 c 6.83,-8.87 15.4,-17.14 27,-26 2.65,-2 5.28,-3.87 8.43,-4.19 3.15,-0.32 7.11,1.69 7.51,5.14 0.29,2.59 -1.35,4.8 -3.06,6.84 l -20.2,24.13 a 30.46,30.46 0 0 1 -0.64,33.29 0.49,0.49 0 0 1 -0.39,0.19 z"
     fill="#231f20"
     id="path78" />
  <path
     d="m 227.28449,147.90062 -30.57,23.38 c 0,0 -16.69,-29.26 -28.4,-37.89 a 140.83,140.83 0 0 0 -25.77,-14.48 c -1.41,-3.63 -18,-20.54 -11.65,-20.2 6.35,0.34 35.3,14.71 38.85,14.11 3.55,-0.6 9.56,-7.41 5.43,-14.21 -4.13,-6.8 -7.27,-13.79 -14.59,-11.37 -11.12,3.68 -21.43,10.31 -26.43,10.44 -5,0.13 -10.81,-4.11 -5.57,-11.17 6,-8.07 21.89,-18.16 36.25,-22.33 14.36,-4.17 36.18,19.18 45.51,39 8.95,11.44 14.41,34.93 16.94,44.72 z"
     fill="#ffffff"
     id="path80" />
  <path
     d="m 196.71449,171.78062 h -0.1 a 0.51,0.51 0 0 1 -0.33,-0.24 c -0.17,-0.29 -16.77,-29.27 -28.27,-37.74 a 141.65,141.65 0 0 0 -25.66,-14.42 0.5,0.5 0 0 1 -0.27,-0.28 c -0.44,-1.13 -2.64,-3.87 -5,-6.77 -5.47,-6.82 -9,-11.43 -8,-13.34 a 1.71,1.71 0 0 1 1.79,-0.77 c 3.33,0.18 12.46,4 21.29,7.72 7.8,3.27 15.87,6.65 17.45,6.39 1.58,-0.26 4.26,-2.3 5.57,-5.17 a 8.53,8.53 0 0 0 -0.48,-8.28 c -0.42,-0.7 -0.84,-1.39 -1.24,-2.08 -3.53,-6 -6.58,-11.12 -12.77,-9.08 a 135.26,135.26 0 0 0 -14.18,5.94 c -5.34,2.49 -9.57,4.46 -12.36,4.53 -3.19,0.08 -6.28,-1.51 -7.51,-3.88 -0.85,-1.62 -1.27,-4.34 1.51,-8.09 6.21,-8.37 22.59,-18.46 36.52,-22.51 6.71,-2 15.63,1.83 25.12,10.62 a 97.87,97.87 0 0 1 20.99,28.65 c 8.28,10.59 13.52,31.19 16.34,42.26 0.23,0.93 0.45,1.78 0.65,2.55 a 0.5,0.5 0 0 1 -0.18,0.52 l -30.57,23.37 a 0.5,0.5 0 0 1 -0.31,0.1 z m -53.79,-53.25 a 142.07,142.07 0 0 1 25.69,14.45 c 11,8.08 25.93,33.53 28.25,37.55 l 29.86,-22.84 c -0.18,-0.69 -0.37,-1.43 -0.57,-2.23 -2.8,-11 -8,-31.52 -16.19,-41.94 l -0.06,-0.1 c -8.73,-18.59 -30.56,-42.93 -44.91,-38.77 -13.75,4 -29.89,13.93 -36,22.15 -2,2.64 -2.46,5.07 -1.44,7 1.02,1.93 3.76,3.41 6.6,3.34 2.59,-0.07 6.94,-2.09 12,-4.44 a 133.81,133.81 0 0 1 14.29,-6 c 6.95,-2.3 10.35,3.44 13.94,9.52 0.4,0.68 0.81,1.38 1.23,2.07 a 9.6,9.6 0 0 1 0.54,9.22 c -1.32,2.89 -4,5.36 -6.31,5.74 -1.74,0.3 -8,-2.24 -18,-6.46 -8.34,-3.5 -17.79,-7.48 -20.95,-7.64 -0.33,0 -0.74,0 -0.85,0.23 -0.76,1.47 4.45,8 7.89,12.26 a 50.84,50.84 0 0 1 4.99,6.89 z"
     fill="#231f20"
     id="path82" />
  <polygon
     points="186.25,144.79 180.69,142.61 186.49,141.15 197.37,138.4 196.71,148.9 "
     fill="#ffffff"
     id="polygon84"
     transform="translate(-80.84551,-45.01938)" />
  <path
     d="m 115.85449,104.38062 h -0.18 l -16,-6.3 a 0.49,0.49 0 0 1 -0.31,-0.49 0.5,0.5 0 0 1 0.37,-0.46 l 16.68,-4.21 a 0.5,0.5 0 0 1 0.62,0.52 l -0.67,10.51 a 0.51,0.51 0 0 1 -0.23,0.39 0.5,0.5 0 0 1 -0.28,0.04 z m -14.37,-6.69 13.92,5.48 0.58,-9.14 z"
     fill="#231f20"
     id="path86" />
  <path
     d="m 197.39449,109.08062 -81.54,-5.2 a 15.72,15.72 0 0 1 -0.69,-5.31 16,16 0 0 1 1.36,-5.19 l 81.54,5.2 z"
     fill="#687bfd"
     id="path88"
     style="fill:#f54b28;fill-opacity:1" />
  <path
     d="m 197.39449,109.58062 v 0 l -81.54,-5.2 a 0.49,0.49 0 0 1 -0.44,-0.34 14.45,14.45 0 0 1 0.69,-10.88 0.52,0.52 0 0 1 0.49,-0.28 l 81.53,5.2 a 0.5,0.5 0 0 1 0.47,0.53 l -0.67,10.5 a 0.49,0.49 0 0 1 -0.17,0.34 0.51,0.51 0 0 1 -0.36,0.13 z m -81.16,-6.17 80.69,5.14 0.61,-9.51 -80.69,-5.14 a 13.39,13.39 0 0 0 -0.61,9.51 z"
     fill="#231f20"
     id="path90" />
  <path
     d="m 210.43844,109.89348 -13.04349,-0.83205 0.66972,-10.498662 13.04349,0.832055 a 2.92,2.92 0 0 1 2.72818,3.099967 l -0.29857,4.68049 a 2.92,2.92 0 0 1 -3.09933,2.7182 z"
     fill="#ffffff"
     id="path92" />
  <path
     d="m 210.62449,110.42062 h -0.22 l -13,-0.83 a 0.5,0.5 0 0 1 -0.47,-0.53 l 0.67,-10.51 a 0.48,0.48 0 0 1 0.53,-0.46 l 13,0.83 a 3.4,3.4 0 0 1 3.19,3.63 l -0.29,4.68 a 3.45,3.45 0 0 1 -3.41,3.2 z m -12.7,-1.81 12.54,0.8 a 2.39,2.39 0 0 0 1.75,-0.6 2.36,2.36 0 0 0 0.82,-1.66 l 0.3,-4.68 a 2.41,2.41 0 0 0 -2.26,-2.56 l -12.54,-0.8 z"
     fill="#231f20"
     id="path94" />
  <rect
     x="206.70912"
     y="85.78466"
     width="1.5"
     height="10.52"
     transform="rotate(3.65)"
     fill="#231f20"
     id="rect96" />
  <rect
     x="209.69696"
     y="85.783775"
     width="1.5"
     height="10.52"
     transform="rotate(3.65)"
     fill="#231f20"
     id="rect98" />
  <polygon
     points="180.69,142.61 186.49,141.15 186.25,144.79 "
     fill="#687bfd"
     id="polygon100"
     style="fill:#f54b28;fill-opacity:1"
     transform="translate(-80.84551,-45.01938)" />
  <path
     d="m 105.40449,100.27062 a 0.57,0.57 0 0 1 -0.18,0 l -5.56,-2.19 a 0.49,0.49 0 0 1 -0.31,-0.49 0.5,0.5 0 0 1 0.37,-0.46 l 5.79,-1.46 a 0.49,0.49 0 0 1 0.44,0.1 0.49,0.49 0 0 1 0.18,0.42 l -0.23,3.65 a 0.48,0.48 0 0 1 -0.5,0.46 z m -3.92,-2.58 3.47,1.37 0.14,-2.28 z"
     fill="#231f20"
     id="path102" />
  <path
     d="m 143.27449,119.08062 c 0,0 -15.57,-6.49 -19.14,-9 -5.8,-4.07 0.87,-12.54 5,-11.52 2.91,0.71 18.61,6.14 21.83,7.38"
     fill="#ffffff"
     id="path104" />
  <path
     d="m 143.27449,119.58062 a 0.63,0.63 0 0 1 -0.19,0 c -0.64,-0.27 -15.67,-6.55 -19.24,-9.06 -2.47,-1.74 -3.15,-4.55 -1.79,-7.51 1.36,-2.96 4.52,-5.57 7.18,-4.91 2.88,0.71 18.63,6.15 21.89,7.41 a 0.49,0.49 0 0 1 0.29,0.64 0.51,0.51 0 0 1 -0.65,0.29 c -3.25,-1.26 -18.92,-6.66 -21.77,-7.37 -1.9,-0.47 -4.78,1.6 -6,4.35 a 4.8,4.8 0 0 0 1.46,6.29 c 3.48,2.44 18.89,8.88 19,8.94 a 0.5,0.5 0 0 1 0.27,0.66 0.49,0.49 0 0 1 -0.45,0.27 z"
     fill="#231f20"
     id="path106" />
  <polygon
     points="264.53,202.02 276.53,254.49 334.08,254.49 313.33,188.54 "
     fill="#231f20"
     id="polygon108"
     transform="translate(-80.84551,-45.01938)"
     style="fill:#1a212b;fill-opacity:1" />
  <path
     d="m 253.23449,209.98062 h -57.55 a 0.49,0.49 0 0 1 -0.49,-0.39 l -12,-52.47 a 0.5,0.5 0 0 1 0.36,-0.59 l 48.79,-13.48 a 0.5,0.5 0 0 1 0.61,0.33 l 20.76,66 a 0.52,0.52 0 0 1 -0.08,0.45 0.48,0.48 0 0 1 -0.4,0.15 z m -57.15,-1 h 56.47 l -20.4,-64.85 -47.87,13.23 z"
     fill="#231f20"
     id="path110" />
  <polygon
     points="95.55,198.18 81.38,254.49 138.35,254.49 144.8,203.67 "
     fill="#231f20"
     id="polygon112"
     transform="translate(-80.84551,-45.01938)"
     style="fill:#1a212b;fill-opacity:1" />
  <path
     d="M 57.50449,209.98062 H 0.50449042 a 0.51,0.51 0 0 1 -0.4,-0.19 0.51,0.51 0 0 1 -0.09,-0.43 l 14.16999958,-56.32 a 0.5,0.5 0 0 1 0.54,-0.37 l 49.26,5.49 a 0.5,0.5 0 0 1 0.44,0.56 l -6.45,50.82 a 0.51,0.51 0 0 1 -0.47,0.44 z m -56.3499996,-1 H 57.04449 l 6.33,-49.88 -48.31,-5.39 z"
     fill="#231f20"
     id="path114" />
  <rect
     x="139.69951"
     y="209.79732"
     width="58.360001"
     height="13.43"
     rx="2.8399999"
     transform="rotate(-13.16)"
     fill="#ffffff"
     id="rect116" />
  <path
     d="m 188.97449,185.47062 a 3.33,3.33 0 0 1 -3.25,-2.58 l -1.77,-7.54 a 3.36,3.36 0 0 1 0.42,-2.53 3.3,3.3 0 0 1 2.08,-1.49 l 51.29,-12 a 3.34,3.34 0 0 1 4,2.5 l 1.77,7.54 a 3.35,3.35 0 0 1 -2.49,4 l -0.12,-0.49 0.12,0.49 -51.3,12 a 3.29,3.29 0 0 1 -0.75,0.1 z m 49.53,-25.22 a 2.39,2.39 0 0 0 -0.53,0.06 l -51.3,12 a 2.38,2.38 0 0 0 -1.45,1.05 2.29,2.29 0 0 0 -0.29,1.77 l 1.76,7.54 a 2.35,2.35 0 0 0 2.81,1.75 l 51.3,-12 a 2.34,2.34 0 0 0 1.74,-2.81 l -1.76,-7.55 a 2.35,2.35 0 0 0 -2.28,-1.81 z"
     fill="#231f20"
     id="path118" />
  <circle
     cx="215.99449"
     cy="171.11063"
     r="13.23"
     fill="#ffffff"
     id="circle120" />
  <path
     d="m 215.99449,184.83062 a 13.73,13.73 0 1 1 13.72,-13.72 13.74,13.74 0 0 1 -13.72,13.72 z m 0,-26.45 a 12.73,12.73 0 1 0 12.72,12.73 12.74,12.74 0 0 0 -12.72,-12.73 z"
     fill="#231f20"
     id="path122" />
  <path
     d="m 215.99449,172.86062 a 0.48,0.48 0 0 1 -0.24,-0.06 0.52,0.52 0 0 1 -0.26,-0.38 c -0.13,-1 -0.75,-6 -0.75,-6.48 a 0.51,0.51 0 0 1 0.5,-0.5 0.5,0.5 0 0 1 0.5,0.5 v 0 c 0,0.29 0.37,3.38 0.66,5.65 l 8.47,-4.23 a 0.5,0.5 0 0 1 0.67,0.22 0.49,0.49 0 0 1 -0.22,0.67 l -9.11,4.56 a 0.59,0.59 0 0 1 -0.22,0.05 z m -0.25,-6.92 z"
     fill="#d1d3d4"
     id="path124"
     style="fill:#3a4656;fill-opacity:1" />
</svg>
