<?xml version="1.0" encoding="UTF-8" standalone="no"?>
<svg
   xmlns:dc="http://purl.org/dc/elements/1.1/"
   xmlns:cc="http://creativecommons.org/ns#"
   xmlns:rdf="http://www.w3.org/1999/02/22-rdf-syntax-ns#"
   xmlns:svg="http://www.w3.org/2000/svg"
   xmlns="http://www.w3.org/2000/svg"
   xmlns:sodipodi="http://sodipodi.sourceforge.net/DTD/sodipodi-0.dtd"
   xmlns:inkscape="http://www.inkscape.org/namespaces/inkscape"
   viewBox="0 0 326.15869 227.58656"
   version="1.1"
   id="svg97"
   sodipodi:docname="register.svg"
   width="326.15869"
   height="227.58656"
   inkscape:version="1.0.1 (3bc2e813f5, 2020-09-07, custom)">
  <metadata
     id="metadata103">
    <rdf:RDF>
      <cc:Work
         rdf:about="">
        <dc:format>image/svg+xml</dc:format>
        <dc:type
           rdf:resource="http://purl.org/dc/dcmitype/StillImage" />
        <dc:title></dc:title>
      </cc:Work>
    </rdf:RDF>
  </metadata>
  <defs
     id="defs101" />
  <sodipodi:namedview
     pagecolor="#ffffff"
     bordercolor="#666666"
     borderopacity="1"
     objecttolerance="10"
     gridtolerance="10"
     guidetolerance="10"
     inkscape:pageopacity="0"
     inkscape:pageshadow="2"
     inkscape:window-width="1920"
     inkscape:window-height="1056"
     id="namedview99"
     showgrid="false"
     fit-margin-top="0"
     fit-margin-left="0"
     fit-margin-right="0"
     fit-margin-bottom="0"
     inkscape:zoom="2.6133333"
     inkscape:cx="115.14005"
     inkscape:cy="154.22514"
     inkscape:window-x="0"
     inkscape:window-y="0"
     inkscape:window-maximized="1"
     inkscape:current-layer="svg97" />
  <g
     id="_016"
     data-name="016"
     transform="translate(-37.180008,-35.953437)">
    <ellipse
       cx="192.57001"
       cy="252.06"
       rx="155.39"
       ry="11.48"
       fill="#d1d3d4"
       id="ellipse2" />
    <path
       d="M 295.3,97.35 A 17.41,17.41 0 0 1 313,114.49 V 234.1 a 15,15 0 0 1 -15.2,14.74 H 129.29 A 15,15 0 0 1 114.09,234.1 V 94 a 15,15 0 0 1 15.2,-14.74 h 65 c 10.31,0 18.66,8.11 18.66,18.1 h 82.35 z"
       fill="#231f20"
       id="path4"
       style="fill:#1a212b;fill-opacity:1" />
    <path
       d="M 297.77,249.34 H 129.29 A 15.49,15.49 0 0 1 113.59,234.1 V 94 a 15.49,15.49 0 0 1 15.7,-15.24 h 65 c 10.39,0 18.88,8.08 19.15,18.11 h 81.86 c 10,0 18.16,7.91 18.16,17.63 v 119.6 a 15.49,15.49 0 0 1 -15.69,15.24 z M 129.29,79.75 A 14.49,14.49 0 0 0 114.59,94 v 140.1 a 14.49,14.49 0 0 0 14.7,14.24 h 168.48 a 14.49,14.49 0 0 0 14.7,-14.24 V 114.49 c 0,-9.17 -7.7,-16.64 -17.17,-16.64 H 213 a 0.5,0.5 0 0 1 -0.5,-0.5 c 0,-9.7 -8.15,-17.6 -18.16,-17.6 z"
       fill="#231f20"
       id="path6" />
    <polygon
       points="265.67,42.97 294.69,72 294.69,225.99 141.5,229.22 141.5,42.97 "
       fill="#687bfd"
       id="polygon8"
       style="fill:#f54b28;fill-opacity:1" />
    <path
       d="m 279.32,81.63 h -125.1 a 0.49,0.49 0 0 1 -0.49,-0.5 0.5,0.5 0 0 1 0.49,-0.5 h 125.1 a 0.5,0.5 0 0 1 0.49,0.5 0.49,0.49 0 0 1 -0.49,0.5 z"
       fill="#ffffff"
       id="path10" />
    <path
       d="m 279.32,101.61 h -125.1 a 0.5,0.5 0 0 1 0,-1 h 125.1 a 0.5,0.5 0 0 1 0,1 z"
       fill="#ffffff"
       id="path12" />
    <path
       d="m 279.32,121.59 h -125.1 a 0.5,0.5 0 0 1 -0.49,-0.5 0.49,0.49 0 0 1 0.49,-0.5 h 125.1 a 0.49,0.49 0 0 1 0.49,0.5 0.5,0.5 0 0 1 -0.49,0.5 z"
       fill="#ffffff"
       id="path14" />
    <path
       d="m 279.32,141.56 h -125.1 a 0.5,0.5 0 0 1 0,-1 h 125.1 a 0.5,0.5 0 0 1 0,1 z"
       fill="#ffffff"
       id="path16" />
    <path
       d="m 171.07,57.62 h -16.49 a 0.5,0.5 0 0 1 -0.5,-0.5 0.51,0.51 0 0 1 0.5,-0.5 h 16.49 a 0.5,0.5 0 0 1 0.49,0.5 0.49,0.49 0 0 1 -0.49,0.5 z"
       fill="#ffffff"
       id="path18" />
    <path
       d="m 97.72,132.42 c -2.09,0.8 -5.54,1.55 -6.43,-1.36 a 4.26,4.26 0 0 1 -0.13,-1.59 13.93,13.93 0 0 1 0.42,-2.32 38.57,38.57 0 0 1 2.21,-6.24 c 0.22,-0.51 0.65,-1.12 1.17,-0.94 0.52,0.18 0.52,0.74 0.51,1.2 0,1.32 -0.22,2.65 -0.19,4 2.78,-0.71 4.53,-3.65 7.17,-4.28 0.75,-0.18 1.65,-0.23 1.73,0.73 0.1,1.19 -2.05,2.13 -2.77,2.75 a 8.51,8.51 0 0 1 2.73,-1.59 1.71,1.71 0 0 1 0.89,-0.14 0.69,0.69 0 0 1 0.6,0.59 1,1 0 0 1 -0.32,0.66 9,9 0 0 1 -1.36,1.26 3.42,3.42 0 0 1 1.92,-1.13 1,1 0 0 1 1.06,0.28 c 0.3,0.51 -0.29,1.07 -0.8,1.36 a 3.05,3.05 0 0 1 1.44,-0.71 1.06,1.06 0 0 1 1.21,0.81 1.48,1.48 0 0 1 -0.57,1.08 c -2.74,2.67 -6.97,4.22 -10.49,5.58 z"
       fill="#ffffff"
       id="path20" />
    <path
       d="m 94.37,133.64 a 4.26,4.26 0 0 1 -1.88,-0.39 3.21,3.21 0 0 1 -1.68,-2 4.76,4.76 0 0 1 -0.15,-1.78 15.85,15.85 0 0 1 0.43,-2.4 40.11,40.11 0 0 1 2.24,-6.32 c 0.42,-1 1.11,-1.44 1.79,-1.21 0.4,0.13 0.88,0.54 0.85,1.69 0,0.56 0,1.13 -0.09,1.7 -0.09,0.57 -0.08,1 -0.1,1.56 a 11.66,11.66 0 0 0 2.84,-1.88 9.61,9.61 0 0 1 3.71,-2.19 2.23,2.23 0 0 1 1.83,0.15 1.35,1.35 0 0 1 0.52,1 1.49,1.49 0 0 1 -0.06,0.56 1.68,1.68 0 0 1 0.5,0 1.19,1.19 0 0 1 1,1.06 2.13,2.13 0 0 1 0,0.27 1.33,1.33 0 0 1 1.25,0.56 1.25,1.25 0 0 1 0.14,0.41 v 0 a 1.76,1.76 0 0 1 1.27,0.37 1.31,1.31 0 0 1 0.48,0.9 1.9,1.9 0 0 1 -0.71,1.48 c -2.69,2.65 -6.67,4.18 -10.19,5.53 l -0.47,0.18 a 10.32,10.32 0 0 1 -3.52,0.75 z m 0.41,-13.2 c -0.12,0 -0.36,0.27 -0.53,0.66 a 39.19,39.19 0 0 0 -2.19,6.16 15.87,15.87 0 0 0 -0.41,2.25 3.77,3.77 0 0 0 0.12,1.4 2.17,2.17 0 0 0 1.16,1.44 c 1.37,0.67 3.48,0 4.61,-0.4 v 0 l 0.47,-0.18 c 3.43,-1.32 7.31,-2.81 9.85,-5.31 0.19,-0.19 0.44,-0.46 0.42,-0.68 a 0.3,0.3 0 0 0 -0.13,-0.21 0.72,0.72 0 0 0 -0.53,-0.16 1.79,1.79 0 0 0 -0.75,0.32 4.52,4.52 0 0 1 -0.49,0.34 0.51,0.51 0 0 1 -0.67,-0.16 0.51,0.51 0 0 1 0.12,-0.68 l 0.43,-0.31 a 0.73,0.73 0 0 0 0.25,-0.33 c -0.05,-0.12 -0.25,-0.17 -0.54,-0.11 a 2.75,2.75 0 0 0 -0.88,0.33 c -0.27,0.25 -0.55,0.49 -0.84,0.71 a 0.5,0.5 0 0 1 -0.69,-0.72 4.06,4.06 0 0 1 0.92,-0.79 c 0.16,-0.15 0.31,-0.31 0.46,-0.48 0.15,-0.17 0.19,-0.28 0.19,-0.3 0,-0.02 -0.08,-0.11 -0.19,-0.13 a 1.44,1.44 0 0 0 -0.64,0.12 8.13,8.13 0 0 0 -1,0.44 c -0.27,0.2 -0.55,0.38 -0.82,0.55 a 8,8 0 0 0 -0.73,0.5 v 0 a 0.52,0.52 0 0 1 -0.71,-0.06 0.5,0.5 0 0 1 0,-0.7 8.82,8.82 0 0 1 1.67,-1.14 c 0.52,-0.38 1,-0.81 0.93,-1.19 0,-0.22 -0.09,-0.28 -0.11,-0.29 -0.02,-0.01 -0.31,-0.16 -1,0 a 8.73,8.73 0 0 0 -3.31,2 10.32,10.32 0 0 1 -3.84,2.28 0.51,0.51 0 0 1 -0.43,-0.09 0.51,0.51 0 0 1 -0.2,-0.38 22.53,22.53 0 0 1 0.1,-2.34 c 0,-0.55 0.08,-1.1 0.09,-1.65 0.01,-0.55 -0.08,-0.69 -0.17,-0.71 -0.09,-0.02 0.02,0 0.01,0 z"
       fill="#231f20"
       id="path22" />
    <path
       d="m 95.41,125.26 a 4.36,4.36 0 0 1 0.08,5.46 h 0.28"
       fill="#ffffff"
       id="path24" />
    <path
       d="m 95.49,131.22 a 0.49,0.49 0 0 1 -0.38,-0.81 3.88,3.88 0 0 0 -0.07,-4.82 0.51,0.51 0 0 1 0,-0.71 0.49,0.49 0 0 1 0.7,0.05 4.87,4.87 0 0 1 0.45,5.61 0.32,0.32 0 0 1 0,0.14 0.51,0.51 0 0 1 -0.47,0.53 h -0.31 z"
       fill="#231f20"
       id="path26" />
    <rect
       x="95.300003"
       y="96.290001"
       width="135.02"
       height="97.790001"
       transform="rotate(5.48,162.75824,145.09295)"
       fill="#ffffff"
       id="rect28" />
    <path
       d="m 225.35,200.83 v 0 L 90.89,187.94 a 0.52,0.52 0 0 1 -0.46,-0.57 L 99.76,90 a 0.52,0.52 0 0 1 0.56,-0.47 l 134.41,12.89 a 0.5,0.5 0 0 1 0.46,0.56 l -9.33,97.35 a 0.49,0.49 0 0 1 -0.19,0.35 0.53,0.53 0 0 1 -0.32,0.15 z M 91.5,187 224.88,199.79 234.12,103.46 100.74,90.64 Z"
       fill="#231f20"
       id="path30" />
    <path
       d="m 214.83,191.55 h -0.05 L 103,180.83 a 0.51,0.51 0 0 1 -0.46,-0.56 l 7.76,-81 a 0.49,0.49 0 0 1 0.19,-0.35 0.5,0.5 0 0 1 0.37,-0.12 l 111.8,10.72 a 0.51,0.51 0 0 1 0.46,0.56 l -7.76,81 a 0.48,0.48 0 0 1 -0.19,0.35 0.49,0.49 0 0 1 -0.34,0.12 z M 103.6,179.85 214.36,190.47 222,110.53 111.26,99.91 Z"
       fill="#d1d3d4"
       id="path32" />
    <path
       d="m 49.54,246.34 -0.85,6.22 c 0,0 17.32,1.8 16.66,0.3 a 67.69,67.69 0 0 0 -4.18,-6.25"
       fill="#ffffff"
       id="path34" />
    <path
       d="m 61.67,254 c -3.74,0 -9.23,-0.49 -13,-0.89 a 0.46,0.46 0 0 1 -0.34,-0.19 0.45,0.45 0 0 1 -0.1,-0.37 l 0.85,-6.23 a 0.5,0.5 0 0 1 0.56,-0.43 0.5,0.5 0 0 1 0.43,0.56 l -0.78,5.72 c 6.75,0.68 14,1.09 15.5,0.67 -0.89,-1.67 -4,-5.83 -4,-5.88 a 0.5,0.5 0 1 1 0.8,-0.59 64.53,64.53 0 0 1 4.23,6.34 0.64,0.64 0 0 1 -0.07,0.68 c -0.34,0.39 -1.91,0.61 -4.08,0.61 z"
       fill="#231f20"
       id="path36" />
    <path
       d="m 92.26,133.23 c 0,0 11.23,7.48 15.59,5.24 2.58,-1.33 4.64,-3.23 7,-4.86 a 66.11,66.11 0 0 0 6.44,-4.81 3.6,3.6 0 0 0 0.62,-0.67 4.17,4.17 0 0 0 0.36,-0.84 22,22 0 0 1 1.42,-3.31 2.13,2.13 0 0 1 0.94,-1 c 2.31,-0.91 0.86,3.88 0.39,4.73 1.78,-1.67 3.62,-3.35 5.56,-4.86 a 0.92,0.92 0 0 1 0.72,-0.27 0.61,0.61 0 0 1 0.36,0.72 1.7,1.7 0 0 1 -0.44,0.75 l -3.1,3.65 a 26.87,26.87 0 0 1 2.89,-3 c 0.37,-0.34 1.42,-1.34 2,-0.94 0.93,0.7 -2.39,4.46 -3,5.08 a 17,17 0 0 1 3.07,-3.22 1.76,1.76 0 0 1 1.15,-0.51 c 0.23,0.23 0,0.62 -0.19,0.87 l -2.16,2.49 c 1.09,-1.2 2.3,-2.47 3.89,-2.77 0.08,0.26 -0.11,0.52 -0.29,0.73 -3.18,3.71 -6.37,7.37 -9.72,10.92 -4.46,4.72 -9.3,10.17 -15.65,12 -7.53,2.2 -14.27,-2.26 -20.46,-6.09"
       fill="#ffffff"
       id="path38" />
    <path
       d="m 106.05,150.37 c -5.8,0 -11.13,-3.31 -15.94,-6.29 l -0.73,-0.45 a 0.50084928,0.50084928 0 0 1 0.53,-0.85 l 0.73,0.45 c 6,3.75 12.3,7.63 19.32,5.58 5.85,-1.72 10.53,-6.69 14.65,-11.07 l 0.78,-0.83 c 3.3,-3.49 6.48,-7.15 9.21,-10.33 a 11,11 0 0 0 -2.36,2.13 0.5,0.5 0 0 1 -0.71,0 0.5,0.5 0 0 1 0,-0.7 l 1.73,-2 a 16,16 0 0 0 -1.29,1.18 c -0.57,0.74 -1.17,1.42 -1.56,1.85 a 0.5,0.5 0 0 1 -0.69,0 0.51,0.51 0 0 1 -0.09,-0.68 18.17,18.17 0 0 1 1.55,-1.84 6.1,6.1 0 0 0 1.48,-2.6 4.86,4.86 0 0 0 -1.23,0.91 26.85,26.85 0 0 0 -2.13,2.14 l -0.77,0.91 a 0.49,0.49 0 0 1 -0.7,0.06 0.5,0.5 0 0 1 -0.07,-0.7 c 0.26,-0.31 0.52,-0.63 0.79,-0.93 l 2.32,-2.72 a 1.4,1.4 0 0 0 0.33,-0.53 0.22,0.22 0 0 0 0,-0.15 c 0,0 -0.06,0 -0.26,0.19 -2,1.57 -3.92,3.32 -5.53,4.83 a 0.5,0.5 0 0 1 -0.78,-0.6 c 0.42,-0.76 1.15,-3.52 0.68,-4.06 -0.08,-0.09 -0.37,0 -0.45,0 a 1.59,1.59 0 0 0 -0.67,0.8 22.62,22.62 0 0 0 -1.4,3.24 3.84,3.84 0 0 1 -0.41,1 3.59,3.59 0 0 1 -0.71,0.77 59.78,59.78 0 0 1 -5.93,4.47 l -0.55,0.38 c -0.79,0.55 -1.56,1.14 -2.31,1.71 a 32.12,32.12 0 0 1 -4.74,3.18 c -4.57,2.35 -15.63,-4.95 -16.09,-5.27 a 0.49,0.49 0 0 1 -0.14,-0.69 0.5,0.5 0 0 1 0.69,-0.14 c 3.06,2 11.72,6.94 15.09,5.21 a 30.74,30.74 0 0 0 4.59,-3.09 c 0.75,-0.58 1.53,-1.17 2.34,-1.73 l 0.55,-0.38 a 58.92,58.92 0 0 0 5.83,-4.4 2.8,2.8 0 0 0 0.54,-0.56 3.31,3.31 0 0 0 0.29,-0.68 23.45,23.45 0 0 1 1.47,-3.43 2.48,2.48 0 0 1 1.2,-1.27 1.27,1.27 0 0 1 1.56,0.23 c 0.57,0.65 0.42,2.05 0.12,3.24 1.28,-1.17 2.68,-2.4 4.15,-3.54 a 1.3,1.3 0 0 1 1.14,-0.35 1.08,1.08 0 0 1 0.76,1.12 1.09,1.09 0 0 1 1.09,0.09 0.88,0.88 0 0 1 0.36,0.66 1.69,1.69 0 0 1 -0.12,0.73 1.64,1.64 0 0 1 0.76,-0.14 0.5,0.5 0 0 1 0.32,0.15 0.81,0.81 0 0 1 0.24,0.69 4.65,4.65 0 0 1 0.85,-0.25 0.51,0.51 0 0 1 0.57,0.36 1.31,1.31 0 0 1 -0.39,1.19 c -2.84,3.32 -6.22,7.22 -9.74,10.94 l -0.77,0.82 c -4.21,4.48 -9,9.56 -15.1,11.35 a 15,15 0 0 1 -4.25,0.69 z"
       fill="#231f20"
       id="path40" />
    <polygon
       points="87.48,247.13 72.77,186.76 62.29,247.28 49.01,246.34 56.47,158 88.29,162.03 99.31,247.44 "
       fill="#231f20"
       id="polygon42"
       style="fill:#1a212b;fill-opacity:1" />
    <path
       d="m 69,129.79 c 0.33,-7.13 -1.11,-21.59 -1.11,-21.59 0,0 9.08,0.52 12.14,-3.85 3.74,2.93 4.51,11.19 3.83,13.66 -1.36,4.87 -7.69,3.8 -7.69,3.8 l 0.81,8.92 z"
       fill="#ffffff"
       id="path44" />
    <path
       d="m 77,131.23 h -0.06 l -8,-0.95 a 0.5,0.5 0 0 1 -0.44,-0.52 c 0.33,-7 -1.09,-21.37 -1.11,-21.51 a 0.53,0.53 0 0 1 0.14,-0.4 0.52,0.52 0 0 1 0.39,-0.15 c 0.09,0 8.84,0.45 11.7,-3.63 a 0.48,0.48 0 0 1 0.34,-0.21 0.52,0.52 0 0 1 0.38,0.1 c 3.92,3.07 4.72,11.57 4,14.18 -1.19,4.29 -5.89,4.36 -7.62,4.23 l 0.76,8.31 a 0.53,0.53 0 0 1 -0.15,0.41 0.5,0.5 0 0 1 -0.33,0.14 z m -7.46,-1.88 6.91,0.81 -0.76,-8.3 a 0.51,0.51 0 0 1 0.16,-0.41 0.47,0.47 0 0 1 0.42,-0.13 c 0.24,0 5.91,0.93 7.12,-3.44 0.58,-2.09 0,-9.7 -3.27,-12.8 -3,3.51 -9.64,3.67 -11.66,3.64 0.25,2.68 1.29,14.28 1.07,20.63 z"
       fill="#231f20"
       id="path46" />
    <path
       d="m 76.18,121.81 a 7.84,7.84 0 0 1 -3.91,-1.62 c 0,0 1.72,4.32 4.39,5 z"
       fill="#231f20"
       id="path48" />
    <path
       d="m 76.66,125.61 h -0.11 c -2.86,-0.69 -4.63,-5.06 -4.71,-5.24 a 0.45,0.45 0 0 1 0.18,-0.55 0.44,0.44 0 0 1 0.57,0.06 7.44,7.44 0 0 0 3.65,1.49 0.45,0.45 0 0 1 0.39,0.39 l 0.48,3.34 a 0.46,0.46 0 0 1 -0.14,0.4 0.47,0.47 0 0 1 -0.31,0.11 z m -3.23,-4.11 a 7.66,7.66 0 0 0 2.67,3 l -0.32,-2.25 a 10.5,10.5 0 0 1 -2.35,-0.75 z"
       fill="#231f20"
       id="path50" />
    <path
       d="m 83,126.12 20.74,11.37 -5,14.51 c 0,0 -26.06,-13.8 -26.24,-17.53 -0.18,-3.73 10.5,-8.35 10.5,-8.35 z"
       fill="#687bfd"
       id="path52"
       style="fill:#f54b28;fill-opacity:1" />
    <path
       d="m 89.62,169.92 c 0,0 0.85,-18.73 -1,-30 -0.79,-4.8 -0.48,-8.17 -2.07,-10.77 -5.34,-8.72 -26.14,-6.12 -29.16,-0.07 C 54.37,135.13 52,170.1 52,170.1 Z"
       fill="#687bfd"
       id="path54"
       style="fill:#f54b28;fill-opacity:1" />
    <path
       d="m 69.38,113.27 a 3.1,3.1 0 0 0 -2.21,-2.37 1.83,1.83 0 0 0 -1.5,0.16 2,2 0 0 0 -0.67,1.84 4.33,4.33 0 0 0 1.37,2.83 4.28,4.28 0 0 0 2.93,1.11"
       fill="#ffffff"
       id="path56" />
    <path
       d="m 69.23,117.34 a 4.74,4.74 0 0 1 -4.74,-4.4 2.47,2.47 0 0 1 0.9,-2.29 2.29,2.29 0 0 1 1.91,-0.24 3.63,3.63 0 0 1 2.57,2.76 0.5,0.5 0 0 1 -0.39,0.59 0.51,0.51 0 0 1 -0.59,-0.4 2.64,2.64 0 0 0 -1.85,-2 1.29,1.29 0 0 0 -1.08,0.1 1.62,1.62 0 0 0 -0.47,1.39 3.79,3.79 0 0 0 1.21,2.49 3.84,3.84 0 0 0 2.58,1 v 0 a 0.51,0.51 0 0 1 0.5,0.5 0.5,0.5 0 0 1 -0.5,0.5 z"
       fill="#231f20"
       id="path58" />
    <ellipse
       cx="80.330002"
       cy="109"
       rx="0.44"
       ry="0.81"
       transform="rotate(-17.33,80.342899,108.99604)"
       fill="#231f20"
       id="ellipse60" />
    <path
       d="m 87.48,247.13 c 0,0 -0.33,5.16 0.34,6 0.67,0.84 17.28,1.87 16.45,-0.13 -0.83,-2 -6,-6.23 -6,-6.23"
       fill="#ffffff"
       id="path62" />
    <path
       d="m 98.2,254.66 c -4.66,0 -10.25,-0.57 -10.77,-1.23 -0.73,-0.91 -0.53,-5.07 -0.45,-6.33 a 0.52,0.52 0 0 1 0.54,-0.47 0.5,0.5 0 0 1 0.46,0.54 c -0.15,2.39 -0.1,5.23 0.23,5.64 a 41.43,41.43 0 0 0 7.86,0.79 c 4.89,0.17 7.21,-0.19 7.69,-0.51 -0.75,-1.58 -4.39,-4.8 -5.76,-5.93 a 0.5,0.5 0 0 1 -0.07,-0.71 0.5,0.5 0 0 1 0.7,-0.07 c 0.22,0.18 5.23,4.34 6.1,6.43 a 0.89,0.89 0 0 1 -0.46,1.14 c -0.86,0.51 -3.27,0.71 -6.07,0.71 z"
       fill="#231f20"
       id="path64" />
    <path
       d="m 82.31,109.22 c 0,0 3.65,4.16 2.75,5.06 -0.9,0.9 -3,0.45 -3,0.45"
       fill="#ffffff"
       id="path66" />
    <path
       d="m 83.22,115.34 a 7,7 0 0 1 -1.27,-0.12 0.5,0.5 0 0 1 -0.38,-0.6 0.49,0.49 0 0 1 0.59,-0.38 c 0.48,0.1 2,0.26 2.55,-0.31 0.17,-0.43 -1.15,-2.52 -2.77,-4.38 a 0.48,0.48 0 0 1 0,-0.7 0.5,0.5 0 0 1 0.71,0 c 1.48,1.69 3.8,4.67 2.73,5.74 a 3.11,3.11 0 0 1 -2.16,0.75 z"
       fill="#231f20"
       id="path68" />
    <path
       d="m 98.75,152.5 a 0.46,0.46 0 0 1 -0.23,-0.06 c -0.15,-0.07 -14.49,-7.73 -19.71,-10.57 a 0.49,0.49 0 0 1 -0.2,-0.68 0.49,0.49 0 0 1 0.67,-0.2 c 5.23,2.84 19.56,10.49 19.71,10.57 a 0.5,0.5 0 0 1 0.2,0.68 0.49,0.49 0 0 1 -0.44,0.26 z"
       fill="#231f20"
       id="path70" />
    <path
       d="m 72.77,187.26 a 0.46,0.46 0 0 1 -0.33,-0.13 c -0.09,-0.08 -2.19,-2.06 -4.36,-9.36 a 0.52,0.52 0 0 1 0.34,-0.63 0.51,0.51 0 0 1 0.62,0.34 c 2.07,7 4,8.9 4.07,8.91 a 0.5,0.5 0 0 1 0,0.71 0.49,0.49 0 0 1 -0.34,0.16 z"
       fill="#ffffff"
       id="path72" />
    <path
       d="m 190.6,159.77 a 0.5,0.5 0 0 1 -0.39,-0.18 c -0.4,-0.45 -39.44,-45.15 -44.35,-48.65 -1.89,-1.36 -13.6,3.25 -38.09,21.49 a 0.52,0.52 0 0 1 -0.62,-0.83 c 0.09,-0.06 8.54,-6.35 17.5,-12.11 18.39,-11.84 21,-10 21.81,-9.39 5,3.57 42.91,47 44.52,48.81 a 0.52,0.52 0 0 1 0,0.73 0.55,0.55 0 0 1 -0.38,0.13 z"
       fill="#d1d3d4"
       id="path74" />
    <path
       d="m 218.91,152.24 a 0.53,0.53 0 0 1 -0.45,-0.25 c -8.15,-13.42 -17.57,-27.45 -19.23,-27.7 -1.68,0.24 -15.44,11.27 -23.71,18.16 a 0.52,0.52 0 0 1 -0.66,-0.8 c 2.21,-1.84 21.68,-18 24.26,-18.39 0.85,-0.14 4.54,2.39 20.23,28.2 a 0.52,0.52 0 0 1 -0.18,0.71 0.48,0.48 0 0 1 -0.26,0.07 z"
       fill="#d1d3d4"
       id="path76" />
    <path
       d="m 178.23,123.57 a 4.28,4.28 0 1 1 4.28,-4.27 4.28,4.28 0 0 1 -4.28,4.27 z m 0,-7.52 a 3.25,3.25 0 1 0 3.25,3.25 3.25,3.25 0 0 0 -3.25,-3.25 z"
       fill="#d1d3d4"
       id="path78" />
    <path
       d="m 76.8,115.89 a 3.21,3.21 0 0 0 2.69,2 3.93,3.93 0 0 0 3.13,-1.26"
       fill="#ffffff"
       id="path80" />
    <path
       d="m 79.78,118.35 h -0.34 a 3.7,3.7 0 0 1 -3.11,-2.26 0.50328918,0.50328918 0 0 1 0.94,-0.36 2.68,2.68 0 0 0 2.26,1.63 3.47,3.47 0 0 0 2.73,-1.1 0.5,0.5 0 0 1 0.71,0 0.49,0.49 0 0 1 0,0.7 4.48,4.48 0 0 1 -3.19,1.39 z"
       fill="#231f20"
       id="path82" />
    <path
       d="m 65.4,121.27 a 12.82,12.82 0 0 1 -5.79,-1.38 4.79,4.79 0 0 1 -2.15,-1.89 2.76,2.76 0 0 1 -0.31,-1.66 3.87,3.87 0 0 1 -2.35,-0.4 7.8,7.8 0 0 1 -2.62,-2.4 1.54,1.54 0 0 1 -0.38,-1 1.47,1.47 0 0 1 0.47,-0.92 l 0.67,-0.73 a 21.61,21.61 0 0 0 3.21,-4.13 20.94,20.94 0 0 0 1.34,-3.37 c 0.29,-0.87 0.59,-1.77 1,-2.63 2.7,-6.1 7.69,-7.09 12.23,-7.26 2.86,-0.1 6.67,0.8 8.4,3.65 a 1.46,1.46 0 0 1 0.37,-0.2 2.2,2.2 0 0 1 1.67,0.06 4.15,4.15 0 0 1 1.71,1.84 17.83,17.83 0 0 1 2.18,10 0.49,0.49 0 0 1 -0.54,0.46 0.5,0.5 0 0 1 -0.46,-0.53 A 16.83,16.83 0 0 0 82,99.38 3.18,3.18 0 0 0 80.7,98 a 1.17,1.17 0 0 0 -0.88,0 0.65,0.65 0 0 0 -0.38,0.34 0.5,0.5 0 0 1 -0.45,0.3 v 0 a 0.52,0.52 0 0 1 -0.46,-0.3 c -1.3,-2.91 -5,-3.84 -7.8,-3.72 -6.06,0.22 -9.35,2.15 -11.34,6.66 a 26.78,26.78 0 0 0 -0.94,2.54 21.76,21.76 0 0 1 -1.45,3.46 21.85,21.85 0 0 1 -3.36,4.32 l -0.66,0.73 a 1,1 0 0 0 -0.22,0.3 0.92,0.92 0 0 0 0.24,0.37 6.86,6.86 0 0 0 2.26,2.12 2.66,2.66 0 0 0 2.67,-0.06 0.5,0.5 0 0 1 0.61,0.79 1.44,1.44 0 0 0 -0.19,1.74 4,4 0 0 0 1.72,1.41 11.75,11.75 0 0 0 6,1.25 0.49,0.49 0 0 1 0.53,0.47 0.5,0.5 0 0 1 -0.47,0.53 z"
       fill="#231f20"
       id="path84" />
    <path
       d="m 181.37,130.94 h 171.81 c 7.47,0 11.44,5.19 8.85,11.59 l -38.64,95.61 c -2.58,6.4 -10.74,11.59 -18.21,11.59 H 133.36 c -7.47,0 -11.43,-5.19 -8.84,-11.59 l 38.63,-95.61 c 2.59,-6.4 10.74,-11.59 18.22,-11.59 z"
       fill="#ffffff"
       id="path86" />
    <path
       d="M 305.18,250.25 H 133.36 c -3.93,0 -7.16,-1.44 -8.86,-4 C 123,244 122.79,241 124,238 l 38.63,-95.61 c 2.66,-6.57 11,-11.91 18.7,-11.91 h 171.85 c 3.94,0 7.17,1.44 8.86,3.95 1.55,2.29 1.72,5.26 0.47,8.35 l -38.64,95.6 c -2.65,6.52 -11.04,11.87 -18.69,11.87 z M 181.37,131.46 c -7.27,0 -15.23,5 -17.74,11.27 L 125,238.33 c -1.11,2.76 -1,5.39 0.37,7.39 1.5,2.22 4.41,3.5 8,3.5 h 171.81 c 7.27,0 15.22,-5.06 17.74,-11.27 l 38.63,-95.61 c 1.12,-2.76 1,-5.38 -0.36,-7.38 -1.5,-2.23 -4.42,-3.5 -8,-3.5 z"
       fill="#231f20"
       id="path88" />
    <path
       d="m 294.69,72.48 h -29 a 0.51,0.51 0 0 1 -0.52,-0.51 V 43 a 0.52,0.52 0 1 1 1,0 v 28.45 h 28.51 a 0.52,0.52 0 1 1 0,1 z"
       fill="#231f20"
       id="path90" />
    <path
       d="m 192.66,62 a 4.34,4.34 0 0 1 -3.78,-2.44 c -1.17,-2.25 -4.42,-14 -5,-18.68 a 4.08,4.08 0 0 1 3.24,-4.69 c 2.27,-0.63 5.38,0 6.21,1.87 0.68,1.54 1.88,4.44 1.88,4.44 l -0.95,0.4 c 0,0 -1.26,-2.9 -1.9,-4.43 -0.53,-1.22 -3,-1.85 -5,-1.29 a 3.09,3.09 0 0 0 -2.5,3.57 c 0.64,5 3.88,16.33 4.92,18.33 a 3.19,3.19 0 0 0 3.44,1.81 2.22,2.22 0 0 0 1.5,-2.49 c -0.13,-3.78 -5.23,-17.6 -5.28,-17.74 a 0.51,0.51 0 0 1 0.31,-0.66 0.52,0.52 0 0 1 0.66,0.3 c 0.21,0.58 5.2,14.12 5.34,18.06 a 3.22,3.22 0 0 1 -2.27,3.53 3.34,3.34 0 0 1 -0.82,0.11 z"
       fill="#231f20"
       id="path92" />
    <path
       d="m 333.31,162.54 h -58.85 a 3.61,3.61 0 0 1 -3.17,-1.51 4.26,4.26 0 0 1 -0.12,-4 l 2,-4.83 a 8.78,8.78 0 0 1 7.34,-5.16 h 58.86 a 3.66,3.66 0 0 1 3.17,1.51 4.26,4.26 0 0 1 0.12,4 l -2,4.84 a 8.77,8.77 0 0 1 -7.35,5.15 z M 280.53,148 a 7.68,7.68 0 0 0 -6.39,4.52 l -2,4.84 a 3.27,3.27 0 0 0 0,3.07 2.67,2.67 0 0 0 2.32,1 h 58.85 A 7.66,7.66 0 0 0 339.7,157 l 2,-4.83 a 3.28,3.28 0 0 0 0,-3.08 2.64,2.64 0 0 0 -2.31,-1.05 z"
       fill="#d1d3d4"
       id="path94" />
  </g>
</svg>
