<?xml version="1.0" encoding="UTF-8" standalone="no"?>
<svg
   xmlns:dc="http://purl.org/dc/elements/1.1/"
   xmlns:cc="http://creativecommons.org/ns#"
   xmlns:rdf="http://www.w3.org/1999/02/22-rdf-syntax-ns#"
   xmlns:svg="http://www.w3.org/2000/svg"
   xmlns="http://www.w3.org/2000/svg"
   xmlns:sodipodi="http://sodipodi.sourceforge.net/DTD/sodipodi-0.dtd"
   xmlns:inkscape="http://www.inkscape.org/namespaces/inkscape"
   viewBox="0 0 263.02966 234.3524"
   version="1.1"
   id="svg77"
   sodipodi:docname="splash.svg"
   width="263.02966"
   height="234.3524"
   inkscape:version="1.0.2 (e86c870879, 2021-01-15)">
  <metadata
     id="metadata83">
    <rdf:RDF>
      <cc:Work
         rdf:about="">
        <dc:format>image/svg+xml</dc:format>
        <dc:type
           rdf:resource="http://purl.org/dc/dcmitype/StillImage" />
        <dc:title></dc:title>
      </cc:Work>
    </rdf:RDF>
  </metadata>
  <defs
     id="defs81" />
  <sodipodi:namedview
     pagecolor="#ffffff"
     bordercolor="#666666"
     borderopacity="1"
     objecttolerance="10"
     gridtolerance="10"
     guidetolerance="10"
     inkscape:pageopacity="0"
     inkscape:pageshadow="2"
     inkscape:window-width="1920"
     inkscape:window-height="1056"
     id="namedview79"
     showgrid="false"
     fit-margin-top="0"
     fit-margin-left="0"
     fit-margin-right="0"
     fit-margin-bottom="0"
     inkscape:zoom="3.6958114"
     inkscape:cx="49.748825"
     inkscape:cy="67.457328"
     inkscape:window-x="0"
     inkscape:window-y="0"
     inkscape:window-maximized="1"
     inkscape:current-layer="svg77" />
  <g
     id="_483_data_organization_flatline"
     data-name="#483_data_organization_flatline"
     transform="translate(-89.500422,-38.837605)">
    <path
       d="m 107.17,204.37 c 0,0 -2.57,-0.19 -2.94,-3.85 C 103.9,197.31 92.76,95.1 90,69.85 a 5.87,5.87 0 0 1 5,-6.44 l 159.25,-24 a 5,5 0 0 1 5.75,5.18 l -4.3,104.35 z"
       fill="#231f20"
       id="path2"
       style="fill:#1a212b;fill-opacity:1" />
    <path
       d="m 107.17,204.87 v 0 c 0,0 -3,-0.27 -3.41,-4.3 C 103.43,197.31 91.86,91.15 89.54,69.9 a 6.36,6.36 0 0 1 5.39,-7 l 159.25,-24 a 5.49,5.49 0 0 1 6.31,5.67 L 256.2,149 a 0.51,0.51 0 0 1 -0.33,0.45 l -148.52,55.39 a 0.57,0.57 0 0 1 -0.18,0.03 z M 255,39.88 a 4,4 0 0 0 -0.68,0 L 95,63.9 a 5.35,5.35 0 0 0 -4.53,5.89 c 2.35,21.21 13.92,127.42 14.26,130.68 0.28,2.82 2,3.31 2.39,3.39 l 148.09,-55.27 4.25,-104 A 4.5,4.5 0 0 0 255,39.88 Z"
       fill="#231f20"
       id="path4" />
    <polygon
       points="255.8,47.35 250.07,143.08 110.8,193.48 98.41,73.63 "
       fill="#ffffff"
       id="polygon6" />
    <path
       d="m 110.8,193.94 a 0.45,0.45 0 0 1 -0.25,-0.07 0.51,0.51 0 0 1 -0.21,-0.34 L 98,73.68 a 0.47,0.47 0 0 1 0.38,-0.5 L 255.73,46.9 a 0.49,0.49 0 0 1 0.38,0.11 0.51,0.51 0 0 1 0.15,0.37 l -5.73,95.73 a 0.45,0.45 0 0 1 -0.3,0.4 L 111,193.91 a 0.4,0.4 0 0 1 -0.2,0.03 z M 98.91,74 l 12.28,118.84 138.45,-50.09 5.67,-94.86 z"
       fill="#231f20"
       id="path8" />
    <path
       d="m 116.68,160.36 a 0.56,0.56 0 0 1 -0.42,-0.18 0.57,0.57 0 0 1 0,-0.79 L 227.05,60.86 a 0.57,0.57 0 0 1 0.79,0 0.55,0.55 0 0 1 -0.05,0.78 l -110.74,98.58 a 0.54,0.54 0 0 1 -0.37,0.14 z"
       fill="#d1d3d4"
       id="path10" />
    <path
       d="m 107.17,204.37 -0.18,4.44 a 0.85,0.85 0 0 0 0.36,0.73 l 85.87,61.93 a 6.44,6.44 0 0 0 6.59,0.57 L 350.18,198.8 a 3.27,3.27 0 0 0 1.83,-2.93 v -2.75 l -183.26,11.2 z"
       fill="#231f20"
       id="path12"
       style="fill:#1a212b;fill-opacity:1" />
    <path
       d="m 197,273.19 a 7,7 0 0 1 -4.07,-1.31 L 107.05,210 a 1.36,1.36 0 0 1 -0.56,-1.16 l 0.18,-4.44 a 0.5,0.5 0 0 1 0.5,-0.48 L 168.75,203.87 352,192.62 a 0.51,0.51 0 0 1 0.38,0.13 0.51,0.51 0 0 1 0.15,0.37 v 2.75 a 3.76,3.76 0 0 1 -2.11,3.37 L 200,272.49 a 7,7 0 0 1 -3,0.7 z m -89.34,-68.32 -0.16,4 a 0.37,0.37 0 0 0 0.15,0.31 l 85.87,61.92 a 5.92,5.92 0 0 0 6.08,0.53 L 350,198.35 a 2.77,2.77 0 0 0 1.55,-2.48 v -2.22 l -182.77,11.17 z"
       fill="#231f20"
       id="path14" />
    <path
       d="m 107.68,203.76 148,-54.82 95.32,42.86 a 1.62,1.62 0 0 1 0.11,3 L 198,266.53 a 4.76,4.76 0 0 1 -4.8,-0.43 l -85.73,-61 a 0.79,0.79 0 0 1 0.21,-1.34 z"
       fill="#ffffff"
       id="path16" />
    <path
       d="m 196,267.44 a 5.21,5.21 0 0 1 -3,-1 l -85.73,-61 a 1.24,1.24 0 0 1 0.29,-2.18 l 148,-54.82 a 0.47,0.47 0 0 1 0.35,0 l 95.28,42.86 a 2.08,2.08 0 0 1 0.12,3.81 L 198.22,267 a 5.2,5.2 0 0 1 -2.22,0.44 z m 59.68,-118 -147.84,54.75 v 0 a 0.33,0.33 0 0 0 -0.21,0.26 0.31,0.31 0 0 0 0.14,0.31 l 85.73,61 a 4.33,4.33 0 0 0 4.34,0.39 L 350.9,194.36 a 1.14,1.14 0 0 0 0.66,-1.09 1.16,1.16 0 0 0 -0.74,-1 z m -148,54.33 z"
       fill="#231f20"
       id="path18" />
    <path
       d="m 176,238 a 8.07,8.07 0 0 1 -4.48,-1.36 l -38.27,-25.51 a 3.68,3.68 0 0 1 0.76,-6.52 l 122.58,-45.33 a 0.55,0.55 0 0 1 0.42,0 l 44.32,19.55 a 3.22,3.22 0 0 1 0,5.89 L 179.22,237.35 A 8.25,8.25 0 0 1 176,238 Z m 80.77,-77.6 -122.37,45.26 a 2.57,2.57 0 0 0 -0.54,4.55 l 38.27,25.51 a 7,7 0 0 0 6.65,0.61 v 0 l 122.08,-52.61 a 2.07,2.07 0 0 0 1.27,-1.92 2.1,2.1 0 0 0 -1.25,-1.93 z"
       fill="#d1d3d4"
       id="path20" />
    <path
       d="m 253.27,234.47 a 1.77,1.77 0 0 1 -0.84,-0.21 L 230,222.44 a 1.81,1.81 0 0 1 0.12,-3.26 l 43.41,-18.89 v 0 a 4.89,4.89 0 0 1 4,0.05 l 21.37,9.93 a 1.81,1.81 0 0 1 0,3.28 L 254,234.3 a 1.83,1.83 0 0 1 -0.73,0.17 z M 274,201.31 230.6,220.2 a 0.7,0.7 0 0 0 0,1.26 l 22.42,11.82 a 0.68,0.68 0 0 0 0.62,0 l 44.85,-20.75 a 0.7,0.7 0 0 0 0,-1.27 L 277,201.35 a 3.77,3.77 0 0 0 -3.07,0 z"
       fill="#d1d3d4"
       id="path22" />
    <polygon
       points="231.54,68.88 231.54,150.04 140.35,170.37 140.35,165.73 134.16,100.69 132.75,84.93 "
       fill="#231f20"
       id="polygon24"
       style="fill:#1a212b;fill-opacity:1" />
    <path
       d="m 140.35,170.87 a 0.5,0.5 0 0 1 -0.5,-0.5 v -4.64 l -6.19,-65 v 0 L 132.25,85 a 0.5,0.5 0 0 1 0.42,-0.54 l 98.79,-16.05 a 0.52,0.52 0 0 1 0.58,0.5 V 150 a 0.49,0.49 0 0 1 -0.39,0.48 l -91.19,20.33 z m -5.69,-70.22 6.19,65 v 4.05 L 231,149.64 V 69.47 l -97.71,15.88 z"
       fill="#231f20"
       id="path26" />
    <polygon
       points="200.89,78.31 185.21,129.69 135.04,109.99 133.13,89.19 "
       fill="#ffffff"
       id="polygon28" />
    <path
       d="m 185.21,130.15 a 0.45,0.45 0 0 1 -0.16,0 l -50.17,-19.7 a 0.47,0.47 0 0 1 -0.29,-0.39 l -1.91,-20.8 a 0.44,0.44 0 0 1 0.38,-0.49 l 67.75,-10.88 a 0.44,0.44 0 0 1 0.42,0.15 0.45,0.45 0 0 1 0.09,0.43 l -15.67,51.39 a 0.47,0.47 0 0 1 -0.24,0.28 0.45,0.45 0 0 1 -0.2,0.01 z m -49.74,-20.48 49.45,19.42 15.32,-50.21 -66.62,10.69 z"
       fill="#231f20"
       id="path30" />
    <path
       d="m 146.12,151.84 c -0.28,-1.69 -5.59,-57.86 -5.59,-57.86 l 35.86,-6.24 v -6.8 l 41.94,-8 3.29,4.47 20.66,-3.6 1.12,52.37 z"
       fill="#e6e7e8"
       id="path32" />
    <path
       d="m 146.12,152.3 a 0.42,0.42 0 0 1 -0.24,-0.07 0.45,0.45 0 0 1 -0.21,-0.31 c -0.28,-1.69 -5.38,-55.6 -5.6,-57.89 a 0.46,0.46 0 0 1 0.38,-0.5 l 35.48,-6.17 v -6.42 a 0.46,0.46 0 0 1 0.38,-0.45 l 41.94,-8 a 0.46,0.46 0 0 1 0.45,0.18 l 3.12,4.24 20.38,-3.55 a 0.45,0.45 0 0 1 0.53,0.44 l 1.13,52.37 a 0.46,0.46 0 0 1 -0.34,0.45 l -97.28,25.72 z M 141,94.36 c 0.47,4.94 4.87,51.38 5.49,56.91 l 96.43,-25.49 -1.09,-51.48 -20.14,3.51 a 0.47,0.47 0 0 1 -0.44,-0.18 l -3.12,-4.23 -41.28,7.92 v 6.42 a 0.44,0.44 0 0 1 -0.38,0.45 z"
       fill="#231f20"
       id="path34" />
    <polygon
       points="223.69,82.53 223.69,116.37 163.06,125.27 160.06,93.98 "
       fill="#ffffff"
       id="polygon36" />
    <path
       d="m 163.06,125.72 a 0.44,0.44 0 0 1 -0.45,-0.41 l -3,-31.28 a 0.46,0.46 0 0 1 0.37,-0.5 l 63.63,-11.45 a 0.51,0.51 0 0 1 0.38,0.1 0.48,0.48 0 0 1 0.16,0.35 v 33.84 a 0.46,0.46 0 0 1 -0.39,0.45 l -60.63,8.9 z m -2.5,-31.36 2.91,30.38 59.77,-8.74 V 83.08 Z"
       fill="#231f20"
       id="path38" />
    <path
       d="m 153.77,150 c -0.28,-1.69 0,-51.66 0,-51.66 l 40.66,-7.07 v -6.8 l 41.94,-8.05 3.29,4.46 14.93,-3.27 -4.13,48.24 z"
       fill="#e6e7e8"
       id="path40" />
    <path
       d="m 153.77,150.49 a 0.45,0.45 0 0 1 -0.25,-0.07 0.47,0.47 0 0 1 -0.2,-0.31 c -0.28,-1.71 0,-49.69 0,-51.73 a 0.46,0.46 0 0 1 0.38,-0.45 l 40.28,-7 v -6.42 a 0.46,0.46 0 0 1 0.38,-0.45 l 41.93,-8 a 0.47,0.47 0 0 1 0.46,0.18 l 3.11,4.22 14.64,-3.2 a 0.46,0.46 0 0 1 0.56,0.48 l -4.13,48.24 a 0.47,0.47 0 0 1 -0.35,0.41 l -96.67,24.14 z m 0.43,-51.72 c -0.08,16.4 -0.18,46.31 0,50.69 l 95.8,-23.93 4.05,-47.3 -14.33,3.14 a 0.45,0.45 0 0 1 -0.46,-0.18 L 236.15,77 194.87,84.92 v 6.43 a 0.46,0.46 0 0 1 -0.38,0.45 z"
       fill="#231f20"
       id="path42" />
    <path
       d="m 173.74,136.08 v -38.3 c 0,0 66.66,-12 66.85,-11.45 0.19,0.55 0,52.34 0,52.34 z"
       fill="#ffffff"
       id="path44" />
    <path
       d="m 240.59,139.13 v 0 l -66.85,-2.6 a 0.45,0.45 0 0 1 -0.43,-0.45 v -38.3 a 0.45,0.45 0 0 1 0.37,-0.45 c 0.17,0 16.86,-3 33.36,-5.93 33.76,-5.94 33.81,-5.77 34,-5.21 0.19,0.56 0.08,36.89 0,52.48 a 0.46,0.46 0 0 1 -0.45,0.46 z m -66.39,-3.49 65.93,2.56 c 0.06,-16.87 0.14,-47.57 0,-51.41 -4.58,0.41 -48.38,8.21 -66,11.38 z"
       fill="#231f20"
       id="path46" />
    <path
       d="m 180.33,155.22 c -0.28,-1.69 -0.56,-54.53 -0.56,-54.53 l 32,-5.56 1.41,-5.61 47.1,-10.39 3.29,4.46 14.93,-3.26 -4.13,48.24 z"
       fill="#e6e7e8"
       id="path48" />
    <path
       d="m 180.33,155.68 a 0.51,0.51 0 0 1 -0.24,-0.07 0.45,0.45 0 0 1 -0.21,-0.31 c -0.28,-1.71 -0.55,-52.45 -0.57,-54.6 a 0.46,0.46 0 0 1 0.38,-0.46 l 31.71,-5.51 1.34,-5.32 a 0.47,0.47 0 0 1 0.34,-0.33 l 47.1,-10.39 a 0.46,0.46 0 0 1 0.47,0.17 l 3.11,4.22 14.65,-3.2 a 0.48,0.48 0 0 1 0.4,0.1 0.51,0.51 0 0 1 0.15,0.39 l -4.13,48.24 a 0.46,0.46 0 0 1 -0.33,0.4 l -94,26.65 z m -0.1,-54.6 c 0.09,17.34 0.31,49 0.52,53.55 L 274,128.21 278,80.91 263.67,84 a 0.47,0.47 0 0 1 -0.47,-0.17 l -3.11,-4.23 -46.53,10.31 -1.35,5.33 a 0.48,0.48 0 0 1 -0.37,0.34 z"
       fill="#231f20"
       id="path50" />
    <polygon
       points="206.24,195.3 202.86,120.68 134.16,100.69 140.35,165.73 "
       fill="#687bfd"
       id="polygon52"
       style="fill:#f54b28;fill-opacity:1" />
    <path
       d="m 206.24,195.75 a 0.41,0.41 0 0 1 -0.19,0 l -65.88,-29.56 a 0.45,0.45 0 0 1 -0.27,-0.37 l -6.2,-65 a 0.48,0.48 0 0 1 0.17,-0.4 0.45,0.45 0 0 1 0.42,-0.09 l 68.7,20 a 0.44,0.44 0 0 1 0.32,0.41 l 3.38,74.62 a 0.46,0.46 0 0 1 -0.2,0.4 0.43,0.43 0 0 1 -0.25,-0.01 z m -65.46,-30.32 65,29.15 -3.36,-73.58 -67.74,-19.71 z"
       fill="#231f20"
       id="path54" />
    <polygon
       points="204.36,106.7 208.21,200.45 204.83,199.24 200.89,105.48 "
       fill="#687bfd"
       id="polygon56"
       style="fill:#f54b28;fill-opacity:1" />
    <path
       d="m 208.21,200.9 h -0.16 l -3.37,-1.21 a 0.46,0.46 0 0 1 -0.31,-0.41 l -3.94,-93.76 a 0.44,0.44 0 0 1 0.19,-0.39 0.45,0.45 0 0 1 0.42,-0.06 l 3.47,1.22 a 0.45,0.45 0 0 1 0.31,0.41 l 3.84,93.75 a 0.44,0.44 0 0 1 -0.18,0.38 0.46,0.46 0 0 1 -0.27,0.07 z m -2.94,-2 2.45,0.88 -3.8,-92.78 -2.55,-0.9 z"
       fill="#231f20"
       id="path58" />
    <polygon
       points="304.78,82.53 204.36,106.7 208.21,200.45 303.52,163.62 "
       fill="#687bfd"
       id="polygon60"
       style="fill:#f54b28;fill-opacity:1" />
    <path
       d="m 208.21,200.9 a 0.43,0.43 0 0 1 -0.25,-0.07 0.46,0.46 0 0 1 -0.21,-0.37 l -3.85,-93.74 a 0.45,0.45 0 0 1 0.35,-0.46 L 304.68,82.09 a 0.46,0.46 0 0 1 0.39,0.09 0.45,0.45 0 0 1 0.17,0.36 L 304,163.63 a 0.46,0.46 0 0 1 -0.29,0.42 l -95.31,36.82 a 0.45,0.45 0 0 1 -0.19,0.03 z m -3.38,-93.84 3.81,92.73 94.42,-36.48 1.26,-80.2 z"
       fill="#231f20"
       id="path62" />
    <polygon
       points="304.78,82.53 204.36,106.7 200.89,105.48 300.98,81.27 "
       fill="#687bfd"
       id="polygon64"
       style="fill:#f54b28;fill-opacity:1" />
    <path
       d="m 204.36,107.16 a 0.4,0.4 0 0 1 -0.15,0 l -3.47,-1.22 a 0.45,0.45 0 0 1 -0.31,-0.45 0.44,0.44 0 0 1 0.35,-0.42 L 300.87,80.82 a 0.57,0.57 0 0 1 0.26,0 l 3.8,1.27 a 0.45,0.45 0 0 1 0.31,0.45 0.46,0.46 0 0 1 -0.35,0.43 l -100.42,24.17 z m -1.86,-1.6 1.88,0.66 98.74,-23.76 -2.12,-0.72 z"
       fill="#231f20"
       id="path66" />
    <path
       d="m 248.88,139.23 a 3.67,3.67 0 0 1 -2.42,-1 3,3 0 0 1 -1.08,-2.39 c 0.07,-1.65 -0.55,-15.79 -0.56,-15.94 a 0.55,0.55 0 0 1 0.39,-0.55 l 26.94,-8 a 0.54,0.54 0 0 1 0.49,0.09 0.55,0.55 0 0 1 0.23,0.44 c 0,0.64 0,15.67 0,16.65 a 4.65,4.65 0 0 1 -2,3.59 c -1.36,1.06 -20,6.85 -21.61,7.09 a 2,2 0 0 1 -0.38,0.02 z M 246,120.32 c 0.11,2.45 0.61,14.05 0.54,15.59 a 2,2 0 0 0 0.71,1.53 2.54,2.54 0 0 0 1.94,0.66 c 1.74,-0.26 20,-6 21.09,-6.87 a 3.57,3.57 0 0 0 1.52,-2.75 c 0,-0.84 0,-12.75 0,-15.87 z"
       fill="#ffffff"
       id="path68" />
    <path
       d="m 278.91,144.15 a 2.52,2.52 0 0 0 -2.5,2.5 2.37,2.37 0 0 0 0.67,1.67 l -1.13,0.55 -4.45,2 c -3,1.32 -6,2.59 -9.08,3.71 a 79.21,79.21 0 0 1 -9.32,2.78 c -1.94,0.43 -5.29,1.52 -6.95,-0.12 -2.29,-2.25 -5.83,1.28 -3.53,3.54 3.09,3 7.52,2.34 11.36,1.5 a 83.06,83.06 0 0 0 12.8,-4 c 4.2,-1.66 8.38,-3.44 12.44,-5.4 1.76,-0.84 3.43,-2.33 3.49,-4.42 a 4,4 0 0 0 -3.8,-4.31 z"
       fill="#231f20"
       id="path70"
       style="fill:#1a212b;fill-opacity:1" />
    <path
       d="m 110.67,96.75 a 0.56,0.56 0 0 1 -0.39,-1 l 18.4,-17.88 a 0.56,0.56 0 0 1 0.77,0.8 l -18.39,17.92 a 0.54,0.54 0 0 1 -0.39,0.16 z"
       fill="#d1d3d4"
       id="path72" />
    <path
       d="m 116.68,125.82 a 0.55,0.55 0 0 1 -0.44,-0.21 0.56,0.56 0 0 1 0.09,-0.78 l 10.14,-8.09 a 0.56,0.56 0 1 1 0.69,0.87 L 117,125.7 a 0.54,0.54 0 0 1 -0.32,0.12 z"
       fill="#d1d3d4"
       id="path74" />
  </g>
</svg>
